<svg width="157" height="50" viewBox="0 0 157 50" fill="none" xmlns="http://www.w3.org/2000/svg">
<path fill-rule="evenodd" clip-rule="evenodd" d="M24.8791 1.08435C24.7154 1.1073 24.1194 1.18731 23.535 1.25591C22.9622 1.32452 21.8753 1.53034 21.1391 1.71328C15.8328 2.98254 11.2512 5.68116 7.85011 9.53468C4.56585 13.2511 2.66077 17.4819 2.02966 22.3988C1.31668 28.1049 3.03476 34.3026 6.64627 39.0022C10.7954 44.3994 16.7445 47.7841 23.7687 48.7676C25.4635 48.9962 28.7828 49.0305 30.3724 48.8246C34.9889 48.2301 39.1966 46.6063 42.6912 44.0793C43.6846 43.3588 45.3326 41.9753 45.3326 41.8609C45.3326 41.7809 39.3134 36.0978 38.4135 35.3317L37.9928 34.9658L36.9526 35.7776C34.1826 37.9502 31.2138 39.0364 27.6842 39.1737C24.8558 39.2767 22.6234 38.8078 20.1457 37.6071C13.4368 34.3597 10.2461 27.11 12.5485 20.3749C13.7991 16.7386 16.3353 13.8455 19.8534 12.0618C22.1909 10.884 24.3764 10.3694 27.0997 10.3809C31.2371 10.3809 34.5682 11.6501 37.7472 14.4174L38.8693 15.4008L42.3639 12.0846C44.2808 10.2551 45.8702 8.72279 45.8936 8.67706C45.9403 8.55132 43.9418 6.82468 42.7145 5.94419C39.3719 3.5314 35.6785 2.01058 31.4243 1.29017C30.3724 1.11862 25.6037 0.958533 24.8791 1.08435ZM29.6477 4.1146C32.2541 4.38902 34.9305 5.13231 37.2096 6.20714C38.4368 6.79034 41.2536 8.52845 41.4289 8.81427C41.4757 8.89435 40.9613 9.46607 40.155 10.2436L38.7992 11.5472L38.0862 11.0326C34.5916 8.50558 29.823 7.23632 25.4635 7.64795C24.657 7.71657 23.9558 7.78517 23.8974 7.79657C23.7687 7.81951 22.8688 4.68632 22.9389 4.4919C22.9857 4.37754 23.6285 4.2632 25.2882 4.06886C26.0829 3.96591 28.5841 4.00025 29.6477 4.1146ZM20.4611 6.80181C20.7066 7.71657 20.8819 8.51706 20.8468 8.56279C20.8118 8.61993 20.5897 8.72287 20.3443 8.80287C20.1105 8.87149 19.3625 9.21451 18.6846 9.54616C13.659 12.0389 10.3045 16.2584 9.22921 21.4499C9.08905 22.0787 8.98383 22.7647 8.98383 22.9592V23.3137H7.05537C5.71129 23.3137 5.12692 23.2794 5.12692 23.1879C5.12692 22.6733 5.54767 20.4779 5.8398 19.4601C7.38262 14.0972 11.1577 9.52328 16.4055 6.67599C17.0834 6.31009 19.7716 5.14378 19.9702 5.13231C20.0053 5.13231 20.2274 5.88698 20.4612 6.80181H20.4611ZM9.01885 26.95C9.22921 28.8596 10.1292 31.4324 11.1928 33.2162C13.1797 36.5209 16.5809 39.3796 20.0053 40.6374C20.3092 40.7518 20.5546 40.8546 20.5546 40.8776C20.5546 40.9004 20.3794 41.5522 20.1572 42.3297C19.9352 43.0959 19.7015 43.942 19.6313 44.2051L19.5027 44.6739L18.7665 44.388C16.9197 43.6677 15.003 42.5814 13.2499 41.2892C12.2446 40.5459 10.1993 38.5105 9.36946 37.4356C6.9969 34.3597 5.44244 30.4834 5.16194 26.9614L5.09182 26.0467L7.00854 26.0809L8.92535 26.1153L9.01885 26.95ZM39.3018 40.1343C40.1083 40.9004 40.7744 41.5636 40.7744 41.6094C40.7744 41.7809 38.5303 43.1188 37.1161 43.782C35.363 44.6168 33.7151 45.1541 31.7163 45.5772C30.3021 45.8631 29.9983 45.886 27.392 45.8974C25.1362 45.8974 24.3649 45.8517 23.4416 45.6916C22.4947 45.5086 22.3078 45.44 22.3545 45.2914C22.3895 45.177 22.6351 44.3309 22.8921 43.3818C23.161 42.4441 23.3832 41.6551 23.3947 41.6437C23.4182 41.6322 23.6636 41.6779 23.9441 41.758C24.2713 41.838 25.4869 41.8838 27.0997 41.8838C29.379 41.8838 29.8814 41.8495 30.8749 41.6322C33.1424 41.1405 35.6552 40.1458 37.0928 39.1738C37.4201 38.9564 37.7122 38.7735 37.7589 38.7621C37.7941 38.7506 38.4953 39.3683 39.3018 40.1343Z" fill="#FCFCFD"/>
<path fill-rule="evenodd" clip-rule="evenodd" d="M68.5791 10.8725C68.1819 11.6501 64.6287 18.511 60.6899 26.1379C56.7395 33.7535 53.5137 40.0199 53.5137 40.0541C53.5137 40.0884 55.0214 40.1227 56.8797 40.1227H60.2341L61.5782 37.3441L62.9339 34.5769L69.7713 34.5425L76.6203 34.5197L77.9994 37.3212L79.3903 40.1228H82.7096C85.3159 40.1228 86.0172 40.0884 85.9705 39.9741C85.9471 39.9054 82.3823 33.0217 78.0696 24.6857L70.2388 9.53467L69.7713 9.50033L69.3038 9.46606L68.5791 10.8725V10.8725ZM72.2608 25.086C73.5815 27.7845 74.6684 30.0373 74.6684 30.0831C74.6684 30.1401 72.4595 30.1744 69.7479 30.1744C66.9896 30.1744 64.8508 30.1287 64.8741 30.0716C65.1898 29.2483 69.7246 20.0432 69.783 20.1004C69.8298 20.1347 70.94 22.3759 72.2608 25.086Z" fill="#FCFCFD"/>
<path fill-rule="evenodd" clip-rule="evenodd" d="M139.524 10.1064C135.655 10.7239 132.757 12.0847 130.408 14.3831C128.526 16.2241 127.345 18.2708 126.667 20.878C125.557 25.1775 126.2 29.9573 128.362 33.4334C130.243 36.4751 133.236 38.6477 136.999 39.7111C140.014 40.5688 143.778 40.6946 147.016 40.0542C149.037 39.654 151.959 38.4875 153.759 37.3555L154.378 36.9782L153.022 34.6911C152.286 33.4334 151.632 32.3584 151.585 32.3127C151.527 32.2556 151.2 32.3928 150.861 32.61C148.639 33.9936 146.138 34.7941 143.509 34.9314C138.787 35.1943 135.012 33.5363 133.201 30.4032C131.961 28.2649 131.611 24.8343 132.347 21.9985C132.441 21.6211 132.757 20.8436 133.037 20.2833C134.229 17.9164 136.474 16.3383 139.535 15.6865C140.926 15.4007 144.21 15.4007 145.613 15.698C147.027 15.9952 149.13 16.7042 150.919 17.4703C151.761 17.8363 152.474 18.1222 152.496 18.0993C152.52 18.0764 152.661 16.8643 152.812 15.4007L153.093 12.7364L152.836 12.5191C152.005 11.8558 149.119 10.7924 146.839 10.3236C145.647 10.0721 145.063 10.0263 142.983 9.9806C141.253 9.95765 140.236 9.99199 139.524 10.1063V10.1064Z" fill="#FCFCFD"/>
<path fill-rule="evenodd" clip-rule="evenodd" d="M90.915 25.1431V40.1229H94.1291H97.3433V25.1431V10.1636H94.1291H90.915V25.1431Z" fill="#FCFCFD"/>
<path fill-rule="evenodd" clip-rule="evenodd" d="M105.524 25.2004V40.1229H108.68H111.836V33.1476V26.1724H115.751H119.666V23.8283V21.4842H115.751H111.836V18.2253V14.9663H117.505H123.173V12.6221V10.2781H114.349H105.524V25.2006V25.2004Z" fill="#FCFCFD"/>
<path fill-rule="evenodd" clip-rule="evenodd" d="M25.8962 15.6638C21.9574 16.1097 18.6497 18.9341 17.6913 22.6847C17.4226 23.7138 17.4226 25.6119 17.6796 26.6526C18.9069 31.6725 24.2364 34.7827 29.4375 33.5249C35.3632 32.0841 38.3669 26.0008 35.7607 20.7523C34.3697 17.9621 31.5412 16.064 28.1519 15.6523C27.0766 15.5265 27.0533 15.5265 25.8962 15.6638ZM28.7947 18.4538C31.1557 19.0599 33.1075 20.9352 33.7036 23.1649C33.9256 23.9768 33.9257 25.4633 33.7153 26.2409C33.1192 28.4593 31.1791 30.3346 28.8883 30.9177C28.0234 31.135 26.1767 31.135 25.3001 30.9177C23.0444 30.346 21.1393 28.5279 20.4964 26.3552C20.1926 25.3261 20.2977 23.3936 20.7185 22.3988C21.5133 20.5006 23.2547 19.0141 25.3468 18.4652C26.2001 18.2365 27.9299 18.2365 28.7947 18.4538Z" fill="#FCFCFD"/>
</svg>
