<svg width="183" height="47" viewBox="0 0 183 47" fill="none" xmlns="http://www.w3.org/2000/svg">
<g clip-path="url(#clip0_3232_35987)">
<path d="M160 14.41L159.56 13.48H157.45L157.02 14.41H156.26L158.47 9.80005H158.55L160.76 14.41H160ZM157.69 12.91H159.32L158.5 11.13L157.69 12.91Z" fill="#FCFCFD"/>
<path d="M162.1 11.8901C161.9 11.8901 161.69 11.9701 161.69 12.1901C161.69 12.7501 163.2 12.4801 163.2 13.5401C163.2 14.1001 162.76 14.4601 162.06 14.4601C161.74 14.4601 161.37 14.4001 160.92 14.1101C161.04 13.9501 161.25 13.6401 161.25 13.6401C161.49 13.8001 161.79 13.9001 162.03 13.9001C162.36 13.9001 162.51 13.7601 162.51 13.5501C162.51 12.9401 161.03 13.2601 161.03 12.1801C161.03 11.6401 161.46 11.3301 162.08 11.3301C162.47 11.3301 162.8 11.4801 163.01 11.6301L162.9 12.1901C162.6 11.9701 162.33 11.8901 162.1 11.8901Z" fill="#FCFCFD"/>
<path d="M164.98 14.4499C164.23 14.4499 163.97 14.0999 163.97 13.2799V11.9299H163.44L163.58 11.3899H163.96V10.7799L164.62 10.6399V11.3899H165.37V11.9299H164.62V13.2899C164.62 13.8599 164.76 13.9399 165.43 13.8899L165.3 14.4499H164.98Z" fill="#FCFCFD"/>
<path d="M167.25 11.3401C168.1 11.3401 168.57 11.7501 168.67 11.8301V14.4101H168.03V13.8901C167.86 14.1901 167.55 14.4501 167.1 14.4501C166.19 14.4501 165.71 13.7801 165.71 12.9101C165.71 12.0401 166.26 11.3401 167.25 11.3401ZM167.18 13.8701C167.7 13.8701 168.03 13.4101 168.03 12.6501V12.1201C167.96 12.0601 167.73 11.9201 167.28 11.9201C166.68 11.9201 166.38 12.3901 166.38 12.9301C166.38 13.4601 166.61 13.8701 167.18 13.8701Z" fill="#FCFCFD"/>
<path d="M171.56 12.8401C171.56 12.2001 171.39 11.8901 170.91 11.8901C170.42 11.8901 170.12 12.3201 170.12 12.8701V14.4001H169.47V11.3801H170.12V11.8201C170.3 11.5201 170.64 11.3401 171.02 11.3401C171.88 11.3401 172.23 11.8801 172.23 12.8301V14.4101H171.56V12.8401Z" fill="#FCFCFD"/>
<path d="M174.4 11.3401C175.25 11.3401 175.72 11.7501 175.82 11.8301V14.4101H175.18V13.8901C175.01 14.1901 174.7 14.4501 174.25 14.4501C173.34 14.4501 172.86 13.7801 172.86 12.9101C172.85 12.0401 173.4 11.3401 174.4 11.3401ZM174.32 13.8701C174.84 13.8701 175.17 13.4101 175.17 12.6501V12.1201C175.1 12.0601 174.87 11.9201 174.42 11.9201C173.82 11.9201 173.52 12.3901 173.52 12.9301C173.52 13.4601 173.75 13.8701 174.32 13.8701Z" fill="#FCFCFD"/>
<path d="M157.45 21.8599H156.72V17.3799H159.1V17.9599H157.45V19.0899H158.6V19.6799H157.45V21.8599Z" fill="#FCFCFD"/>
<path d="M160 18.2801C159.78 18.2801 159.61 18.1401 159.61 17.9101C159.61 17.6901 159.78 17.5601 160 17.5601C160.22 17.5601 160.4 17.6901 160.4 17.9201C160.4 18.1401 160.22 18.2801 160 18.2801ZM159.67 18.8401H160.33V21.8601H159.67V18.8401Z" fill="#FCFCFD"/>
<path d="M163.25 20.29C163.25 19.65 163.08 19.34 162.6 19.34C162.11 19.34 161.81 19.77 161.81 20.32V21.85H161.16V18.83H161.81V19.27C161.99 18.97 162.33 18.79 162.71 18.79C163.57 18.79 163.92 19.33 163.92 20.28V21.86H163.25V20.29Z" fill="#FCFCFD"/>
<path d="M166.08 18.8C166.93 18.8 167.4 19.2101 167.5 19.2901V21.8701H166.86V21.35C166.69 21.65 166.38 21.91 165.93 21.91C165.02 21.91 164.54 21.2501 164.54 20.3701C164.54 19.4901 165.09 18.8 166.08 18.8ZM166 21.32C166.52 21.32 166.85 20.86 166.85 20.1V19.57C166.78 19.51 166.55 19.3701 166.1 19.3701C165.5 19.3701 165.2 19.84 165.2 20.38C165.21 20.91 165.44 21.32 166 21.32Z" fill="#FCFCFD"/>
<path d="M170.39 20.29C170.39 19.65 170.22 19.34 169.74 19.34C169.25 19.34 168.95 19.77 168.95 20.32V21.85H168.3V18.83H168.95V19.27C169.13 18.97 169.47 18.79 169.85 18.79C170.71 18.79 171.06 19.33 171.06 20.28V21.86H170.39V20.29Z" fill="#FCFCFD"/>
<path d="M171.68 20.35C171.68 19.37 172.35 18.78 173.27 18.78C173.84 18.78 174.25 19.06 174.3 19.1L174.16 19.68C174.16 19.68 173.78 19.36 173.27 19.36C172.73 19.36 172.32 19.71 172.32 20.34C172.32 20.98 172.72 21.35 173.27 21.35C173.74 21.35 174.07 21.07 174.11 21.04L174.41 21.57C174.01 21.82 173.64 21.92 173.27 21.92C172.35 21.91 171.68 21.32 171.68 20.35Z" fill="#FCFCFD"/>
<path d="M175.31 18.2801C175.09 18.2801 174.92 18.1401 174.92 17.9101C174.92 17.6901 175.09 17.5601 175.31 17.5601C175.53 17.5601 175.71 17.6901 175.71 17.9201C175.7 18.1401 175.53 18.2801 175.31 18.2801ZM174.98 18.8401H175.64V21.8601H174.98V18.8401Z" fill="#FCFCFD"/>
<path d="M177.87 18.8C178.72 18.8 179.19 19.2101 179.29 19.2901V21.8701H178.65V21.35C178.48 21.65 178.17 21.91 177.72 21.91C176.81 21.91 176.33 21.2501 176.33 20.3701C176.33 19.4901 176.88 18.8 177.87 18.8ZM177.79 21.32C178.31 21.32 178.64 20.86 178.64 20.1V19.57C178.57 19.51 178.34 19.3701 177.89 19.3701C177.29 19.3701 176.99 19.84 176.99 20.38C177 20.91 177.23 21.32 177.79 21.32Z" fill="#FCFCFD"/>
<path d="M180.09 17.4401L180.74 17.3101V21.8601H180.09V17.4401Z" fill="#FCFCFD"/>
<path d="M158 25.36C157.61 25.36 157.28 25.54 157.28 25.91C157.28 26.81 159.42 26.54 159.42 28.07C159.42 28.83 158.81 29.4 157.89 29.4C157.44 29.4 156.93 29.31 156.39 28.91L156.69 28.36C157.04 28.61 157.47 28.8 157.88 28.8C158.42 28.8 158.71 28.48 158.71 28.07C158.71 27.05 156.55 27.34 156.55 25.93C156.55 25.21 157.14 24.77 157.95 24.77C158.49 24.77 158.92 24.98 159.18 25.18L159.13 25.83C158.75 25.5 158.37 25.36 158 25.36Z" fill="#FCFCFD"/>
<path d="M161.5 28.8C161.92 28.8 162.15 28.62 162.28 28.51L162.61 29C162.22 29.27 161.91 29.36 161.5 29.36C160.5 29.36 159.91 28.75 159.91 27.8C159.91 26.86 160.53 26.24 161.36 26.24C162.12 26.24 162.72 26.75 162.72 27.64C162.72 27.78 162.71 27.94 162.71 27.94H160.57C160.56 28.51 160.98 28.8 161.5 28.8ZM160.6 27.42H162.12C162.08 26.99 161.76 26.77 161.37 26.77C161.02 26.77 160.72 26.99 160.6 27.42Z" fill="#FCFCFD"/>
<path d="M164.02 28V29.31H163.37V26.29H164.02V26.75C164.12 26.43 164.45 26.24 164.79 26.24C164.86 26.24 164.9 26.24 164.96 26.25C164.92 26.46 164.9 26.63 164.85 26.84H164.8C164.12 26.83 164.02 27.37 164.02 28Z" fill="#FCFCFD"/>
<path d="M165.03 26.29H165.77L166.63 28.15L167.48 26.29H168.22L166.66 29.37H166.59L165.03 26.29Z" fill="#FCFCFD"/>
<path d="M168.97 25.73C168.75 25.73 168.58 25.59 168.58 25.36C168.58 25.14 168.75 25.01 168.97 25.01C169.19 25.01 169.37 25.14 169.37 25.37C169.37 25.59 169.19 25.73 168.97 25.73ZM168.64 26.29H169.3V29.31H168.64V26.29Z" fill="#FCFCFD"/>
<path d="M170 27.8C170 26.82 170.67 26.23 171.59 26.23C172.16 26.23 172.57 26.51 172.62 26.55L172.48 27.13C172.48 27.13 172.1 26.81 171.59 26.81C171.05 26.81 170.64 27.16 170.64 27.79C170.64 28.43 171.04 28.8 171.59 28.8C172.06 28.8 172.39 28.52 172.43 28.49L172.73 29.02C172.33 29.27 171.96 29.37 171.59 29.37C170.67 29.36 170 28.77 170 27.8Z" fill="#FCFCFD"/>
<path d="M174.66 28.8C175.08 28.8 175.31 28.62 175.44 28.51L175.77 29C175.38 29.27 175.07 29.36 174.66 29.36C173.66 29.36 173.07 28.75 173.07 27.8C173.07 26.86 173.69 26.24 174.52 26.24C175.28 26.24 175.88 26.75 175.88 27.64C175.88 27.78 175.87 27.94 175.87 27.94H173.73C173.71 28.51 174.13 28.8 174.66 28.8ZM173.75 27.42H175.27C175.23 26.99 174.91 26.77 174.53 26.77C174.17 26.77 173.87 26.99 173.75 27.42Z" fill="#FCFCFD"/>
<path d="M177.44 26.8C177.24 26.8 177.03 26.88 177.03 27.1C177.03 27.66 178.54 27.39 178.54 28.45C178.54 29.01 178.1 29.37 177.4 29.37C177.08 29.37 176.71 29.31 176.26 29.02C176.38 28.86 176.59 28.55 176.59 28.55C176.83 28.71 177.13 28.81 177.37 28.81C177.7 28.81 177.85 28.67 177.85 28.46C177.85 27.85 176.37 28.17 176.37 27.09C176.37 26.55 176.8 26.24 177.42 26.24C177.81 26.24 178.14 26.39 178.35 26.54L178.24 27.1C177.94 26.87 177.67 26.8 177.44 26.8Z" fill="#FCFCFD"/>
<path d="M160 36.7599L159.56 35.8299H157.45L157.02 36.7599H156.26L158.47 32.1499H158.55L160.76 36.7599H160ZM157.69 35.2599H159.32L158.5 33.4799L157.69 35.2599Z" fill="#FCFCFD"/>
<path d="M161.69 35.32C161.69 35.96 161.81 36.26 162.32 36.26C162.82 36.26 163.09 35.83 163.09 35.28V33.75H163.74V36.77H163.09V36.33C162.91 36.63 162.62 36.81 162.2 36.81C161.35 36.81 161.03 36.27 161.03 35.33V33.74H161.7V35.32H161.69Z" fill="#FCFCFD"/>
<path d="M165.74 36.8C164.99 36.8 164.73 36.45 164.73 35.63V34.28H164.2L164.34 33.74H164.72V33.13L165.38 32.99V33.74H166.13V34.28H165.38V35.64C165.38 36.2 165.52 36.29 166.19 36.24L166.06 36.8H165.74Z" fill="#FCFCFD"/>
<path d="M168.84 35.18C168.84 34.54 168.67 34.25 168.19 34.25C167.7 34.25 167.4 34.68 167.4 35.23V36.76H166.75V32.34L167.4 32.21V34.18C167.58 33.88 167.95 33.69 168.33 33.69C169.17 33.69 169.51 34.22 169.51 35.17V36.76H168.84V35.18Z" fill="#FCFCFD"/>
<path d="M171.7 36.8099C170.83 36.8099 170.14 36.2499 170.14 35.2499C170.14 34.2599 170.83 33.6899 171.7 33.6899C172.57 33.6899 173.26 34.2599 173.26 35.2599C173.26 36.2499 172.57 36.8099 171.7 36.8099ZM171.69 34.2699C171.2 34.2699 170.79 34.6299 170.79 35.2599C170.79 35.8999 171.2 36.2399 171.69 36.2399C172.2 36.2399 172.6 35.8899 172.6 35.2599C172.6 34.6299 172.2 34.2699 171.69 34.2699Z" fill="#FCFCFD"/>
<path d="M174.58 35.4499V36.7599H173.93V33.7399H174.58V34.1999C174.68 33.8799 175.01 33.6899 175.35 33.6899C175.42 33.6899 175.46 33.6899 175.52 33.6999C175.48 33.9099 175.46 34.0799 175.41 34.2899H175.36C174.67 34.2799 174.58 34.8199 174.58 35.4499Z" fill="#FCFCFD"/>
<path d="M176.34 33.18C176.12 33.18 175.95 33.04 175.95 32.81C175.95 32.59 176.12 32.46 176.34 32.46C176.57 32.46 176.74 32.59 176.74 32.82C176.74 33.04 176.57 33.18 176.34 33.18ZM176.01 33.74H176.67V36.76H176.01V33.74Z" fill="#FCFCFD"/>
<path d="M178.71 36.8C177.96 36.8 177.7 36.45 177.7 35.63V34.28H177.17L177.31 33.74H177.69V33.13L178.35 32.99V33.74H179.1V34.28H178.35V35.64C178.35 36.2 178.49 36.29 179.16 36.24L179.03 36.8H178.71Z" fill="#FCFCFD"/>
<path d="M180.55 36.2L179.31 33.74H180.05L180.9 35.55L181.76 33.74H182.47L180.38 37.9L179.69 37.78L180.55 36.2Z" fill="#FCFCFD"/>
<path d="M71.0296 36.7899L68.7096 31.8499H57.1396L54.8596 36.7899H49.1396L62.5096 9.43994H63.2796L76.6597 36.7899H71.0296ZM58.7296 27.9299H67.1197L62.9096 18.7699L58.7296 27.9299Z" fill="#FCFCFD"/>
<path d="M86.12 36.7901H80.79V10.1201H95.71V14.2901H86.12V20.1401H92.79V24.3601H86.12V36.7901Z" fill="#FCFCFD"/>
<path d="M108.14 13.99C106.12 13.99 104.36 14.94 104.36 16.79C104.36 21.74 116.79 20.14 116.79 29.18C116.79 33.78 113.18 37.22 107.24 37.22C103.76 37.22 100.23 35.84 97.9902 34.12L100.27 30.25C101.69 31.45 104.53 32.96 107.19 32.96C109.9 32.96 111.53 31.37 111.53 29.22C111.53 23.76 99.0602 25.35 99.0602 16.83C99.0602 12.4 102.71 9.72998 107.7 9.72998C111.57 9.72998 114.19 11.19 115.27 12.05L114.88 16.52C113.26 15.2 110.77 13.99 108.14 13.99Z" fill="#FCFCFD"/>
<path d="M140.65 36.7899L138.33 31.8499H126.76L124.48 36.7899H118.76L132.13 9.43994H132.9L146.27 36.7899H140.65ZM128.36 27.9299H136.75L132.54 18.7699L128.36 27.9299Z" fill="#FCFCFD"/>
<path d="M14.4004 23.19C14.4004 28.1 18.3904 32.09 23.3004 32.09C28.2104 32.09 32.2004 28.1 32.2004 23.19C32.2004 18.28 28.2104 14.29 23.3004 14.29C18.3904 14.29 14.4004 18.28 14.4004 23.19ZM29.5904 23.19C29.5904 26.66 26.7704 29.48 23.3004 29.48C19.8304 29.48 17.0104 26.66 17.0104 23.19C17.0104 19.72 19.8304 16.9 23.3004 16.9C26.7704 16.89 29.5904 19.72 29.5904 23.19Z" fill="#FCFCFD"/>
<path d="M33.35 33.13L33.22 33.26C30.67 35.78 27.17 37.34 23.31 37.34C17.28 37.34 12.14 33.55 10.13 28.23C10.11 28.18 10.09 28.13 10.07 28.07C10.05 28.01 10.03 27.94 10.01 27.88C8.32 22.98 9.39 17.33 13.26 13.38L13.25 13.37C14.66 11.94 16.36 10.8 18.27 10.07C23.26 8.17003 29.13 9.21003 33.19 13.19L34.17 14.16L38.61 9.64003C38.62 9.65003 38.62 9.65003 38.63 9.66003L40.73 7.53004C40.47 7.25003 40.21 6.98003 39.93 6.71003C34.79 1.69003 27.94 -0.509965 21.3 0.100035C15.97 0.590035 10.77 2.91004 6.72 7.03004C2.65 11.18 0.44 16.45 0.06 21.83H0.05L0.01 22.5L0 23.32V23.93L0.03 24.56H0.04C0.3 30.27 2.64 35.9 7.04 40.22C12.17 45.25 19.02 47.46 25.65 46.84C30.98 46.35 36.18 44.04 40.22 39.92L35.33 35.07L33.35 33.13ZM21.58 3.07003C27.04 2.56003 32.43 4.26003 36.6 7.74003L34.08 10.31C30.13 7.02003 25.03 5.82003 20.25 6.70003L19.42 3.40003C20.13 3.25003 20.85 3.14003 21.58 3.07003ZM8.85 9.12003C11.08 6.85003 13.79 5.15003 16.76 4.12003L17.53 7.18003L17.59 7.43003C15.19 8.30003 13.03 9.67003 11.27 11.46C8.41 14.37 6.83 18.06 6.51 21.83H3.06C3.44 17.05 5.45 12.59 8.85 9.12003ZM16.27 42.65C13.63 41.66 11.19 40.12 9.12 38.09C5.43 34.47 3.29 29.69 3.02 24.56H6.51C6.81 28.49 8.47 32.33 11.5 35.29C13.2 36.96 15.16 38.19 17.25 38.99L16.27 42.65ZM25.37 43.87C23.18 44.07 21.01 43.92 18.92 43.45L19.9 39.76C20.44 39.87 20.98 39.96 21.53 40.01C21.61 40.02 21.69 40.02 21.77 40.03C21.95 40.05 22.13 40.06 22.31 40.07C22.42 40.08 22.53 40.08 22.65 40.09C22.79 40.1 22.94 40.1 23.09 40.1C23.17 40.1 23.25 40.11 23.33 40.11C23.38 40.11 23.44 40.11 23.49 40.11C23.6 40.11 23.7 40.11 23.81 40.1C26.78 40.02 29.55 39.17 31.94 37.74C31.94 37.74 31.94 37.74 31.95 37.74C32.14 37.62 32.33 37.5 32.52 37.38C32.55 37.36 32.58 37.34 32.61 37.32C32.79 37.2 32.97 37.08 33.14 36.95C33.16 36.94 33.18 36.92 33.2 36.91L35.96 39.72C32.9 42.06 29.23 43.51 25.37 43.87Z" fill="#FCFCFD"/>
</g>
<defs>
<clipPath id="clip0_3232_35987">
<rect width="182.47" height="46.95" fill="white"/>
</clipPath>
</defs>
</svg>
