<svg width="92" height="50" viewBox="0 0 92 50" fill="none" xmlns="http://www.w3.org/2000/svg">
<g clip-path="url(#clip0_3232_36030)">
<path fill-rule="evenodd" clip-rule="evenodd" d="M21.0455 7.12096L19.1918 5.26726V5.2549L21.5356 6.63086L22.0837 6.0828L20.7533 3.72355H20.7657L22.6039 5.56256L23.1365 5.02917L20.9388 2.83149L19.9919 3.77843L21.1336 5.61357L21.1275 5.61976L19.28 4.49038L18.3145 5.45588L20.5129 7.65356L21.0455 7.12096Z" fill="#FCFCFD"/>
<path d="M26.0867 3.71044L25.8509 3.15542L24.4641 3.74445L24.2067 3.13764L25.483 2.59653L25.2472 2.0415L23.971 2.58338L23.7205 1.9928L25.1073 1.40376L24.8723 0.849509L22.6924 1.77404L23.9068 4.63574L26.0867 3.71044Z" fill="#FCFCFD"/>
<path d="M27.5198 3.4004L27.2454 0.793017L27.2531 0.783741L28.2093 3.32774L28.98 3.24734L29.4307 0.576572L29.44 0.584302L29.7121 3.17004L30.4611 3.09119L30.1365 -9.82285e-05L28.8046 0.139818L28.5371 2.28494L28.5278 2.28571L27.8027 0.244948L26.4453 0.387956L26.7708 3.47925L27.5198 3.4004Z" fill="#FCFCFD"/>
<path fill-rule="evenodd" clip-rule="evenodd" d="M32.7375 3.51346C32.7668 3.52119 33.8715 3.85823 34.0902 2.98163C34.1977 2.55106 33.9356 2.2148 33.5476 2.06097L33.5499 2.05246C33.9039 2.07411 34.2734 1.92646 34.3662 1.55464C34.4984 1.02435 34.0856 0.650984 33.519 0.504884L32.0734 0.144659L31.3213 3.16019L32.7375 3.51346ZM32.303 2.78374L32.4654 2.13208L33.0126 2.26891C33.1974 2.32843 33.2747 2.51627 33.233 2.68324C33.1858 2.87109 33.0003 2.95766 32.7916 2.90587L32.303 2.78374ZM32.763 0.937773L33.2183 1.05141C33.4146 1.10011 33.5306 1.2578 33.4881 1.42941C33.4308 1.659 33.2623 1.71002 33.0374 1.65359L32.6099 1.55155L32.763 0.937773Z" fill="#FCFCFD"/>
<path d="M36.5474 5.28052L36.8759 4.77496L35.6121 3.95479L35.9707 3.40209L37.1333 4.15655L37.4619 3.65177L36.2985 2.89654L36.6487 2.35852L37.9118 3.17869L38.2403 2.67391L36.2544 1.38374L34.5615 3.99113L36.5474 5.28052Z" fill="#FCFCFD"/>
<path fill-rule="evenodd" clip-rule="evenodd" d="M39.0359 5.26647L39.5909 4.81658L39.8027 5.07786C39.9758 5.29198 40.1142 5.52389 39.8661 5.7241C39.6187 5.92508 39.4208 5.74188 39.2469 5.52775L39.0359 5.26647ZM38.5674 5.64602L38.7707 5.89648C39.0474 6.23815 38.9377 6.34869 38.6679 6.61152C38.511 6.76612 38.3533 6.92768 38.2157 7.09929L38.8039 7.82593C38.9516 7.6118 39.1124 7.42009 39.2994 7.24075C39.6388 6.89444 39.7919 6.6378 39.4548 6.20182L39.468 6.19023C39.7818 6.49634 40.1977 6.61925 40.5587 6.32628C41.0712 5.91194 40.7535 5.2943 40.4226 4.88615L39.5174 3.76837L37.1025 5.7241L37.6436 6.39353L38.5674 5.64602Z" fill="#FCFCFD"/>
<path d="M26.4598 7.78892C26.2658 7.67297 26.0339 7.63432 25.8012 7.63432C25.2586 7.86623 24.7553 8.06025 24.29 8.37023C22.9728 9.41612 22.4695 11.1206 22.2368 12.7092C22.1595 13.5232 22.5082 14.2591 22.6628 14.995C22.8568 16.2349 23.5154 17.2035 24.29 18.1721L24.5226 18.2494C24.5613 18.1721 24.484 18.0561 24.484 17.9394C23.7481 16.5062 22.8568 14.995 23.0895 13.1745C23.3222 12.7872 23.8254 12.4386 23.7094 11.9346H23.6321C23.3995 12.3219 23.2054 12.7872 22.8568 12.9805C23.2054 12.4386 23.2441 11.7019 23.3608 11.0433C23.4768 10.8501 23.6708 11.1206 23.7481 11.1593L23.864 11.0047C23.9413 10.966 24.0581 10.9274 24.0967 11.0047C24.174 11.5079 24.174 12.0119 24.0581 12.4386C24.2127 12.3219 24.29 12.1279 24.368 11.9733C24.5613 11.5473 24.3294 11.1206 24.368 10.6947C24.6394 10.462 24.7167 10.1134 24.9099 9.84206C25.6072 9.5715 25.1813 10.5787 25.5299 10.772C25.6853 10.5401 25.7239 10.2688 25.8785 10.0361C25.6466 9.84206 25.4526 9.53208 25.2199 9.37747C24.794 9.06749 24.678 9.76475 24.3294 9.8034C23.8254 9.92013 23.864 10.462 23.5927 10.7333C23.3995 10.5787 23.4381 10.3074 23.4768 10.0747C23.5154 9.7261 23.9027 9.68745 24.1354 9.49343C24.5226 9.33882 24.6 8.91212 24.7553 8.60291C24.9099 8.56349 25.104 8.60291 25.1813 8.75751C25.7626 8.68021 25.6072 9.37747 26.0339 9.5715C26.5371 9.61015 26.6925 10.0361 27.1184 10.1915C27.4284 9.8034 26.7698 9.6488 26.7312 9.26152C26.4212 8.79616 26.8858 8.17621 26.4598 7.78892ZM26.2271 10.1134C26.0339 10.2301 25.9179 10.5401 25.8012 10.772C25.8399 10.8501 25.9179 10.8106 25.9952 10.8106C26.3052 10.6947 26.2658 10.3461 26.2271 10.1134ZM27.0411 10.4234C26.3052 10.2301 26.4985 11.1593 26.1885 11.5079C26.0725 11.586 25.9566 11.7019 25.8399 11.586C25.7626 11.4306 25.8399 11.276 25.8012 11.1987C25.7626 11.392 25.5685 11.392 25.4526 11.47C25.4912 11.6246 25.6853 11.5473 25.7626 11.6246C26.1112 12.3219 25.6072 13.0192 25.2586 13.6005L25.2199 14.1045C25.4526 14.995 25.9952 15.7317 26.2658 16.5449C26.2271 15.809 25.7239 15.2663 25.7239 14.5304C25.5685 13.7551 26.3439 13.6005 26.5371 13.0192C26.6152 12.7478 26.4598 12.2832 26.8471 12.2446C26.9252 12.0506 26.8858 11.7406 26.8858 11.586C26.6925 11.8187 26.2271 11.9733 26.4212 12.3992C26.3052 12.8645 26.2271 13.6391 25.6072 13.7164C25.4526 13.6778 25.4912 13.5232 25.4912 13.4072C25.8399 13.1745 26.0725 12.6705 25.9952 12.2059C26.0339 11.6246 26.7698 11.3533 26.6925 10.6947C26.7312 10.5007 26.9638 10.5007 27.0411 10.4234ZM24.988 11.9346C25.0267 11.7019 25.0653 11.392 24.8326 11.276C24.9486 11.7792 24.6394 12.1279 24.5613 12.5159C24.794 12.4386 24.9486 12.1673 24.988 11.9346ZM25.4139 12.3605C25.4526 12.3219 25.4912 12.1673 25.3753 12.1673C25.1813 12.4765 25.0267 12.7872 24.7553 13.0192C24.5613 13.2905 24.6394 13.7164 24.5226 14.0264C24.6 14.1045 24.5652 14.2227 24.678 14.3356C24.8326 14.491 24.9486 14.7631 25.0653 14.995C25.1426 15.6922 25.6466 16.1962 25.7239 16.8935C25.7626 17.1648 25.6853 17.4748 25.8785 17.7075C25.9566 17.4748 26.0339 17.1648 25.9566 16.8935C25.8785 16.6222 25.8012 16.3122 25.6853 16.0409C25.6072 15.5763 25.4178 15.0012 25.0854 14.5969C24.8249 14.2784 24.9099 14.065 24.8326 13.7164C24.9486 13.2518 25.2586 12.8259 25.4139 12.3605ZM23.9808 14.569C23.8254 14.1045 24.0967 13.4451 23.6321 13.1359C23.4381 13.3678 23.4768 13.7945 23.4768 14.1045C23.4768 15.2663 24.0967 16.1962 24.484 17.1648C24.6394 17.3975 24.678 17.7848 24.9099 17.9781C24.964 17.9185 25.104 17.3581 24.8326 17.0875C24.5226 16.2349 23.9808 15.499 23.9808 14.569ZM24.4067 14.1431C24.3804 13.8996 24.4453 13.7164 24.2513 13.6391C24.1354 14.1045 24.1439 14.6672 24.29 15.1504C24.4546 15.6907 24.9099 16.7381 25.298 17.5135C25.4139 17.8234 25.3753 18.2494 25.3366 18.5594C25.4139 18.4048 25.5299 18.2494 25.5685 18.0948C25.4526 17.4748 25.4139 16.7381 25.104 16.1576C24.8713 15.4603 24.5026 15.0251 24.4067 14.1431ZM27.6611 14.1431C27.5444 13.9877 27.4284 13.7945 27.2738 13.6778C26.9252 14.2591 26.6925 14.9563 26.9252 15.6149C27.2738 15.5376 27.1184 15.1109 27.2738 14.9177C27.3125 14.569 27.7384 14.4917 27.6611 14.1431ZM26.6539 15.6149C26.1498 15.0723 26.4985 14.3364 26.6539 13.7945L26.1112 14.2204C25.9566 14.801 26.1498 15.4217 26.5758 15.809C26.6925 15.809 26.6539 15.6922 26.6539 15.6149ZM28.591 15.8476C28.4743 15.3823 28.5516 14.7237 28.0097 14.6077C27.8157 14.8404 27.5328 14.8535 27.6101 15.1635C27.699 15.2439 27.777 15.7317 28.0484 15.6149C28.2811 15.6536 28.3197 15.8863 28.397 16.0409C28.5137 16.1189 28.591 15.9636 28.591 15.8476ZM27.8543 17.7075C27.4671 17.7461 27.5057 17.3194 27.3511 17.0875C27.2352 17.3975 27.3125 17.7075 27.3511 18.0167C27.4671 18.0561 27.5444 17.9007 27.6997 17.9007C27.9711 17.9781 27.777 18.3267 27.8157 18.4821C27.893 18.4434 27.9324 18.3653 27.9711 18.288C28.5137 18.0561 28.2424 18.792 28.5137 18.9853C28.7456 18.9466 28.6297 18.6367 28.8229 18.5207C28.901 18.4434 29.0556 18.4821 29.0556 18.3653C29.017 18.1334 28.8616 17.8234 28.591 18.0167C28.2811 18.0167 28.203 17.6294 27.8543 17.7075ZM27.583 19.2953C27.4671 19.102 27.3511 18.792 27.0798 18.6761C26.9638 18.792 26.8085 18.8693 26.7698 19.0634C26.8858 19.1407 26.8858 19.3347 27.0798 19.3733C27.2352 19.3733 27.5057 19.5279 27.583 19.2953ZM28.8399 17.2792C28.8894 17.205 28.6807 16.5217 28.7611 16.4413C28.7959 16.5078 28.816 16.5341 28.8183 16.5325C28.8229 16.5302 28.7812 16.4413 28.7611 16.4413C28.6366 16.2024 28.3344 16.6639 28.0205 16.4676C27.9487 16.3246 27.7423 16.4498 27.6062 16.4761C27.566 16.5982 27.6108 16.7057 27.6657 16.8116L27.7052 16.8858L27.9224 16.7629C28.0739 16.6268 28.1512 16.7629 28.1512 16.8858C28.1512 17.1316 28.0731 17.1494 28.2254 17.304C28.247 17.2676 28.5106 17.0404 28.5447 16.96C28.5447 16.96 28.7379 17.4331 28.8399 17.2792ZM36.6103 9.92013L35.913 8.91212C35.3317 8.17621 34.6731 7.51682 33.8599 7.20762C33.5608 7.09321 33.1758 6.85435 32.8132 7.20762C32.1183 7.88555 32.6586 8.64156 32.426 9.33882C32.1554 9.8034 31.6901 10.1915 31.1087 10.152C30.8382 9.99743 30.6442 9.7261 30.2955 9.8034C30.0629 10.0747 29.6369 9.76475 29.4815 10.152C29.3269 10.2301 29.1716 10.1915 29.0556 10.0747C28.8616 9.88148 28.7456 10.1915 28.6297 10.2688C28.3197 10.5401 27.9324 10.0747 27.6224 10.3847C27.0411 11.082 27.3511 12.2446 27.5444 13.0965C27.7384 13.7945 28.397 14.2204 28.9397 14.6464C29.0556 14.8404 28.7843 14.9563 28.8616 15.2277C28.9783 15.6922 29.1329 16.2736 29.7142 16.3122C29.5983 15.6922 29.3656 14.801 29.9469 14.3364C30.0629 14.2977 30.1402 14.2591 30.2182 14.375C30.2569 14.7237 29.9083 14.995 29.9856 15.3823C30.0629 15.809 29.9856 16.4289 30.5669 16.4676C30.6828 16.3122 30.6442 16.1189 30.7988 16.0022C30.9541 15.9636 31.0314 16.0409 31.1087 16.1576C31.2641 16.3122 31.3028 16.0795 31.3801 15.9636C31.4581 15.9249 31.6128 15.8863 31.6901 16.0022C31.8068 16.1189 32.0387 16.1189 32.1168 15.9249C31.9614 15.189 31.7674 14.4523 30.9541 14.2204C30.7215 14.1431 30.8768 13.8331 30.9928 13.7945C30.7215 13.4845 30.5669 14.0264 30.2955 13.7945C30.1788 13.5232 30.6055 13.5232 30.6442 13.2905C30.9155 13.1745 31.186 13.5232 31.3414 13.1359C31.4581 13.0965 31.4968 13.2132 31.4968 13.2905C31.4581 13.5232 31.3801 13.7164 31.1482 13.8331C31.3028 14.0264 31.5741 13.9877 31.6901 14.2204C32.0773 14.3364 32.1554 14.8404 32.426 15.1109C32.3873 15.2277 32.426 15.3823 32.5427 15.3823L32.7359 14.9177C32.9686 14.6464 32.93 14.2591 33.24 14.1045C33.3173 14.065 33.3559 14.2204 33.3946 14.2591L32.9686 15.305C32.9686 15.3823 32.8913 15.5376 33.0073 15.5763C33.0846 15.305 33.3559 15.0723 33.2786 14.7631C33.4332 14.569 33.6272 14.3364 33.5886 14.0264C33.2013 13.9104 32.93 13.6005 32.7746 13.2132C32.6973 12.9419 32.7359 12.6319 32.5813 12.3992C32.31 12.4386 32.0387 12.3605 31.8454 12.2059C31.6514 11.9346 31.4581 11.5079 31.0314 11.47C30.9928 11.4306 30.9541 11.3147 31.0701 11.276C31.4581 11.1987 31.9227 11.1593 32.2714 10.8887C32.8913 10.3461 32.9686 9.49343 32.8913 8.68021C32.8527 8.17621 33.4332 8.48619 33.5499 8.13756C33.7045 8.06025 33.8213 8.06025 33.9372 8.21486C34.1699 8.95154 35.2931 8.56349 35.6031 9.30017C35.6417 9.53208 35.2931 9.41612 35.2158 9.45477C35.2931 9.7261 35.6417 9.88148 35.6031 10.2301C35.5258 10.3461 35.4098 10.462 35.2544 10.4234C34.8285 10.1134 34.7118 9.61015 34.4799 9.18345H34.3631C34.2085 9.68745 34.7512 9.95878 34.9445 10.3847L34.8672 10.5401C34.7118 10.6174 34.5572 10.5007 34.4412 10.4234C34.2085 9.95878 33.6659 9.5715 33.8599 8.99019C33.8213 8.87347 33.7432 8.79616 33.6272 8.79616C33.4332 8.79616 33.3559 8.95154 33.3946 9.14479C33.7826 9.7261 33.8986 10.462 34.5572 10.8106C34.7512 10.966 34.6731 11.276 34.5958 11.4306C34.5185 11.8565 34.7512 12.2059 35.0218 12.4386C35.0998 12.4386 35.2158 12.4765 35.1771 12.3219C34.9445 11.9346 34.8285 11.5473 34.8672 11.082C34.8672 10.8887 35.0998 10.6947 35.2158 10.772C35.1385 11.2373 35.2544 11.6633 35.3704 12.0892C35.3704 12.1673 35.4871 12.2446 35.5644 12.1673C35.4871 11.8187 35.3317 11.4306 35.4871 11.082C35.6031 11.0047 35.719 10.8501 35.8744 10.8887C35.719 11.1987 35.719 11.6246 35.719 12.0119C35.7584 12.2446 35.9517 12.4386 36.1844 12.4765C36.6103 12.0119 35.913 11.5079 36.1844 10.8887C36.3003 10.772 36.223 10.5401 36.4557 10.462C36.5717 10.462 36.6103 10.5787 36.6103 10.6947C36.3784 11.0433 36.3784 11.6633 36.6103 12.0119C36.843 12.1673 36.8816 12.7092 37.1916 12.4765C37.3462 11.586 37.0362 10.656 36.6103 9.92013ZM34.1312 11.1593V11.0047L33.3946 10.2688C33.4332 10.7333 33.8213 11.0047 34.1312 11.1593ZM33.6272 11.47L33.2013 11.082C33.2013 11.0047 33.0846 10.8106 33.0073 10.9274C32.8913 11.1987 33.24 11.3533 33.3946 11.5473C33.5113 11.6246 33.5886 11.5473 33.6272 11.47ZM33.1626 11.8565C32.8527 11.7406 32.8132 11.392 32.5427 11.276C32.504 11.392 32.5813 11.5473 32.6973 11.6246C32.8527 11.7792 33.0073 12.0892 33.2013 12.0892C33.2786 12.0119 33.24 11.896 33.1626 11.8565ZM32.6586 12.1279C32.426 11.9346 32.2714 11.5079 31.9614 11.6246C32 11.9733 32.3873 12.0119 32.5427 12.2059C32.62 12.2446 32.6973 12.1673 32.6586 12.1279ZM34.8285 12.9419C34.5185 12.6319 34.2472 12.1673 34.1312 11.7019C34.0145 11.8565 34.0532 12.1673 34.1699 12.3605C34.2085 12.7092 34.5572 12.7872 34.8285 12.9419ZM34.0145 12.9805L33.8213 12.6705C33.7826 12.8259 33.8986 13.0192 34.0145 12.9805ZM35.0612 15.5376C35.4485 14.6464 35.4871 13.6391 35.6804 12.6705L35.4485 12.9419C34.8672 13.6778 34.9445 14.7237 34.6345 15.6149C34.5185 16.3122 34.0145 16.9322 33.5499 17.5135C33.5113 17.6294 33.3559 17.9007 33.5886 17.9394C34.1699 17.2035 34.5185 16.3509 35.0612 15.5376ZM33.8213 13.5232C33.5499 13.2905 33.4332 12.9419 33.24 12.7092L33.2013 12.8645C33.2013 13.1745 33.3559 13.3678 33.5886 13.5232C33.6659 13.5618 33.7826 13.6005 33.8213 13.5232ZM37.1916 13.2905C37.1143 13.0192 36.843 12.9032 36.649 12.8259C36.649 13.7164 36.4557 14.4917 36.1457 15.2663C35.8357 16.3895 35.0998 17.4748 34.4412 18.4821L34.4018 18.6761C34.7898 18.5594 34.9445 18.2107 35.2931 18.0167C36.1844 16.5835 37.0757 15.0336 37.1916 13.2905ZM36.1844 13.9104C36.2617 13.6778 36.339 13.2518 36.1071 13.1359C35.7584 13.6391 35.6417 14.2977 35.6031 14.9563L35.2931 15.7695C34.9058 16.1576 34.8285 16.7003 34.4799 17.1262C34.3631 17.3194 34.1699 17.3581 34.1312 17.5521C34.0532 17.7848 33.8213 18.0167 33.8599 18.2107C33.9759 18.1721 33.8986 18.288 33.9759 18.3267C34.2085 18.288 34.2085 18.0167 34.4018 17.9781C35.0998 16.6608 35.9903 15.4217 36.1844 13.9104ZM34.6345 13.5232C34.2858 13.6778 34.2472 14.1818 34.0918 14.5304C34.0532 15.0336 34.2085 15.6922 33.8213 16.0409V14.6077L33.7432 14.569C33.5113 14.879 33.5499 15.305 33.24 15.6149C32.93 16.0795 33.0846 16.7776 33.3559 17.2421C33.6272 17.0875 33.8213 16.7381 33.8986 16.4676C34.2472 16.1189 34.2858 15.6922 34.4018 15.2663C34.6345 14.7631 34.6731 14.1431 34.6345 13.5232ZM32.62 16.9322C32.5427 16.7381 32.3487 16.2349 32.0773 16.6222C31.5741 16.8162 30.9928 16.8549 30.4888 17.0489C30.4888 17.3581 30.6442 17.5908 30.8768 17.7848C30.8768 17.9007 30.9155 17.9394 31.0314 17.9394C31.3028 17.9394 31.2255 17.5908 31.3028 17.4362C31.5741 17.1262 31.5741 17.7848 31.9227 17.6681C32 17.4362 31.8454 17.0875 32.1554 16.9708C32.31 17.0489 32.3487 17.2808 32.4646 17.3581C32.62 17.2808 32.5813 17.0875 32.62 16.9322ZM33.1626 18.2107C33.0459 18.0561 33.0459 17.8234 32.8527 17.8234C32.62 18.2107 32.1554 17.7848 31.9614 18.1721C31.7287 18.4434 31.1087 18.4434 31.186 18.8307H31.9614C32.1168 18.908 32.31 18.9466 32.3873 18.7534C32.5427 18.5207 32.6973 18.8307 32.8913 18.7534C32.93 18.5594 33.0846 18.4048 33.1626 18.2107ZM32.6586 19.4506C32.31 19.5666 32.1168 19.218 31.8068 19.1793C31.7287 19.2566 31.7287 19.3733 31.7287 19.4506C31.6901 19.6447 30.8529 19.9353 30.9302 20.0907C31.3561 19.974 32.5427 19.8379 32.8132 19.5279L32.6586 19.4506ZM28.2594 7.25863C28.2594 7.25863 28.9018 7.15273 29.017 7.43952C29.5318 8.72814 27.8543 8.83482 27.893 9.84206C28.203 9.88148 28.6297 9.99743 28.8229 9.6488L29.3656 9.84206C29.6369 9.8034 29.6756 9.30017 30.0242 9.49343C30.1788 9.37747 30.3728 9.33882 30.5282 9.41612C30.7215 9.33882 30.6828 9.06749 30.6055 8.91212C30.3342 9.06749 29.9469 9.10614 29.5983 9.18345C29.5202 9.14479 29.3269 8.99019 29.4429 8.87347C29.8696 9.02884 29.8696 8.37023 30.3342 8.60291C30.5669 8.48619 30.6442 8.17621 30.6055 7.90488C30.5367 7.24781 30.4161 6.69356 29.6524 6.52891C29.5875 6.51499 29.5287 6.5119 29.4228 6.56756C29.4228 6.58379 29.3981 6.63945 29.4769 6.66032C29.5797 6.68815 29.5998 6.80642 29.5125 6.86981C29.3602 6.98112 29.1035 6.90228 29.0317 6.81956C28.9945 6.77705 28.942 6.74922 28.8361 6.75154C28.6498 6.77473 28.3298 6.84121 28.2594 7.25863ZM26.0509 19.6617C26.0208 19.5434 26.1274 19.3641 26.534 18.9057C27.0218 18.3553 27.0782 17.3797 27.1702 16.827C27.2831 16.1483 27.7082 15.6776 27.7082 15.6776C27.7082 15.6776 26.9863 15.9079 26.6438 16.9353C26.3864 17.7067 26.1584 19.2187 25.4881 19.279C25.4348 19.2837 25.3946 19.2937 25.3645 19.3084C24.9749 19.2126 24.6734 19.0804 24.4013 18.7913C24.4013 18.7913 24.1848 18.5648 24.1122 18.5192C22.7501 16.9639 21.8496 14.8473 21.7715 12.6682C22.1209 10.4589 23.0176 8.02933 25.3266 7.28646C25.802 7.19989 26.238 7.01514 26.7126 7.25168C27.2808 7.65829 27.1996 8.52715 27.2344 9.13397C27.2506 9.16257 27.3844 9.25379 27.3844 9.25379C27.8412 8.87269 28.3282 8.45681 28.6676 7.89483C28.6591 7.7696 28.4983 7.63123 28.3537 7.5949C28.2385 7.5949 28.1164 7.65365 27.9981 7.6637C27.8582 7.67452 27.7384 7.62427 27.7384 7.40396C27.6974 7.03523 28.0646 6.55674 28.2092 6.52272C28.8786 6.43847 29.3177 5.84092 30.0412 6.24289C30.4347 6.40059 30.7918 6.67733 30.9518 7.07775C31.2255 7.8585 31.1018 8.68253 31.186 9.48724C31.2185 9.61479 31.309 9.64803 31.4581 9.64803C31.9962 9.48492 32.0194 9.0242 31.99 8.4885C31.9637 8.01233 31.8702 7.37536 32.2853 7.02286C32.7081 6.67655 33.1511 6.33797 33.9171 6.63095C35.0589 7.0677 35.9053 8.15224 36.6033 9.0443C37.1483 9.82273 37.5387 10.6444 37.7343 11.5798C37.8896 13.3314 37.5008 14.8899 36.8399 16.3284C36.3343 17.4949 35.6695 18.4712 34.6546 19.2126C34.4173 19.3316 34.1351 19.3772 33.8769 19.2914C33.8769 19.2914 33.5677 18.9892 33.4309 18.9559C33.4317 19.0456 33.7563 19.3679 33.778 19.4336C33.8707 19.572 33.9388 19.7235 33.8955 19.8967L33.8066 19.9856C33.6868 20.0876 33.6025 20.0482 33.526 20.0428C33.4579 20.0374 33.359 20.0374 33.2067 20.0536C32.2636 20.151 32.099 20.1842 31.5022 20.3033C31.1172 20.3412 30.6527 20.4185 30.2677 20.5344C30.0551 20.536 30.0265 20.3002 30.1023 20.1734C30.127 19.9261 30.2979 19.8217 30.4548 19.7313L30.5723 19.6625C30.6851 19.5906 30.7733 19.5086 30.7988 19.3687C30.8366 18.6537 30.4617 18.1659 30.2236 17.5367C30.2236 17.5367 29.8232 16.3006 29.2125 16.5944C29.1391 16.7899 29.2829 17.3063 29.2829 17.3063C29.2527 17.9479 29.3903 18.4875 29.6369 19.0943C29.6369 19.1669 29.6825 19.579 29.5944 19.6671C29.3239 19.8047 29.1669 19.8232 28.9211 19.8673C28.8338 19.8797 28.7294 19.8859 28.1551 19.9469C27.0288 20.1997 26.0347 19.9933 26.0509 19.6617ZM30.7601 11.9733C30.5669 12.3605 30.0629 11.9733 29.7915 12.2832C29.5983 12.3219 29.4815 12.2446 29.4042 12.1279V11.9733C29.6369 11.9733 29.8696 11.9346 30.0242 11.7792C30.1788 11.7406 30.3728 11.9733 30.5669 11.7792C30.6828 11.7019 30.6442 11.5079 30.7988 11.4306C31.0314 11.5473 30.8382 11.8187 30.7601 11.9733ZM32.0773 13.7551C32.0387 14.065 32.5813 13.9877 32.426 14.2977C32.1941 14.4137 32.0387 14.1818 31.9227 14.0264C31.8068 13.7945 31.7287 13.4072 31.8068 13.2132C32.2327 13.1745 31.9227 13.5618 32.0773 13.7551ZM32.9686 13.7945C32.9686 13.8718 33.0846 14.0264 32.93 14.065C32.7359 14.1431 32.504 14.0264 32.3487 13.8718C32.1168 13.5618 32 13.0965 32.1941 12.6705C32.2714 12.5546 32.3873 12.6705 32.426 12.7478C32.5813 13.0192 32.3487 13.4072 32.62 13.6391L32.9686 13.7945ZM31.2641 12.7478C31.186 12.8645 31.1087 13.0578 30.9155 13.0192C30.2569 12.8259 30.3342 13.7945 29.6756 13.6778C29.4429 13.6005 29.0556 13.7945 28.9783 13.4072C29.0556 13.2132 29.4042 13.3291 29.5596 13.2132C29.6756 13.2518 29.8302 13.2905 29.9469 13.2905C30.1402 13.1359 29.8696 12.9419 30.0629 12.8259C30.2955 12.9419 30.4888 12.7092 30.6442 12.5932C30.8768 12.6705 31.1087 12.6319 31.2255 12.3992C31.3414 12.3992 31.3028 12.6319 31.2641 12.7478Z" fill="#FCFCFD"/>
<path d="M1.54834 49.0096C1.53968 49.3068 1.53968 50.0084 2.45663 49.9999C2.96907 49.9999 3.42105 49.789 3.42105 49.1346C3.42105 48.1486 2.02622 48.2476 2.02622 47.5631C2.02622 47.2272 2.26725 47.1068 2.5041 47.1068C2.87862 47.1068 2.98623 47.3306 2.98198 47.6708H3.39523C3.42105 47.0379 3.10257 46.7623 2.53425 46.7623C2.01331 46.7623 1.62155 47.0549 1.62155 47.6062C1.62155 48.5404 3.01638 48.463 3.01638 49.1517C3.01638 49.522 2.77527 49.6555 2.46104 49.6555C2.20695 49.6555 1.94011 49.522 1.94011 49.1001V49.0096H1.54834Z" fill="#FCFCFD"/>
<path d="M5.62353 49.9353V49.5909H4.39226V48.5147H5.51167V48.1701H4.39226V47.1715H5.59771V46.8271H3.99609V49.9353H5.62353Z" fill="#FCFCFD"/>
<path d="M7.89167 47.6837C7.93032 47.0811 7.69378 46.7624 7.07792 46.7624C6.46654 46.7624 6.0791 47.0121 6.0791 47.8904V48.7687C6.0791 49.9741 6.67332 50 7.06068 50C7.26305 50 7.9566 50 7.93882 49.0183H7.5299C7.52603 49.6253 7.1597 49.6685 7.03926 49.6685C6.73354 49.6685 6.48385 49.578 6.48385 48.816V47.9851C6.48385 47.4512 6.56131 47.3737 6.57422 47.3393C6.5872 47.2963 6.7163 47.0981 7.04352 47.0981C7.1253 47.0981 7.31036 47.1327 7.3923 47.2316C7.47424 47.3307 7.48738 47.5072 7.48274 47.6837H7.89167Z" fill="#FCFCFD"/>
<path d="M8.45898 48.7988C8.45898 49.6598 8.77747 50 9.43608 50C10.0947 50 10.4139 49.6598 10.4139 48.7988V46.8271H10.0174V48.816C10.0174 49.4961 9.81099 49.6685 9.43608 49.6685C9.06194 49.6685 8.85477 49.4961 8.85477 48.816V46.8271H8.45898V48.7988Z" fill="#FCFCFD"/>
<path fill-rule="evenodd" clip-rule="evenodd" d="M11.4534 47.1715H12.0517C12.3578 47.1715 12.4691 47.4211 12.4691 47.6451C12.4691 47.9163 12.3315 48.1616 12.0479 48.1616H11.4534V47.1715ZM11.918 48.506C12.0517 48.506 12.3578 48.5232 12.3872 48.902C12.422 49.3153 12.3965 49.7201 12.5078 49.9353H12.9214C12.8611 49.7416 12.8178 49.2551 12.8139 49.1216C12.7923 48.4973 12.6632 48.3768 12.306 48.3209V48.3121C12.6717 48.2477 12.8742 47.9679 12.8742 47.602C12.8742 47.2144 12.6802 46.8271 12.129 46.8271H11.0576V49.9353H11.4534V48.506H11.918Z" fill="#FCFCFD"/>
<path d="M13.4746 49.9353H13.8707V46.8271H13.4746V49.9353Z" fill="#FCFCFD"/>
<path d="M14.2949 46.8271V47.1715H15.1128V49.9353H15.5093V47.1715H16.3272V46.8271H14.2949Z" fill="#FCFCFD"/>
<path d="M16.7529 49.9353H17.149V46.8271H16.7529V49.9353Z" fill="#FCFCFD"/>
<path d="M19.4895 49.9353V49.5909H18.2581V48.5147H19.3774V48.1701H18.2581V47.1715H19.4632V46.8271H17.8623V49.9353H19.4895Z" fill="#FCFCFD"/>
<path d="M19.8891 49.0096C19.8806 49.3068 19.8806 50.0084 20.7974 49.9999C21.3099 49.9999 21.7621 49.789 21.7621 49.1346C21.7621 48.1486 20.3668 48.2476 20.3668 47.5631C20.3668 47.2272 20.608 47.1068 20.8446 47.1068C21.2195 47.1068 21.3269 47.3306 21.3231 47.6708H21.7359C21.7621 47.0379 21.4437 46.7623 20.8747 46.7623C20.3545 46.7623 19.9626 47.0549 19.9626 47.6062C19.9626 48.5404 21.3571 48.463 21.3571 49.1517C21.3571 49.522 21.1159 49.6555 20.8021 49.6555C20.5477 49.6555 20.281 49.522 20.281 49.1001V49.0096H19.8891Z" fill="#FCFCFD"/>
<path d="M23.3096 49.9353H23.7057V46.8271H23.3096V49.9353Z" fill="#FCFCFD"/>
<path d="M26.2174 46.8271V49.4876H26.2089L24.9991 46.8271H24.4395V49.9353H24.7927V47.2402H24.8012L26.028 49.9353H26.5707V46.8271H26.2174Z" fill="#FCFCFD"/>
<path d="M29.2439 46.8271H28.8388L28.1114 49.5609H28.1029L27.3925 46.8271H26.9619L27.8617 49.9353H28.3356L29.2439 46.8271Z" fill="#FCFCFD"/>
<path d="M31.2395 49.9353V49.5909H30.0081V48.5147H31.1274V48.1701H30.0081V47.1715H31.214V46.8271H29.6123V49.9353H31.2395Z" fill="#FCFCFD"/>
<path d="M31.6391 49.0096C31.6306 49.3068 31.6306 50.0084 32.5474 49.9999C33.0599 49.9999 33.5121 49.789 33.5121 49.1346C33.5121 48.1486 32.1168 48.2476 32.1168 47.5631C32.1168 47.2272 32.358 47.1068 32.5953 47.1068C32.9695 47.1068 33.0769 47.3306 33.0731 47.6708H33.4859C33.5121 47.0379 33.1929 46.7623 32.6247 46.7623C32.1045 46.7623 31.7126 47.0549 31.7126 47.6062C31.7126 48.5404 33.1071 48.463 33.1071 49.1517C33.1071 49.522 32.8659 49.6555 32.5521 49.6555C32.2977 49.6555 32.031 49.522 32.031 49.1001V49.0096H31.6391Z" fill="#FCFCFD"/>
<path d="M33.7979 46.8271V47.1715H34.6157V49.9353H35.0123V47.1715H35.8301V46.8271H33.7979Z" fill="#FCFCFD"/>
<path fill-rule="evenodd" clip-rule="evenodd" d="M37.1695 50C37.8281 50 38.1466 49.6597 38.1466 48.7988V47.7784C38.1466 47.1585 37.8281 46.7624 37.1695 46.7624C36.5109 46.7624 36.1924 47.1585 36.1924 47.7784V48.7988C36.1924 49.6597 36.5109 50 37.1695 50ZM37.1695 49.6685C36.7946 49.6685 36.5967 49.4961 36.5967 48.816V47.7656C36.5967 47.1153 37.045 47.0939 37.1695 47.0939C37.2939 47.0939 37.7423 47.1153 37.7423 47.7656V48.816C37.7423 49.4961 37.5436 49.6685 37.1695 49.6685Z" fill="#FCFCFD"/>
<path fill-rule="evenodd" clip-rule="evenodd" d="M39.1858 47.1715H39.7841C40.0903 47.1715 40.2023 47.4211 40.2023 47.6451C40.2023 47.9163 40.064 48.1616 39.7803 48.1616H39.1858V47.1715ZM39.6512 48.506C39.7841 48.506 40.0903 48.5232 40.1204 48.902C40.1544 49.3153 40.1289 49.7201 40.241 49.9353H40.6538C40.5935 49.7416 40.551 49.2551 40.5463 49.1216C40.5247 48.4973 40.3956 48.3768 40.0385 48.3209V48.3121C40.4041 48.2477 40.6066 47.9679 40.6066 47.602C40.6066 47.2144 40.4126 46.8271 39.8622 46.8271H38.79V49.9353H39.1858V48.506H39.6512Z" fill="#FCFCFD"/>
<path fill-rule="evenodd" clip-rule="evenodd" d="M42.5245 47.1715H43.071C43.1568 47.1715 43.5101 47.2188 43.5101 47.6923C43.5101 48.1788 43.1228 48.2219 42.9597 48.2219H42.5245V47.1715ZM42.5245 49.9353V48.5664H43.0455C43.364 48.5664 43.9151 48.42 43.9151 47.7139C43.9151 46.9819 43.4668 46.8271 43.0494 46.8271H42.1279V49.9353H42.5245Z" fill="#FCFCFD"/>
<path fill-rule="evenodd" clip-rule="evenodd" d="M44.8206 47.1715H45.4189C45.725 47.1715 45.8363 47.4211 45.8363 47.6451C45.8363 47.9163 45.6987 48.1616 45.415 48.1616H44.8206V47.1715ZM45.2859 48.506C45.4189 48.506 45.725 48.5232 45.7552 48.902C45.7892 49.3153 45.7637 49.7201 45.8757 49.9353H46.2885C46.2282 49.7416 46.1857 49.2551 46.1811 49.1216C46.1594 48.4973 46.0304 48.3768 45.6732 48.3209V48.3121C46.0389 48.2477 46.2414 47.9679 46.2414 47.602C46.2414 47.2144 46.0474 46.8271 45.4962 46.8271H44.4248V49.9353H44.8206V48.506H45.2859Z" fill="#FCFCFD"/>
<path fill-rule="evenodd" clip-rule="evenodd" d="M47.7554 50C48.414 50 48.7325 49.6597 48.7325 48.7988V47.7784C48.7325 47.1585 48.414 46.7624 47.7554 46.7624C47.0968 46.7624 46.7783 47.1585 46.7783 47.7784V48.7988C46.7783 49.6597 47.0968 50 47.7554 50ZM47.7554 49.6685C47.3813 49.6685 47.1826 49.4961 47.1826 48.816V47.7656C47.1826 47.1153 47.631 47.0939 47.7554 47.0939C47.8799 47.0939 48.3282 47.1153 48.3282 47.7656V48.816C48.3282 49.4961 48.1296 49.6685 47.7554 49.6685Z" fill="#FCFCFD"/>
<path d="M49.0967 46.8271V47.1715H49.9145V49.9353H50.3111V47.1715H51.1289V46.8271H49.0967Z" fill="#FCFCFD"/>
<path d="M53.1301 49.9353V49.5909H51.8987V48.5147H53.018V48.1701H51.8987V47.1715H53.1038V46.8271H51.5029V49.9353H53.1301Z" fill="#FCFCFD"/>
<path d="M55.3987 47.6837C55.4373 47.0811 55.2008 46.7624 54.5847 46.7624C53.9732 46.7624 53.5859 47.0121 53.5859 47.8904V48.7687C53.5859 49.9741 54.1804 50 54.5677 50C54.7702 50 55.4628 50 55.4458 49.0183H55.0369C55.033 49.6253 54.6666 49.6685 54.546 49.6685C54.2407 49.6685 53.991 49.578 53.991 48.816V47.9851C53.991 47.4512 54.0683 47.3737 54.0814 47.3393C54.0938 47.2963 54.2229 47.0981 54.5507 47.0981C54.6326 47.0981 54.8173 47.1327 54.8993 47.2316C54.9812 47.3307 54.9936 47.5072 54.9897 47.6837H55.3987Z" fill="#FCFCFD"/>
<path d="M55.6895 46.8271V47.1715H56.5073V49.9353H56.9039V47.1715H57.7217V46.8271H55.6895Z" fill="#FCFCFD"/>
<path d="M58.1475 49.9353H58.5437V46.8271H58.1475V49.9353Z" fill="#FCFCFD"/>
<path fill-rule="evenodd" clip-rule="evenodd" d="M60.2203 50C60.8789 50 61.1974 49.6597 61.1974 48.7988V47.7784C61.1974 47.1585 60.8789 46.7624 60.2203 46.7624C59.5616 46.7624 59.2432 47.1585 59.2432 47.7784V48.7988C59.2432 49.6597 59.5616 50 60.2203 50ZM60.2203 49.6685C59.8461 49.6685 59.6475 49.4961 59.6475 48.816V47.7656C59.6475 47.1153 60.0958 47.0939 60.2203 47.0939C60.3447 47.0939 60.7931 47.1153 60.7931 47.7656V48.816C60.7931 49.4961 60.5952 49.6685 60.2203 49.6685Z" fill="#FCFCFD"/>
<path d="M63.65 46.8271V49.4876H63.6415L62.4317 46.8271H61.8721V49.9353H62.2253V47.2402H62.2338L63.4606 49.9353H64.0033V46.8271H63.65Z" fill="#FCFCFD"/>
<path d="M67.385 47.6837C67.4237 47.0811 67.1871 46.7624 66.571 46.7624C65.9595 46.7624 65.5723 47.0121 65.5723 47.8904V48.7687C65.5723 49.9741 66.1667 50 66.554 50C66.7565 50 67.4492 50 67.4322 49.0183H67.0232C67.0194 49.6253 66.653 49.6685 66.5324 49.6685C66.227 49.6685 65.9773 49.578 65.9773 48.816V47.9851C65.9773 47.4512 66.0546 47.3737 66.0678 47.3393C66.0801 47.2963 66.2092 47.0981 66.537 47.0981C66.6189 47.0981 66.8037 47.1327 66.8856 47.2316C66.9676 47.3307 66.9799 47.5072 66.9761 47.6837H67.385Z" fill="#FCFCFD"/>
<path fill-rule="evenodd" clip-rule="evenodd" d="M68.9283 50C69.5869 50 69.9054 49.6597 69.9054 48.7988V47.7784C69.9054 47.1585 69.5869 46.7624 68.9283 46.7624C68.2697 46.7624 67.9512 47.1585 67.9512 47.7784V48.7988C67.9512 49.6597 68.2697 50 68.9283 50ZM68.9283 49.6685C68.5534 49.6685 68.3555 49.4961 68.3555 48.816V47.7656C68.3555 47.1153 68.8038 47.0939 68.9283 47.0939C69.0527 47.0939 69.5011 47.1153 69.5011 47.7656V48.816C69.5011 49.4961 69.3024 49.6685 68.9283 49.6685Z" fill="#FCFCFD"/>
<path fill-rule="evenodd" clip-rule="evenodd" d="M70.9454 47.1715H71.5437C71.8498 47.1715 71.9611 47.4211 71.9611 47.6451C71.9611 47.9163 71.8235 48.1616 71.5398 48.1616H70.9454V47.1715ZM71.41 48.506C71.5437 48.506 71.8498 48.5232 71.88 48.902C71.914 49.3153 71.8885 49.7201 72.0006 49.9353H72.4134C72.3531 49.7416 72.3105 49.2551 72.3059 49.1216C72.2843 48.4973 72.1552 48.3768 71.798 48.3209V48.3121C72.1637 48.2477 72.3662 47.9679 72.3662 47.602C72.3662 47.2144 72.1722 46.8271 71.621 46.8271H70.5488V49.9353H70.9454V48.506H71.41Z" fill="#FCFCFD"/>
<path fill-rule="evenodd" clip-rule="evenodd" d="M73.3636 47.1715H73.9101C73.9967 47.1715 74.3492 47.2188 74.3492 47.6923C74.3492 48.1788 73.9619 48.2219 73.7988 48.2219H73.3636V47.1715ZM73.3636 49.9353V48.5664H73.8846C74.2031 48.5664 74.7542 48.42 74.7542 47.7139C74.7542 46.9819 74.3066 46.8271 73.8884 46.8271H72.9678V49.9353H73.3636Z" fill="#FCFCFD"/>
<path fill-rule="evenodd" clip-rule="evenodd" d="M76.2378 50C76.8964 50 77.2149 49.6597 77.2149 48.7988V47.7784C77.2149 47.1585 76.8964 46.7624 76.2378 46.7624C75.5792 46.7624 75.2607 47.1585 75.2607 47.7784V48.7988C75.2607 49.6597 75.5792 50 76.2378 50ZM76.2378 49.6685C75.8629 49.6685 75.665 49.4961 75.665 48.816V47.7656C75.665 47.1153 76.1126 47.0939 76.2378 47.0939C76.3623 47.0939 76.8106 47.1153 76.8106 47.7656V48.816C76.8106 49.4961 76.612 49.6685 76.2378 49.6685Z" fill="#FCFCFD"/>
<path fill-rule="evenodd" clip-rule="evenodd" d="M78.2542 47.1715H78.8525C79.1586 47.1715 79.2699 47.4211 79.2699 47.6451C79.2699 47.9163 79.1323 48.1616 78.8486 48.1616H78.2542V47.1715ZM78.7195 48.506C78.8525 48.506 79.1586 48.5232 79.1888 48.902C79.2228 49.3153 79.1973 49.7201 79.3094 49.9353H79.7222C79.6619 49.7416 79.6193 49.2551 79.6147 49.1216C79.5931 48.4973 79.464 48.3768 79.1068 48.3209V48.3121C79.4725 48.2477 79.675 47.9679 79.675 47.602C79.675 47.2144 79.481 46.8271 78.9298 46.8271H77.8584V49.9353H78.2542V48.506H78.7195Z" fill="#FCFCFD"/>
<path fill-rule="evenodd" clip-rule="evenodd" d="M79.9404 49.9353H80.3409L80.5735 49.1948H81.7748L81.9982 49.9353H82.4419L81.43 46.8271H80.926L79.9404 49.9353ZM81.6666 48.8505H80.6725L81.1587 47.1929H81.1672L81.6666 48.8505Z" fill="#FCFCFD"/>
<path d="M82.2119 46.8271V47.1715H83.0298V49.9353H83.4263V47.1715H84.2442V46.8271H82.2119Z" fill="#FCFCFD"/>
<path d="M84.6699 49.9353H85.0662V46.8271H84.6699V49.9353Z" fill="#FCFCFD"/>
<path fill-rule="evenodd" clip-rule="evenodd" d="M86.7427 50C87.4013 50 87.7198 49.6597 87.7198 48.7988V47.7784C87.7198 47.1585 87.4013 46.7624 86.7427 46.7624C86.0841 46.7624 85.7656 47.1585 85.7656 47.7784V48.7988C85.7656 49.6597 86.0841 50 86.7427 50ZM86.7427 49.6685C86.3686 49.6685 86.1699 49.4961 86.1699 48.816V47.7656C86.1699 47.1153 86.6183 47.0939 86.7427 47.0939C86.8672 47.0939 87.3155 47.1153 87.3155 47.7656V48.816C87.3155 49.4961 87.1169 49.6685 86.7427 49.6685Z" fill="#FCFCFD"/>
<path d="M90.1725 46.8271V49.4876H90.164L88.9542 46.8271H88.3945V49.9353H88.747V47.2402H88.7555L89.9831 49.9353H90.5257V46.8271H90.1725Z" fill="#FCFCFD"/>
<path d="M21.2591 8.0812V19.7986C21.0589 19.998 21.0589 19.8481 21.0172 19.5814C20.7358 17.7949 20.5766 14.7763 17.8571 12.3305C11.7966 6.88071 4.3896 9.2531 5.8823 15.9405C7.78005 24.4421 21.1362 19.7769 22.8856 30.8403C24.7346 42.5415 14.0415 46.2203 5.53985 41.8087C5.53985 41.8087 3.34526 40.4335 2.47793 40.7806C2.10225 40.9305 1.85488 41.6997 1.79691 42.5392C1.7683 43.7544 1.43127 43.3903 1.44982 43.2851C1.44673 42.7804 1.44982 30.7723 1.44982 30.7723C1.4591 30.5443 1.64539 30.6084 1.64539 30.6834C1.86107 44.5567 16.9171 46.3277 16.6241 38.2667C16.277 28.7362 1.51321 31.2075 0.156565 21.4312C-1.51238 9.41466 10.556 6.03967 17.5827 11.2343C18.9733 12.2617 20.2658 10.6832 20.4877 10.3585C20.9615 9.66743 20.8077 8.98254 20.994 8.07579C21.0682 7.71634 21.2591 7.83152 21.2591 8.0812Z" fill="#FCFCFD"/>
<path d="M90.3254 19.892C90.3996 20.7601 89.9319 20.5375 89.9319 20.5375C91.0706 11.5566 73.0531 1.01186 71.8913 24.0199C70.8639 44.3603 84.9761 48.3715 90.5039 34.4788C90.5588 34.2856 90.909 33.2451 90.9244 33.1562C90.9894 32.789 91.0435 33.2111 90.9894 33.6223C87.8633 51.4164 57.8966 45.4974 64.7687 19.5202C66.4005 13.3523 74.4005 7.4132 80.8134 9.18882C84.6344 10.2463 84.1575 10.8052 86.468 12.0258C89.0607 13.3956 89.7286 10.2162 90.0486 8.60133C90.3401 8.43977 90.323 8.99247 90.323 8.99247L90.3254 19.892Z" fill="#FCFCFD"/>
<path d="M55.1807 13.0531C53.8062 10.9405 51.58 9.68744 48.9973 9.88378C48.6433 9.86987 48.6626 10.0763 48.6626 10.0763V26.5933C48.6649 26.9481 48.9973 26.9458 48.9973 26.9458C51.893 27.1808 54.3876 25.4121 55.7674 22.9153C57.4116 19.9407 56.8736 15.6559 55.1807 13.0531ZM63.4512 15.9079C64.1678 20.0644 63.3074 23.3907 61.2071 25.2629C57.55 28.2143 53.5326 27.3215 49.1674 27.4939C48.6154 27.4606 48.6626 28.1301 48.6626 28.1301V43.2935L39.7799 43.2966L39.7752 10.0786C39.8286 9.42925 38.5686 9.60936 37.7739 9.57071C37.3874 9.51969 37.5783 9.23445 37.7584 9.2043C41.2045 9.27928 51.5715 8.88968 57.3699 10.0786C60.3707 10.6939 62.8753 12.5607 63.4512 15.9079Z" fill="#FCFCFD"/>
<path d="M35.3826 21.7729V43.2936C34.1234 43.306 26.2866 43.2967 26.2866 43.2967L26.2927 22.6448C26.2927 22.6448 26.3337 21.878 25.8289 21.8579C24.7792 21.8161 23.3646 21.7017 23.3646 21.7017C23.1844 21.6909 22.9989 21.4536 23.3646 21.4281C24.4352 21.4281 34.8987 21.4281 34.8987 21.4281C35.4136 21.4126 35.3826 21.7729 35.3826 21.7729Z" fill="#FCFCFD"/>
</g>
<defs>
<clipPath id="clip0_3232_36030">
<rect width="91.0112" height="50" fill="white"/>
</clipPath>
</defs>
</svg>
