<svg width="139" height="50" viewBox="0 0 139 50" fill="none" xmlns="http://www.w3.org/2000/svg">
<g clip-path="url(#clip0_3232_36131)">
<path d="M59.6074 22.78V4.66603H63.2155L67.5025 17.4901C67.9 18.6827 68.1874 19.5816 68.3648 20.1687C68.5727 19.5083 68.8907 18.542 69.331 17.2639L73.6669 4.65991H76.8897V22.7739H74.5781V7.6198L69.3127 22.78H67.1478L61.9068 7.36295V22.78H59.6074Z" fill="#FCFCFD"/>
<path d="M80.4854 7.22228V4.66602H82.7114V7.22228H80.4854ZM80.4854 22.78V9.65623H82.7114V22.78H80.4854Z" fill="#FCFCFD"/>
<path d="M86.5029 22.78V4.66602H98.7216V6.80643H88.9002V12.4143H97.4007V14.5547H88.9002V22.7861H86.5029V22.78Z" fill="#FCFCFD"/>
<path d="M102.244 22.78V4.66602H104.641V22.78H102.244Z" fill="#FCFCFD"/>
<path d="M108.867 22.78V4.66602H115.105C116.512 4.66602 117.588 4.75163 118.328 4.92286C119.367 5.16137 120.248 5.59557 120.982 6.21934C121.936 7.02658 122.651 8.0601 123.128 9.31376C123.599 10.5674 123.838 12.0046 123.838 13.619C123.838 14.995 123.679 16.212 123.355 17.2761C123.031 18.3402 122.621 19.2147 122.119 19.9119C121.618 20.609 121.068 21.1533 120.468 21.5569C119.869 21.9544 119.147 22.2602 118.303 22.4681C117.459 22.676 116.487 22.7739 115.392 22.7739H108.867V22.78ZM111.264 20.6396H115.129C116.322 20.6396 117.264 20.5295 117.943 20.3032C118.621 20.0831 119.166 19.7651 119.569 19.3615C120.138 18.7927 120.578 18.0283 120.896 17.0682C121.214 16.108 121.373 14.9461 121.373 13.5762C121.373 11.6804 121.061 10.225 120.438 9.2098C119.814 8.19464 119.062 7.5097 118.169 7.16724C117.527 6.92262 116.493 6.7942 115.068 6.7942H111.264V20.6396Z" fill="#FCFCFD"/>
<path d="M59.4365 34.5278V28.4429H60.6474L62.0906 32.7543C62.2252 33.1579 62.323 33.4575 62.3781 33.6532C62.4453 33.4331 62.5554 33.109 62.7022 32.6809L64.1577 28.449H65.2401V34.5339H64.4634V29.4397L62.6961 34.5339H61.9683L60.2071 29.3541V34.5339H59.4365V34.5278Z" fill="#FCFCFD"/>
<path d="M69.3257 33.9835C69.0505 34.2159 68.7814 34.3872 68.5246 34.485C68.2677 34.5829 67.9925 34.6318 67.699 34.6318C67.2159 34.6318 66.8428 34.5156 66.5799 34.2771C66.3169 34.0386 66.1885 33.7389 66.1885 33.372C66.1885 33.158 66.2374 32.9561 66.3352 32.7788C66.4331 32.6015 66.5615 32.4547 66.7205 32.3507C66.8795 32.2406 67.0569 32.1611 67.2587 32.1061C67.4055 32.0694 67.6256 32.0327 67.9253 31.996C68.5307 31.9226 68.971 31.837 69.2584 31.7392C69.2584 31.6352 69.2646 31.5741 69.2646 31.5435C69.2646 31.2377 69.1912 31.0237 69.0505 30.9014C68.8609 30.7301 68.5735 30.6506 68.2005 30.6506C67.8458 30.6506 67.5889 30.7118 67.4238 30.8341C67.2587 30.9564 67.1303 31.1766 67.0508 31.4884L66.323 31.3906C66.3903 31.0787 66.5004 30.828 66.6532 30.6323C66.8061 30.4366 67.0263 30.2898 67.3137 30.1858C67.6011 30.0819 67.9375 30.033 68.3167 30.033C68.6958 30.033 69.0016 30.0758 69.234 30.1675C69.4664 30.2592 69.6437 30.3693 69.7538 30.5038C69.8639 30.6384 69.9434 30.8096 69.9862 31.0114C70.0106 31.1399 70.0229 31.3661 70.0229 31.7025V32.6993C70.0229 33.3965 70.0412 33.8307 70.0718 34.0202C70.1024 34.2037 70.1635 34.3811 70.2614 34.5523H69.4786C69.3991 34.3749 69.3441 34.1915 69.3257 33.9835ZM69.2646 32.314C68.9955 32.4241 68.5857 32.5158 68.0415 32.5953C67.7357 32.6381 67.5155 32.6871 67.3871 32.7421C67.2587 32.7971 67.1608 32.8766 67.0936 32.9867C67.0263 33.0907 66.9896 33.213 66.9896 33.3414C66.9896 33.5432 67.063 33.7084 67.2159 33.8368C67.3688 33.9713 67.5889 34.0386 67.8763 34.0386C68.1638 34.0386 68.4206 33.9774 68.6469 33.849C68.8732 33.7206 69.0383 33.5493 69.1422 33.3353C69.2217 33.1641 69.2646 32.9195 69.2646 32.5892V32.314Z" fill="#FCFCFD"/>
<path d="M71.166 34.5278V30.1186H71.8387V30.7852C72.0099 30.4733 72.169 30.2654 72.3157 30.1675C72.4625 30.0697 72.6215 30.0208 72.7927 30.0208C73.0435 30.0208 73.3003 30.1003 73.5633 30.2593L73.3064 30.9503C73.123 30.8402 72.9395 30.7913 72.756 30.7913C72.5909 30.7913 72.4441 30.8402 72.3157 30.9381C72.1873 31.0359 72.0956 31.1705 72.0344 31.3478C71.9488 31.6108 71.9121 31.9043 71.9121 32.2223V34.5278H71.166Z" fill="#FCFCFD"/>
<path d="M74.0098 34.5278V28.4429H74.7559V31.9165L76.5232 30.1246H77.4895L75.8016 31.7575L77.6607 34.5339H76.7373L75.2818 32.2773L74.7559 32.7848V34.5339H74.0098V34.5278Z" fill="#FCFCFD"/>
<path d="M81.2747 33.109L82.0453 33.2069C81.9229 33.6594 81.6967 34.008 81.3664 34.2587C81.0362 34.5095 80.6142 34.6318 80.1067 34.6318C79.4645 34.6318 78.9508 34.43 78.5717 34.0386C78.1925 33.6411 78.0029 33.0846 78.0029 32.3691C78.0029 31.6291 78.1925 31.0542 78.5778 30.6445C78.9569 30.2348 79.4523 30.033 80.0638 30.033C80.6509 30.033 81.134 30.2348 81.5071 30.6323C81.8801 31.0359 82.0697 31.5985 82.0697 32.3263C82.0697 32.3691 82.0697 32.4363 82.0636 32.5281H78.7735C78.8041 33.0112 78.9386 33.3842 79.1832 33.6411C79.4278 33.8979 79.7336 34.0264 80.1067 34.0264C80.3818 34.0264 80.6142 33.953 80.8099 33.8123C81.0117 33.6533 81.1646 33.4209 81.2747 33.109ZM78.8224 31.8982H81.2869C81.2564 31.5251 81.1585 31.2499 81.0056 31.0665C80.7671 30.779 80.4613 30.6323 80.0822 30.6323C79.7397 30.6323 79.4523 30.7485 79.2138 30.9747C78.9753 31.2071 78.8469 31.5129 78.8224 31.8982Z" fill="#FCFCFD"/>
<path d="M84.6197 33.8611L84.7298 34.5216C84.5219 34.5644 84.3323 34.5889 84.1672 34.5889C83.8981 34.5889 83.6841 34.5461 83.5373 34.4605C83.3905 34.3748 83.2804 34.2587 83.2193 34.1241C83.1581 33.9896 83.1275 33.6899 83.1275 33.2435V30.6995H82.5771V30.1185H83.1275V29.0238L83.8675 28.5774V30.1185H84.6197V30.6995H83.8675V33.2802C83.8675 33.4942 83.8797 33.6288 83.9042 33.6899C83.9287 33.7511 83.9715 33.8 84.0326 33.8367C84.0938 33.8734 84.1794 33.8917 84.2895 33.8917C84.3751 33.8856 84.4791 33.8795 84.6197 33.8611Z" fill="#FCFCFD"/>
<path d="M85.0479 33.213L85.7878 33.0968C85.8306 33.3904 85.9468 33.6228 86.1364 33.7756C86.326 33.9346 86.5889 34.0141 86.9314 34.0141C87.2739 34.0141 87.5307 33.9469 87.6958 33.8062C87.8609 33.6656 87.9466 33.5004 87.9466 33.317C87.9466 33.1458 87.8732 33.0173 87.7264 32.9195C87.6224 32.8522 87.3717 32.7666 86.962 32.6687C86.4116 32.5281 86.0324 32.4119 85.8245 32.3079C85.6105 32.204 85.4515 32.0694 85.3414 31.886C85.2313 31.7086 85.1763 31.5129 85.1763 31.2928C85.1763 31.0971 85.2191 30.9136 85.3108 30.7485C85.4025 30.5834 85.5249 30.4427 85.6777 30.3326C85.7939 30.247 85.9529 30.1736 86.1547 30.1125C86.3566 30.0513 86.5706 30.0208 86.7969 30.0208C87.1454 30.0208 87.4451 30.0697 87.7081 30.1675C87.971 30.2654 88.1606 30.3999 88.289 30.5711C88.4175 30.7424 88.497 30.9686 88.5459 31.2561L87.8181 31.3539C87.7876 31.1277 87.6897 30.9503 87.5307 30.8219C87.3717 30.6935 87.1454 30.6323 86.858 30.6323C86.5156 30.6323 86.2709 30.6873 86.1242 30.8035C85.9774 30.9197 85.904 31.0481 85.904 31.201C85.904 31.2989 85.9346 31.3845 85.9957 31.464C86.0569 31.5435 86.1547 31.6108 86.2832 31.6658C86.3565 31.6903 86.5767 31.7575 86.9436 31.8554C87.4696 31.996 87.8426 32.1122 88.0505 32.204C88.2585 32.2957 88.4236 32.4241 88.5398 32.5954C88.656 32.7666 88.7171 32.9806 88.7171 33.2314C88.7171 33.4821 88.6437 33.7145 88.497 33.9346C88.3502 34.1548 88.1423 34.326 87.8671 34.4422C87.5919 34.5645 87.28 34.6257 86.9375 34.6257C86.3627 34.6257 85.9285 34.5095 85.6288 34.271C85.323 34.0325 85.1335 33.6778 85.0479 33.213Z" fill="#FCFCFD"/>
<path d="M91.9648 29.299V28.4368H92.7109V29.299H91.9648ZM91.9648 34.5278V30.1185H92.7109V34.5278H91.9648Z" fill="#FCFCFD"/>
<path d="M93.8486 34.5279V30.1186H94.5213V30.7424C94.8454 30.2593 95.3102 30.0146 95.9218 30.0146C96.1847 30.0146 96.4294 30.0636 96.6556 30.1553C96.8758 30.2532 97.047 30.3755 97.1571 30.5283C97.2672 30.6812 97.3467 30.8647 97.3895 31.0787C97.4139 31.2194 97.4323 31.4579 97.4323 31.8065V34.5156H96.6862V31.8309C96.6862 31.5252 96.6556 31.2989 96.6006 31.146C96.5456 30.9931 96.4416 30.8769 96.2887 30.7852C96.1419 30.6935 95.9646 30.6507 95.7689 30.6507C95.4509 30.6507 95.1757 30.7546 94.9433 30.9564C94.7109 31.1582 94.5947 31.5435 94.5947 32.1061V34.5156H93.8486V34.5279Z" fill="#FCFCFD"/>
<path d="M101.077 34.5278V28.4429H105.187V29.1584H101.884V31.0419H104.74V31.7575H101.884V34.5216H101.077V34.5278Z" fill="#FCFCFD"/>
<path d="M106.141 29.299V28.4368H106.887V29.299H106.141ZM106.141 34.5278V30.1185H106.887V34.5278H106.141Z" fill="#FCFCFD"/>
<path d="M108.023 34.5279V30.1186H108.696V30.7424C109.02 30.2593 109.485 30.0146 110.097 30.0146C110.36 30.0146 110.604 30.0636 110.83 30.1553C111.051 30.2532 111.222 30.3755 111.332 30.5283C111.442 30.6812 111.521 30.8647 111.564 31.0787C111.589 31.2194 111.607 31.4579 111.607 31.8065V34.5156H110.861V31.8309C110.861 31.5252 110.83 31.2989 110.775 31.146C110.72 30.9931 110.616 30.8769 110.464 30.7852C110.317 30.6935 110.139 30.6507 109.944 30.6507C109.626 30.6507 109.35 30.7546 109.118 30.9564C108.886 31.1582 108.77 31.5435 108.77 32.1061V34.5156H108.023V34.5279Z" fill="#FCFCFD"/>
<path d="M115.631 33.9835C115.356 34.2159 115.087 34.3872 114.83 34.485C114.573 34.5829 114.298 34.6318 114.005 34.6318C113.522 34.6318 113.148 34.5156 112.886 34.2771C112.623 34.0386 112.494 33.7389 112.494 33.372C112.494 33.158 112.543 32.9561 112.641 32.7788C112.739 32.6015 112.867 32.4547 113.026 32.3507C113.185 32.2406 113.363 32.1611 113.564 32.1061C113.711 32.0694 113.931 32.0327 114.231 31.996C114.836 31.9226 115.277 31.837 115.564 31.7392C115.564 31.6352 115.57 31.5741 115.57 31.5435C115.57 31.2377 115.497 31.0237 115.356 30.9014C115.167 30.7301 114.879 30.6506 114.506 30.6506C114.151 30.6506 113.895 30.7118 113.729 30.8341C113.564 30.9564 113.436 31.1766 113.356 31.4884L112.629 31.3906C112.696 31.0787 112.806 30.828 112.959 30.6323C113.112 30.4366 113.332 30.2898 113.619 30.1858C113.907 30.0819 114.243 30.033 114.622 30.033C115.001 30.033 115.307 30.0758 115.54 30.1675C115.772 30.2592 115.949 30.3693 116.059 30.5038C116.17 30.6384 116.249 30.8096 116.292 31.0114C116.316 31.1399 116.329 31.3661 116.329 31.7025V32.6993C116.329 33.3965 116.347 33.8307 116.377 34.0202C116.408 34.2037 116.469 34.3811 116.567 34.5523H115.784C115.699 34.3749 115.65 34.1915 115.631 33.9835ZM115.564 32.314C115.295 32.4241 114.885 32.5158 114.341 32.5953C114.035 32.6381 113.815 32.6871 113.687 32.7421C113.558 32.7971 113.46 32.8766 113.393 32.9867C113.326 33.0907 113.289 33.213 113.289 33.3414C113.289 33.5432 113.363 33.7084 113.515 33.8368C113.668 33.9713 113.888 34.0386 114.176 34.0386C114.463 34.0386 114.72 33.9774 114.946 33.849C115.173 33.7206 115.338 33.5493 115.442 33.3353C115.521 33.1641 115.564 32.9195 115.564 32.5892V32.314Z" fill="#FCFCFD"/>
<path d="M117.479 34.5279V30.1186H118.151V30.7424C118.475 30.2593 118.94 30.0146 119.552 30.0146C119.815 30.0146 120.059 30.0636 120.286 30.1553C120.506 30.2532 120.677 30.3755 120.787 30.5283C120.897 30.6812 120.977 30.8647 121.019 31.0787C121.044 31.2194 121.062 31.4579 121.062 31.8065V34.5156H120.316V31.8309C120.316 31.5252 120.286 31.2989 120.23 31.146C120.175 30.9931 120.071 30.8769 119.919 30.7852C119.772 30.6935 119.594 30.6507 119.399 30.6507C119.081 30.6507 118.806 30.7546 118.573 30.9564C118.341 31.1582 118.225 31.5435 118.225 32.1061V34.5156H117.479V34.5279Z" fill="#FCFCFD"/>
<path d="M125.086 32.9134L125.82 33.0112C125.741 33.5188 125.533 33.9163 125.202 34.1976C124.872 34.485 124.462 34.6257 123.985 34.6257C123.38 34.6257 122.897 34.43 122.53 34.0325C122.163 33.6411 121.979 33.0724 121.979 32.3385C121.979 31.8615 122.059 31.4457 122.218 31.091C122.377 30.7363 122.615 30.4672 122.94 30.2898C123.264 30.1125 123.612 30.0208 123.991 30.0208C124.468 30.0208 124.86 30.1431 125.166 30.3816C125.471 30.6262 125.667 30.9686 125.753 31.4151L125.025 31.5252C124.958 31.2316 124.835 31.0053 124.658 30.8586C124.481 30.7118 124.273 30.6323 124.022 30.6323C123.643 30.6323 123.337 30.7668 123.105 31.0359C122.872 31.305 122.75 31.7331 122.75 32.314C122.75 32.9072 122.866 33.3353 123.093 33.6044C123.319 33.8735 123.618 34.008 123.979 34.008C124.273 34.008 124.517 33.9163 124.713 33.739C124.909 33.5616 125.037 33.2864 125.086 32.9134Z" fill="#FCFCFD"/>
<path d="M126.468 29.299V28.4368H127.214V29.299H126.468ZM126.468 34.5278V30.1185H127.214V34.5278H126.468Z" fill="#FCFCFD"/>
<path d="M131.226 33.9835C130.951 34.2159 130.682 34.3872 130.425 34.485C130.168 34.5829 129.893 34.6318 129.599 34.6318C129.116 34.6318 128.743 34.5156 128.48 34.2771C128.217 34.0386 128.089 33.7389 128.089 33.372C128.089 33.158 128.138 32.9561 128.236 32.7788C128.333 32.6015 128.462 32.4547 128.621 32.3507C128.78 32.2406 128.957 32.1611 129.159 32.1061C129.306 32.0694 129.526 32.0327 129.826 31.996C130.431 31.9226 130.871 31.837 131.159 31.7392C131.159 31.6352 131.165 31.5741 131.165 31.5435C131.165 31.2377 131.092 31.0237 130.951 30.9014C130.761 30.7301 130.474 30.6506 130.101 30.6506C129.746 30.6506 129.489 30.7118 129.324 30.8341C129.159 30.9564 129.031 31.1766 128.951 31.4884L128.223 31.3906C128.291 31.0787 128.401 30.828 128.554 30.6323C128.707 30.4366 128.927 30.2898 129.214 30.1858C129.502 30.0819 129.838 30.033 130.217 30.033C130.596 30.033 130.902 30.0758 131.134 30.1675C131.367 30.2592 131.544 30.3693 131.654 30.5038C131.764 30.6384 131.844 30.8096 131.887 31.0114C131.911 31.1399 131.923 31.3661 131.923 31.7025V32.6993C131.923 33.3965 131.942 33.8307 131.972 34.0202C132.003 34.2037 132.064 34.3811 132.162 34.5523H131.379C131.299 34.3749 131.251 34.1915 131.226 33.9835ZM131.165 32.314C130.896 32.4241 130.486 32.5158 129.942 32.5953C129.636 32.6381 129.416 32.6871 129.288 32.7421C129.159 32.7971 129.061 32.8766 128.994 32.9867C128.927 33.0907 128.89 33.213 128.89 33.3414C128.89 33.5432 128.963 33.7084 129.116 33.8368C129.269 33.9713 129.489 34.0386 129.777 34.0386C130.064 34.0386 130.321 33.9774 130.547 33.849C130.774 33.7206 130.939 33.5493 131.043 33.3353C131.122 33.1641 131.165 32.9195 131.165 32.5892V32.314Z" fill="#FCFCFD"/>
<path d="M133.061 34.5278V28.4429H133.807V34.5278H133.061Z" fill="#FCFCFD"/>
<path d="M59.5957 44.7284V38.6436H60.4029V44.7284H59.5957Z" fill="#FCFCFD"/>
<path d="M61.7236 44.7283V40.319H62.3963V40.9428C62.7205 40.4597 63.1852 40.2151 63.7968 40.2151C64.0597 40.2151 64.3044 40.264 64.5306 40.3557C64.7508 40.4536 64.922 40.5759 65.0321 40.7288C65.1422 40.8817 65.2217 41.0651 65.2645 41.2792C65.289 41.4198 65.3073 41.6583 65.3073 42.0069V44.7161H64.5612V42.0314C64.5612 41.7256 64.5306 41.4993 64.4756 41.3464C64.4206 41.1936 64.3166 41.0774 64.1637 40.9856C64.0169 40.8939 63.8396 40.8511 63.6439 40.8511C63.3259 40.8511 63.0507 40.9551 62.8183 41.1569C62.5859 41.3587 62.4697 41.744 62.4697 42.3066V44.7161H61.7236V44.7283Z" fill="#FCFCFD"/>
<path d="M66.1572 43.4135L66.8972 43.2973C66.94 43.5908 67.0562 43.8232 67.2458 43.9761C67.4354 44.1351 67.6983 44.2146 68.0408 44.2146C68.3833 44.2146 68.6401 44.1473 68.8052 44.0067C68.9703 43.866 69.056 43.7009 69.056 43.5174C69.056 43.3462 68.9826 43.2178 68.8358 43.1199C68.7318 43.0527 68.4811 42.967 68.0714 42.8692C67.521 42.7285 67.1418 42.6123 66.9339 42.5084C66.7198 42.4044 66.5608 42.2699 66.4508 42.0864C66.3407 41.9091 66.2857 41.7134 66.2857 41.4932C66.2857 41.2975 66.3285 41.1141 66.4202 40.9489C66.5119 40.7838 66.6342 40.6432 66.7871 40.5331C66.9033 40.4475 67.0623 40.3741 67.2641 40.3129C67.4659 40.2518 67.68 40.2212 67.9062 40.2212C68.2548 40.2212 68.5545 40.2701 68.8174 40.368C69.0804 40.4658 69.27 40.6004 69.3984 40.7716C69.5268 40.9428 69.6063 41.1691 69.6553 41.4565L68.9275 41.5544C68.897 41.3281 68.7991 41.1507 68.6401 41.0223C68.4811 40.8939 68.2548 40.8327 67.9674 40.8327C67.6249 40.8327 67.3803 40.8878 67.2335 41.004C67.0868 41.1202 67.0134 41.2486 67.0134 41.4015C67.0134 41.4993 67.044 41.5849 67.1051 41.6644C67.1663 41.7439 67.2641 41.8112 67.3925 41.8663C67.4659 41.8907 67.6861 41.958 68.053 42.0558C68.5789 42.1965 68.952 42.3127 69.1599 42.4044C69.3678 42.4961 69.533 42.6246 69.6492 42.7958C69.7653 42.967 69.8265 43.1811 69.8265 43.4318C69.8265 43.6825 69.7531 43.9149 69.6063 44.1351C69.4596 44.3552 69.2516 44.5265 68.9765 44.6427C68.7013 44.765 68.3894 44.8261 68.0469 44.8261C67.472 44.8261 67.0379 44.7099 66.7382 44.4714C66.4324 44.2329 66.2367 43.8782 66.1572 43.4135Z" fill="#FCFCFD"/>
<path d="M72.3404 44.0618L72.4505 44.7223C72.2426 44.7651 72.053 44.7896 71.8879 44.7896C71.6188 44.7896 71.4048 44.7468 71.258 44.6611C71.1112 44.5755 71.0011 44.4593 70.94 44.3248C70.8788 44.1902 70.8482 43.8906 70.8482 43.4442V40.9062H70.2979V40.3253H70.8482V39.2306L71.5882 38.7842V40.3253H72.3404V40.9062H71.5882V43.487C71.5882 43.701 71.6005 43.8355 71.6249 43.8967C71.6494 43.9579 71.6922 44.0068 71.7533 44.0435C71.8145 44.0802 71.9001 44.0985 72.0102 44.0985C72.0958 44.0924 72.1998 44.0802 72.3404 44.0618Z" fill="#FCFCFD"/>
<path d="M73.0615 44.7283V40.319H73.7342V40.9856C73.9055 40.6737 74.0645 40.4658 74.2112 40.368C74.358 40.2701 74.517 40.2212 74.6882 40.2212C74.939 40.2212 75.1958 40.3007 75.4588 40.4597L75.2019 41.1507C75.0185 41.0407 74.835 40.9917 74.6515 40.9917C74.4864 40.9917 74.3397 41.0407 74.2112 41.1385C74.0828 41.2364 73.9911 41.3709 73.9299 41.5483C73.8443 41.8112 73.8076 42.1048 73.8076 42.4228V44.7283H73.0615Z" fill="#FCFCFD"/>
<path d="M78.7916 44.7284V44.0801C78.4491 44.5755 77.9843 44.8262 77.3911 44.8262C77.1282 44.8262 76.8897 44.7773 76.6634 44.6794C76.4371 44.5816 76.272 44.4532 76.1619 44.3003C76.0518 44.1474 75.9785 43.9639 75.9295 43.7438C75.899 43.597 75.8867 43.3646 75.8867 43.0466V40.313H76.6328V42.7592C76.6328 43.1506 76.645 43.4135 76.6756 43.5481C76.7245 43.7438 76.8224 43.8967 76.9753 44.0128C77.1282 44.129 77.3177 44.178 77.5379 44.178C77.7642 44.178 77.9721 44.1229 78.1678 44.0067C78.3635 43.8905 78.5041 43.7376 78.5836 43.5358C78.6631 43.3401 78.7059 43.0527 78.7059 42.6736V40.313H79.452V44.7222H78.7916V44.7284Z" fill="#FCFCFD"/>
<path d="M80.627 44.7283V40.319H81.2935V40.9367C81.4342 40.7227 81.6177 40.5453 81.8439 40.4169C82.0702 40.2885 82.3332 40.2212 82.6267 40.2212C82.9508 40.2212 83.2199 40.2885 83.4278 40.423C83.6358 40.5575 83.7825 40.7471 83.8681 40.9917C84.2167 40.478 84.6693 40.2212 85.2319 40.2212C85.6722 40.2212 86.0086 40.3435 86.2409 40.582C86.4733 40.8266 86.5956 41.1997 86.5956 41.7011V44.7283H85.8496V41.9519C85.8496 41.6522 85.8251 41.4382 85.7762 41.3036C85.7272 41.1752 85.6416 41.0651 85.5132 40.9856C85.3848 40.9061 85.238 40.8633 85.0668 40.8633C84.7549 40.8633 84.498 40.9673 84.2962 41.1752C84.0944 41.3831 83.9905 41.7134 83.9905 42.1659V44.7283H83.2444V41.8663C83.2444 41.536 83.1832 41.2853 83.0609 41.1202C82.9386 40.955 82.7368 40.8694 82.4616 40.8694C82.2537 40.8694 82.058 40.9245 81.8806 41.0345C81.7033 41.1446 81.5748 41.3097 81.4953 41.5177C81.4158 41.7317 81.373 42.0375 81.373 42.4411V44.7283H80.627Z" fill="#FCFCFD"/>
<path d="M90.7298 43.3095L91.5003 43.4073C91.378 43.8599 91.1517 44.2084 90.8215 44.4592C90.4913 44.7099 90.0693 44.8322 89.5617 44.8322C88.9196 44.8322 88.4059 44.6304 88.0267 44.239C87.6476 43.8415 87.458 43.285 87.458 42.5695C87.458 41.8295 87.6476 41.2547 88.0329 40.8449C88.412 40.4352 88.9074 40.2334 89.5189 40.2334C90.106 40.2334 90.5891 40.4352 90.9622 40.8327C91.3352 41.2363 91.5248 41.799 91.5248 42.5267C91.5248 42.5695 91.5248 42.6368 91.5187 42.7285H88.2286C88.2591 43.2116 88.3937 43.5847 88.6383 43.8415C88.8829 44.0984 89.1887 44.2268 89.5617 44.2268C89.8369 44.2268 90.0693 44.1534 90.265 44.0128C90.4607 43.8538 90.6136 43.6275 90.7298 43.3095ZM88.2775 42.0986H90.742C90.7114 41.7256 90.6136 41.4504 90.4607 41.2669C90.2222 40.9795 89.9164 40.8327 89.5373 40.8327C89.1948 40.8327 88.9074 40.9489 88.6689 41.1752C88.4304 41.4076 88.3019 41.7195 88.2775 42.0986Z" fill="#FCFCFD"/>
<path d="M92.4414 44.7283V40.319H93.1141V40.9428C93.4382 40.4597 93.903 40.2151 94.5145 40.2151C94.7775 40.2151 95.0221 40.264 95.2484 40.3557C95.4686 40.4536 95.6398 40.5759 95.7499 40.7288C95.86 40.8817 95.9394 41.0651 95.9823 41.2792C96.0067 41.4198 96.0251 41.6583 96.0251 42.0069V44.7161H95.279V42.0314C95.279 41.7256 95.2484 41.4993 95.1934 41.3464C95.1383 41.1936 95.0344 41.0774 94.8815 40.9856C94.7347 40.8939 94.5574 40.8511 94.3617 40.8511C94.0437 40.8511 93.7685 40.9551 93.5361 41.1569C93.3037 41.3587 93.1875 41.744 93.1875 42.3066V44.7161H92.4414V44.7283Z" fill="#FCFCFD"/>
<path d="M98.8014 44.0618L98.9114 44.7223C98.7035 44.7651 98.5139 44.7896 98.3488 44.7896C98.0797 44.7896 97.8657 44.7468 97.7189 44.6611C97.5721 44.5755 97.4621 44.4593 97.4009 44.3248C97.3398 44.1902 97.3092 43.8906 97.3092 43.4442V40.9062H96.7588V40.3253H97.3092V39.2306L98.0492 38.7842V40.3253H98.8014V40.9062H98.0492V43.487C98.0492 43.701 98.0614 43.8355 98.0858 43.8967C98.1103 43.9579 98.1531 44.0068 98.2143 44.0435C98.2754 44.0802 98.361 44.0985 98.4711 44.0985C98.5567 44.0924 98.6607 44.0802 98.8014 44.0618Z" fill="#FCFCFD"/>
<path d="M99.2295 43.4135L99.9695 43.2973C100.012 43.5908 100.128 43.8232 100.318 43.9761C100.508 44.1351 100.771 44.2146 101.113 44.2146C101.456 44.2146 101.712 44.1473 101.877 44.0067C102.043 43.866 102.128 43.7009 102.128 43.5174C102.128 43.3462 102.055 43.2178 101.908 43.1199C101.804 43.0527 101.553 42.967 101.144 42.8692C100.593 42.7285 100.214 42.6123 100.006 42.5084C99.7921 42.4044 99.6331 42.2699 99.523 42.0864C99.413 41.9091 99.3579 41.7134 99.3579 41.4932C99.3579 41.2975 99.4007 41.1141 99.4925 40.9489C99.5842 40.7838 99.7065 40.6432 99.8594 40.5331C99.9756 40.4475 100.135 40.3741 100.336 40.3129C100.538 40.2518 100.752 40.2212 100.979 40.2212C101.327 40.2212 101.627 40.2701 101.89 40.368C102.153 40.4658 102.342 40.6004 102.471 40.7716C102.599 40.9428 102.679 41.1691 102.728 41.4565L102 41.5544C101.969 41.3281 101.871 41.1507 101.712 41.0223C101.553 40.8939 101.327 40.8327 101.04 40.8327C100.697 40.8327 100.453 40.8878 100.306 41.004C100.159 41.1202 100.086 41.2486 100.086 41.4015C100.086 41.4993 100.116 41.5849 100.177 41.6644C100.239 41.7439 100.336 41.8112 100.465 41.8663C100.538 41.8907 100.758 41.958 101.125 42.0558C101.651 42.1965 102.024 42.3127 102.232 42.4044C102.44 42.4961 102.605 42.6246 102.721 42.7958C102.838 42.967 102.899 43.1811 102.899 43.4318C102.899 43.6825 102.825 43.9149 102.679 44.1351C102.532 44.3552 102.324 44.5265 102.049 44.6427C101.774 44.765 101.462 44.8261 101.119 44.8261C100.544 44.8261 100.11 44.7099 99.8105 44.4714C99.5047 44.2329 99.3151 43.8782 99.2295 43.4135Z" fill="#FCFCFD"/>
<path d="M106.238 44.7284V38.6436H108.336C108.807 38.6436 109.168 38.6741 109.418 38.7292C109.767 38.8087 110.067 38.9554 110.311 39.1634C110.629 39.4325 110.874 39.781 111.033 40.203C111.192 40.625 111.271 41.1081 111.271 41.6524C111.271 42.1171 111.216 42.5269 111.112 42.8816C111.002 43.2363 110.868 43.5359 110.696 43.7683C110.525 44.0007 110.342 44.1842 110.14 44.3187C109.938 44.4532 109.7 44.5572 109.412 44.6245C109.125 44.6917 108.801 44.7284 108.434 44.7284H106.238ZM107.046 44.0129H108.342C108.746 44.0129 109.058 43.9762 109.284 43.9029C109.51 43.8295 109.694 43.7255 109.828 43.5848C110.018 43.3953 110.171 43.1384 110.274 42.8143C110.378 42.4902 110.433 42.0988 110.433 41.6401C110.433 41.0041 110.33 40.5149 110.122 40.1724C109.914 39.83 109.657 39.6037 109.357 39.4875C109.143 39.4019 108.795 39.3652 108.318 39.3652H107.039V44.0129H107.046Z" fill="#FCFCFD"/>
<path d="M112.286 39.4997V38.6375H113.032V39.4997H112.286ZM112.286 44.7285V40.3192H113.032V44.7285H112.286Z" fill="#FCFCFD"/>
<path d="M114.164 44.7283V40.319H114.837V40.9856C115.008 40.6737 115.167 40.4658 115.314 40.368C115.461 40.2701 115.62 40.2212 115.791 40.2212C116.042 40.2212 116.298 40.3007 116.561 40.4597L116.304 41.1507C116.121 41.0407 115.938 40.9917 115.754 40.9917C115.589 40.9917 115.442 41.0407 115.314 41.1385C115.185 41.2364 115.094 41.3709 115.032 41.5483C114.947 41.8112 114.91 42.1048 114.91 42.4228V44.7283H114.164Z" fill="#FCFCFD"/>
<path d="M120.023 43.3095L120.793 43.4073C120.671 43.8599 120.445 44.2084 120.114 44.4592C119.784 44.7099 119.362 44.8322 118.855 44.8322C118.213 44.8322 117.699 44.6304 117.32 44.239C116.941 43.8415 116.751 43.285 116.751 42.5695C116.751 41.8295 116.941 41.2547 117.326 40.8449C117.705 40.4352 118.2 40.2334 118.812 40.2334C119.399 40.2334 119.882 40.4352 120.255 40.8327C120.628 41.2363 120.818 41.799 120.818 42.5267C120.818 42.5695 120.818 42.6368 120.812 42.7285H117.522C117.552 43.2116 117.687 43.5847 117.931 43.8415C118.176 44.0984 118.482 44.2268 118.855 44.2268C119.13 44.2268 119.362 44.1534 119.558 44.0128C119.754 43.8538 119.907 43.6275 120.023 43.3095ZM117.57 42.0986H120.035C120.004 41.7256 119.907 41.4504 119.754 41.2669C119.515 40.9795 119.209 40.8327 118.83 40.8327C118.488 40.8327 118.2 40.9489 117.962 41.1752C117.723 41.4076 117.595 41.7195 117.57 42.0986Z" fill="#FCFCFD"/>
<path d="M124.609 43.1138L125.342 43.2117C125.263 43.7192 125.055 44.1167 124.725 44.3981C124.395 44.6855 123.985 44.8261 123.508 44.8261C122.902 44.8261 122.419 44.6304 122.052 44.2329C121.685 43.8416 121.502 43.2728 121.502 42.539C121.502 42.0619 121.581 41.6461 121.74 41.2914C121.899 40.9367 122.138 40.6676 122.462 40.4903C122.786 40.3129 123.135 40.2212 123.514 40.2212C123.991 40.2212 124.382 40.3435 124.688 40.582C124.994 40.8266 125.19 41.1691 125.275 41.6155L124.547 41.7256C124.48 41.4321 124.358 41.2058 124.181 41.059C124.003 40.9122 123.795 40.8327 123.545 40.8327C123.165 40.8327 122.86 40.9673 122.627 41.2364C122.395 41.5054 122.273 41.9335 122.273 42.5145C122.273 43.1077 122.389 43.5358 122.615 43.8049C122.841 44.0739 123.141 44.2085 123.502 44.2085C123.795 44.2085 124.04 44.1167 124.236 43.9394C124.431 43.762 124.554 43.4869 124.609 43.1138Z" fill="#FCFCFD"/>
<path d="M127.612 44.0618L127.722 44.7223C127.514 44.7651 127.324 44.7896 127.159 44.7896C126.89 44.7896 126.676 44.7468 126.529 44.6611C126.383 44.5755 126.273 44.4593 126.211 44.3248C126.15 44.1902 126.12 43.8906 126.12 43.4442V40.9062H125.569V40.3253H126.12V39.2306L126.86 38.7842V40.3253H127.612V40.9062H126.86V43.487C126.86 43.701 126.872 43.8355 126.896 43.8967C126.921 43.9579 126.964 44.0068 127.025 44.0435C127.086 44.0802 127.172 44.0985 127.282 44.0985C127.367 44.0924 127.477 44.0802 127.612 44.0618Z" fill="#FCFCFD"/>
<path d="M128.352 39.4997V38.6375H129.098V39.4997H128.352ZM128.352 44.7285V40.3192H129.098V44.7285H128.352Z" fill="#FCFCFD"/>
<path d="M131.458 44.7283L129.782 40.3191H130.571L131.519 42.961C131.623 43.2484 131.715 43.5419 131.8 43.8477C131.868 43.6153 131.959 43.334 132.082 43.0099L133.06 40.3191H133.831L132.161 44.7283H131.458Z" fill="#FCFCFD"/>
<path d="M137.506 43.3095L138.277 43.4073C138.154 43.8599 137.928 44.2084 137.598 44.4592C137.268 44.7099 136.846 44.8322 136.338 44.8322C135.696 44.8322 135.182 44.6304 134.803 44.239C134.424 43.8415 134.234 43.285 134.234 42.5695C134.234 41.8295 134.424 41.2547 134.809 40.8449C135.188 40.4352 135.684 40.2334 136.295 40.2334C136.882 40.2334 137.365 40.4352 137.739 40.8327C138.112 41.2363 138.301 41.799 138.301 42.5267C138.301 42.5695 138.301 42.6368 138.295 42.7285H135.005C135.035 43.2116 135.17 43.5847 135.415 43.8415C135.659 44.0984 135.965 44.2268 136.338 44.2268C136.613 44.2268 136.846 44.1534 137.041 44.0128C137.237 43.8538 137.39 43.6275 137.506 43.3095ZM135.048 42.0986H137.512C137.482 41.7256 137.384 41.4504 137.231 41.2669C136.992 40.9795 136.687 40.8327 136.308 40.8327C135.965 40.8327 135.678 40.9489 135.439 41.1752C135.207 41.4076 135.078 41.7195 135.048 42.0986Z" fill="#FCFCFD"/>
<path d="M26.9261 6.33562L26.1617 3.98728L28.351 2.39726H25.648L24.8713 0L24.0885 2.39726H21.5078L23.5993 3.91389L22.7737 6.45181L24.9325 4.88625L26.9261 6.33562Z" fill="#FCFCFD"/>
<path d="M37.5062 9.02653L36.7418 6.6782L38.9311 5.08818H36.2281L35.4514 2.69092L34.6686 5.08818H32.0879L34.1794 6.60481L33.3538 9.14273L35.5125 7.57105L37.5062 9.02653Z" fill="#FCFCFD"/>
<path d="M15.9183 9.02653L15.1539 6.6782L17.3432 5.08818H14.6402L13.8635 2.69092L13.0807 5.08818H10.5L12.5915 6.60481L11.7659 9.14273L13.9185 7.57105L15.9183 9.02653Z" fill="#FCFCFD"/>
<path d="M45.7494 17.3251L44.9849 14.9768L47.1743 13.3868H44.4712L43.6884 10.9895L42.9118 13.3868H40.3311L42.4164 14.9034L41.597 17.4413L43.7496 15.8696L45.7494 17.3251Z" fill="#FCFCFD"/>
<path d="M7.93197 17.3251L7.16754 14.9768L9.35687 13.3868H6.65384L5.87106 10.9895L5.0944 13.3868H2.51367L4.59904 14.9034L3.77957 17.4413L5.93221 15.8696L7.93197 17.3251Z" fill="#FCFCFD"/>
<path d="M48.4954 28.1984L47.731 25.8501L49.9203 24.2601H47.2173L46.4407 21.8628L45.6579 24.2601H43.0771L45.1686 25.7767L44.343 28.3146L46.5018 26.7429L48.4954 28.1984Z" fill="#FCFCFD"/>
<path d="M5.4183 28.1984L4.65386 25.8501L6.8432 24.2601H4.14017L3.35739 21.8628L2.58072 24.2601H0L2.08537 25.7767L1.2659 28.3146L3.41854 26.7429L5.4183 28.1984Z" fill="#FCFCFD"/>
<path d="M45.7494 39.0656L44.9849 36.7173L47.1743 35.1272H44.4712L43.6884 32.73L42.9118 35.1272H40.3311L42.4164 36.65L41.597 39.1818L43.7496 37.6162L45.7494 39.0656Z" fill="#FCFCFD"/>
<path d="M7.93197 39.0656L7.16754 36.7173L9.35687 35.1272H6.65384L5.87106 32.73L5.0944 35.1272H2.51367L4.59904 36.65L3.77957 39.1818L5.93221 37.6162L7.93197 39.0656Z" fill="#FCFCFD"/>
<path d="M37.4515 46.9606L36.6871 44.6123L38.8764 43.0223H36.1673L35.3906 40.625L34.6139 43.0223H32.0332L34.1186 44.5389L33.293 47.0768L35.4517 45.5051L37.4515 46.9606Z" fill="#FCFCFD"/>
<path d="M15.9369 46.9606L15.1785 44.6123L17.3618 43.0223H14.6587L13.8821 40.625L13.0993 43.0223H10.5186L12.61 44.5389L11.7845 47.0768L13.9432 45.5051L15.9369 46.9606Z" fill="#FCFCFD"/>
<path d="M26.9876 49.8837L26.2232 47.5354L28.4125 45.9454H25.7095L24.9267 43.5481L24.1501 45.9454H21.5693L23.6547 47.462L22.8352 49.9999L24.9879 48.4282L26.9876 49.8837Z" fill="#FCFCFD"/>
</g>
<defs>
<clipPath id="clip0_3232_36131">
<rect width="138.301" height="50" fill="white"/>
</clipPath>
</defs>
</svg>
