<svg width="87" height="86" viewBox="0 0 87 86" fill="none" xmlns="http://www.w3.org/2000/svg">
<rect x="0.683594" width="86" height="86" rx="15" fill="#5952FF"/>
<path fill-rule="evenodd" clip-rule="evenodd" d="M39.7551 9.57812C50.6169 9.57812 67.0291 12.9138 74.6687 20.5633C76.6042 22.5028 79.1367 26.3014 79.1367 31.865C79.1367 41.7564 71.1769 56.9324 62.3882 65.7347C57.8445 70.2846 50.6169 76.2308 40.8946 76.2308C31.3904 76.2308 24.1319 69.7672 22.0306 67.6624C13.9809 59.6018 8.21484 47.3669 8.21484 35.9589C8.21484 28.7609 10.264 22.465 15.4923 17.2323C20.3344 12.3847 28.6778 9.57812 39.7551 9.57812ZM53.1991 49.0254C56.866 45.352 57.8541 40.8278 57.8541 38.3379C57.8541 36.5331 57.3801 33.8849 55.125 31.6287C51.6664 28.1656 47.8355 27.1874 43.6686 27.1874C38.3906 27.1874 34.8443 28.8576 32.4824 31.2246C30.6298 33.0792 29.0285 35.9306 29.0285 39.9821C29.0285 44.0313 31.1843 47.9434 33.5342 50.294C35.7043 52.4674 39.1156 54.0761 42.5506 54.0761C45.9856 54.0761 49.5319 52.6989 53.1991 49.0254Z" fill="white"/>
</svg>
