<svg width="30" height="30" viewBox="0 0 30 30" fill="none" xmlns="http://www.w3.org/2000/svg">
<g clip-path="url(#clip0_5487_51520)">
<path d="M8.62664 12.1968C9.09899 11.2694 9.80143 10.2425 10.5909 9.27739C8.55226 9.1108 5.57113 8.84809 4.31848 10.7697C3.00275 12.7881 2.83401 13.0466 2.83401 13.0466C1.77534 14.6525 3.3703 16.3501 6.37883 16.8194L7.00037 16.9164C7.39313 16.9777 7.78197 16.9942 8.16124 16.9716C7.52492 16.0065 7.68324 14.0483 8.62664 12.1968Z" stroke="#4EEF71" stroke-width="1.5" stroke-linecap="round"/>
<path d="M12.6492 21.2139C12.6336 21.2087 12.6179 21.2034 12.6018 21.1978M19.905 18.5737C18.9229 19.381 17.873 20.0943 16.9274 20.5623C15.3698 21.3335 13.744 21.5562 12.7006 21.2304C13.7557 21.5497 15.4207 21.2965 17.0239 20.4832C19.2648 19.3462 22.0963 16.8688 23.3155 14.9789C24.5351 13.0886 25.5976 9.69299 25.6777 7.433C25.7573 5.17344 23.9731 3.38929 21.7135 3.46888C19.454 3.54848 16.0858 4.60888 14.229 5.82543C12.3722 7.04198 9.89515 9.87305 8.72471 12.1169C7.55383 14.3613 7.49641 16.7387 8.59683 17.4007C9.69725 18.0627 11.1269 19.4924 11.7741 20.578C11.8785 20.7528 12.0286 20.8985 12.2147 21.0151C12.1912 21.397 12.2078 21.7884 12.2695 22.1842L12.3665 22.8058C12.8358 25.8143 14.5334 27.4093 16.1393 26.3506C16.1393 26.3506 16.1393 26.3506 18.4162 24.8661C20.3422 23.6091 20.0716 20.6123 19.905 18.5737Z" stroke="#4EEF71" stroke-width="1.5" stroke-linecap="round"/>
<path d="M16.8295 12.3563C17.8384 13.3652 19.4741 13.3652 20.483 12.3563C21.4919 11.3474 21.4919 9.71166 20.483 8.70276C19.4741 7.69385 17.8384 7.69385 16.8295 8.70276C15.8206 9.71166 15.8206 11.3474 16.8295 12.3563Z" stroke="#4EEF71" stroke-width="1.5" stroke-linecap="round"/>
<path d="M1.58627 22.2257L3.37695 20.4351" stroke="#4EEF71" stroke-width="1.5" stroke-linecap="round"/>
<path d="M6.03593 23.1286L7.82617 21.3384" stroke="#4EEF71" stroke-width="1.5" stroke-linecap="round"/>
<path d="M6.94999 27.6086L8.74023 25.8184" stroke="#4EEF71" stroke-width="1.5" stroke-linecap="round"/>
</g>
<defs>
<clipPath id="clip0_5487_51520">
<rect width="30" height="30" fill="white"/>
</clipPath>
</defs>
</svg>
