<svg width="40" height="40" viewBox="0 0 40 40" fill="none" xmlns="http://www.w3.org/2000/svg">
<path d="M20.7507 13.3335C20.7507 12.9193 20.4149 12.5835 20.0007 12.5835C19.5864 12.5835 19.2507 12.9193 19.2507 13.3335L20.7507 13.3335ZM23.9559 24.8164C24.3146 25.0235 24.7733 24.9005 24.9804 24.5418C25.1875 24.1831 25.0646 23.7244 24.7059 23.5173L23.9559 24.8164ZM4.53213 4.83118C4.20868 5.08994 4.15624 5.5619 4.415 5.88535C4.67376 6.2088 5.14573 6.26124 5.46917 6.00248L4.53213 4.83118ZM9.63584 2.66915C9.95929 2.41039 10.0117 1.93842 9.75297 1.61497C9.49421 1.29153 9.02224 1.23909 8.6988 1.49784L9.63584 2.66915ZM34.5321 6.00248C34.8556 6.26124 35.3275 6.2088 35.5863 5.88535C35.8451 5.5619 35.7926 5.08994 35.4692 4.83118L34.5321 6.00248ZM31.3025 1.49784C30.9791 1.23909 30.5071 1.29153 30.2483 1.61497C29.9896 1.93842 30.042 2.41039 30.3655 2.66915L31.3025 1.49784ZM22.0007 22.8215L22.3757 22.172L22.0007 22.8215ZM20.2686 21.5121L20.9181 21.1371L20.2686 21.5121ZM19.2507 13.3335L19.2507 19.3574H20.7507V13.3335L19.2507 13.3335ZM24.7059 23.5173L22.3757 22.172L21.6257 23.471L23.9559 24.8164L24.7059 23.5173ZM35.9173 20.0002C35.9173 28.7907 28.7912 35.9168 20.0007 35.9168V37.4168C29.6196 37.4168 37.4173 29.6191 37.4173 20.0002H35.9173ZM20.0007 35.9168C11.2101 35.9168 4.08398 28.7907 4.08398 20.0002H2.58398C2.58398 29.6191 10.3817 37.4168 20.0007 37.4168V35.9168ZM4.08398 20.0002C4.08398 11.2096 11.2101 4.0835 20.0007 4.0835V2.5835C10.3817 2.5835 2.58398 10.3812 2.58398 20.0002H4.08398ZM20.0007 4.0835C28.7912 4.0835 35.9173 11.2096 35.9173 20.0002H37.4173C37.4173 10.3812 29.6196 2.5835 20.0007 2.5835V4.0835ZM5.46917 6.00248L9.63584 2.66915L8.6988 1.49784L4.53213 4.83118L5.46917 6.00248ZM35.4692 4.83118L31.3025 1.49784L30.3655 2.66915L34.5321 6.00248L35.4692 4.83118ZM19.2507 19.3574C19.2507 19.9064 19.2498 20.372 19.2878 20.757C19.3273 21.1584 19.4131 21.5304 19.6191 21.8871L20.9181 21.1371C20.8561 21.0297 20.8079 20.888 20.7805 20.6098C20.7515 20.3152 20.7507 19.9355 20.7507 19.3574H19.2507ZM22.3757 22.172C21.875 21.8829 21.5466 21.6924 21.306 21.5199C21.0788 21.3571 20.9801 21.2445 20.9181 21.1371L19.6191 21.8871C19.825 22.2438 20.1043 22.5042 20.4322 22.7391C20.7466 22.9645 21.1503 23.1966 21.6257 23.471L22.3757 22.172Z" fill="#92A6B9"/>
</svg>
