<svg width="69" height="84" viewBox="0 0 69 84" fill="none" xmlns="http://www.w3.org/2000/svg">
<path d="M54.2064 22.9571H65.0838V67.3366C65.0838 69.4467 63.3727 71.1573 61.262 71.1573H54.7805L51.8286 74.6842H61.262C65.3211 74.6842 68.6116 71.3946 68.6116 67.3366V20.8997L48.9146 0.620361H18.6342C14.5752 0.620361 11.2846 3.90999 11.2846 7.96796V17.079H14.8124V7.96796C14.8124 5.85782 16.5235 4.14721 18.6342 4.14721H46.8568V15.6095C46.8568 19.6674 50.1473 22.9571 54.2064 22.9571Z" fill="#D6E1EC"/>
<path d="M10.3484 28.8895V32.7914H11.9004C12.5598 32.7914 13.0721 32.6215 13.4373 32.2818C13.8024 31.9421 13.985 31.4603 13.985 30.8367C13.985 30.213 13.8024 29.7338 13.4373 29.3991C13.0771 29.0594 12.5674 28.8895 11.908 28.8895H10.3484Z" fill="#D6E1EC"/>
<path d="M19.9801 28.9656V36.1456H21.6006C22.6303 36.1456 23.4139 35.8388 23.9515 35.2253C24.4942 34.6067 24.7656 33.7066 24.7656 32.5252C24.7656 31.3792 24.4917 30.4995 23.9439 29.8859C23.3961 29.2724 22.615 28.9656 21.6006 28.9656H19.9801Z" fill="#D6E1EC"/>
<path fill-rule="evenodd" clip-rule="evenodd" d="M0.701172 29.1291C0.701172 24.2595 4.64981 20.3119 9.52071 20.3119H34.5094C39.3803 20.3119 43.3289 24.2595 43.3289 29.1291V35.8889C43.3289 40.7584 39.3803 44.706 34.5094 44.706H9.52071C4.64981 44.706 0.701172 40.7584 0.701172 35.8889V29.1291ZM12.5167 27.0717H8.05079V38.0471H10.3484V34.5864H12.4026C13.5641 34.5864 14.5074 34.2416 15.2327 33.552C15.958 32.8573 16.3207 31.9497 16.3207 30.8291C16.3207 29.7034 15.9682 28.7957 15.2632 28.1061C14.5632 27.4165 13.6477 27.0717 12.5167 27.0717ZM21.8745 27.0717H17.6825V38.0471H21.8745C23.5229 38.0471 24.8061 37.5603 25.7242 36.5867C26.6473 35.6132 27.1088 34.2568 27.1088 32.5176C27.1088 30.7834 26.6498 29.4422 25.7318 28.494C24.8137 27.5458 23.528 27.0717 21.8745 27.0717ZM30.89 38.0471H28.5924V27.0717H35.7819V28.9656H30.89V31.9091H35.3559V33.7269H30.89V38.0471Z" fill="#D6E1EC"/>
<path d="M40.0951 83.2074L28.0417 68.8061H33.6274V53.5231H46.5628V68.8061H52.1485L40.0951 83.2074Z" fill="#D6E1EC"/>
<path d="M18.6342 71.1573H25.4098L28.3616 74.6842H18.6342C14.5752 74.6842 11.2846 71.3946 11.2846 67.3366V47.9389H14.8124V67.3366C14.8124 69.4467 16.5235 71.1573 18.6342 71.1573Z" fill="#D6E1EC"/>
</svg>
