<svg width="191" height="44" viewBox="0 0 191 44" fill="none" xmlns="http://www.w3.org/2000/svg">
<g clip-path="url(#clip0_2911_34803)">
<path d="M96.3104 15.8389L95.869 17.5175L91.5986 28.1712H85.4292L81.1588 17.5175L80.7174 15.8389H84.4488L87.667 25.4164H89.3556L92.5738 15.8389H96.3104ZM148.16 28.1712V12.0645H144.537L144.809 14.2684V28.1712H148.16ZM181.533 23.022C182.067 23.022 182.554 23.089 182.955 23.4803C183.134 23.6554 186.876 28.1712 186.876 28.1712H190.618L190.151 27.2598L185.038 21.4876L189.714 16.7194L190.156 15.8389H186.568C186.07 16.3899 183.868 18.7842 183.411 19.2837C182.955 19.778 182.642 20.1076 182.477 20.2724C182.221 20.5298 181.928 20.6585 181.6 20.6585H180.003V12.0645H176.38L176.652 14.2684V28.1712H179.998V23.5936C179.998 23.2795 180.255 23.022 180.568 23.022H181.533ZM162.019 18.7791C162.019 18.465 162.275 18.2075 162.588 18.2075H168.824C169.702 18.2075 170.144 18.5731 170.144 19.3095V28.1712H173.49V19.3609C173.49 19.088 173.464 18.7533 173.423 18.3569C173.377 17.9604 173.249 17.5742 173.038 17.188C172.828 16.8018 172.474 16.4825 171.981 16.2251C171.488 15.9676 170.785 15.8389 169.866 15.8389H168.496C167.105 15.8389 165.868 15.8955 164.79 16.0037C163.712 16.1169 162.788 16.2457 162.019 16.3899L160.92 15.8389H158.672H158.4L158.672 18.0427V28.1712H162.019V18.7791ZM153.401 14.1036C154.099 14.1036 154.597 13.9594 154.91 13.6762C155.223 13.393 155.377 12.9399 155.377 12.3168C155.377 11.6577 155.223 11.1943 154.91 10.9265C154.597 10.6588 154.094 10.5249 153.401 10.5249C152.708 10.5249 152.21 10.6588 151.907 10.9265C151.604 11.1943 151.456 11.6577 151.456 12.3168C151.456 12.9605 151.61 13.4188 151.923 13.6917C152.231 13.9646 152.723 14.1036 153.401 14.1036ZM151.456 15.8389L151.728 18.0427V28.1712H155.074V15.8389H151.456ZM58.801 14.1036C59.499 14.1036 59.9969 13.9594 60.31 13.6762C60.6231 13.393 60.7771 12.9399 60.7771 12.3168C60.7771 11.6577 60.6231 11.1943 60.31 10.9265C59.9969 10.6588 59.4939 10.5249 58.801 10.5249C58.1081 10.5249 57.6102 10.6588 57.3074 10.9265C57.0046 11.1943 56.8557 11.6577 56.8557 12.3168C56.8557 12.9605 57.0097 13.4188 57.3228 13.6917C57.6307 13.9646 58.1235 14.1036 58.801 14.1036ZM56.8506 15.8389L57.1226 18.0427V28.1712H60.4691V15.8389H56.8506ZM142.13 25.8026H138.26C137.818 25.8026 137.49 25.7305 137.269 25.5812C137.048 25.437 136.94 25.1332 136.94 24.6749V18.2075H141.811L142.124 15.8389H136.94V12.0697H134.143L133.594 15.015C133.522 15.3446 133.404 15.566 133.25 15.6741C133.096 15.7874 132.845 15.8389 132.496 15.8389H131.659L131.346 18.2075H133.594V24.6492C133.594 25.8232 133.851 26.7037 134.364 27.2907C134.877 27.8777 135.827 28.1712 137.218 28.1712H138.07C139.004 28.1712 139.861 28.1403 140.646 28.0734C141.431 28.0116 142.017 27.9498 142.402 27.8932L142.13 25.8026ZM128.903 21.4309C128.297 20.9263 127.399 20.6482 126.157 20.6482H119.402C118.956 20.6482 118.658 20.535 118.55 20.3135C118.422 20.0715 118.365 19.7935 118.365 19.4382C118.365 19.1035 118.422 18.8254 118.55 18.5628C118.663 18.3208 118.956 18.2075 119.402 18.2075H120.773C122.851 18.2075 124.596 18.2281 126.023 18.3002C127.255 18.3466 128.123 18.398 128.687 18.4444C128.774 18.4598 128.882 18.4753 128.954 18.4856L129.272 16.086C129.272 16.086 127.501 15.8234 126.141 15.8234C125.921 15.8234 122.928 15.8234 120.793 15.8234H118.643C117.77 15.8234 117.082 15.9522 116.584 16.1787C116.081 16.4002 115.732 16.6988 115.506 17.0335C115.286 17.3888 115.152 17.7389 115.096 18.0942C115.039 18.4289 115.024 18.743 115.024 18.9851V20.1024C115.024 21.0705 115.301 21.7965 115.861 22.2805C116.435 22.7646 117.365 23.0066 118.643 23.0066H125.397C125.808 23.0066 126.085 23.1353 126.234 23.3979C126.362 23.6605 126.439 23.9952 126.439 24.4226C126.439 24.85 126.383 25.1847 126.254 25.4267C126.203 25.5348 126.105 25.6121 125.982 25.6739C125.705 25.782 125.11 25.7769 124.894 25.7769H123.524C121.445 25.7769 119.7 25.7563 118.273 25.6842C117.041 25.6378 116.174 25.5863 115.609 25.54C115.522 25.5245 115.414 25.5091 115.342 25.4988L115.024 27.8983C115.024 27.8983 116.795 28.1609 118.155 28.1609C118.376 28.1609 121.368 28.1609 123.503 28.1609C124.714 28.1609 125.654 28.1609 125.654 28.1609H126.162C127.055 28.1609 127.758 28.0683 128.256 27.8623C128.738 27.6563 129.093 27.3989 129.313 27.0796C129.534 26.7449 129.667 26.4102 129.719 26.0395C129.755 25.6687 129.775 25.334 129.775 24.9993V23.3773C129.775 22.5895 129.503 21.9304 128.903 21.4309ZM101.304 23.1868V24.7007C101.289 25.3958 101.695 25.7511 102.5 25.7872H103.435C105.513 25.7872 107.258 25.7666 108.685 25.6945C109.917 25.6481 110.784 25.5966 111.349 25.5503C111.436 25.5348 111.544 25.5194 111.616 25.5091L111.934 27.9086C111.934 27.9086 110.163 28.1712 108.803 28.1712C108.583 28.1712 105.59 28.1712 103.455 28.1712C102.849 28.1712 102.382 28.1712 102.064 28.1712H101.582C100.668 28.1712 99.9648 28.0528 99.467 27.8108C98.9742 27.5739 98.6201 27.2701 98.4096 26.9045C98.1992 26.5389 98.0709 26.1528 98.0247 25.7511C97.9785 25.3495 97.958 24.9787 97.958 24.6492V19.3609C97.958 19.088 97.9785 18.7533 98.0247 18.3569C98.0709 17.9604 98.1992 17.5742 98.4096 17.188C98.6201 16.8018 98.9742 16.4825 99.4824 16.2251C99.9854 15.9676 100.683 15.8389 101.582 15.8389H107.479C108.685 15.8389 109.635 15.9573 110.317 16.1839C111.005 16.4104 111.488 16.7863 111.77 17.2961C112.052 17.811 112.196 18.501 112.196 19.3609V23.434H107.392C105.744 23.434 104.405 23.3979 103.373 23.3207C102.341 23.2537 101.653 23.2074 101.304 23.1868ZM101.304 21.0705H108.849V19.3095C108.849 18.9439 108.839 18.6864 108.726 18.5371C108.572 18.3311 108.403 18.3002 107.997 18.259C107.592 18.223 106.909 18.2024 105.939 18.2024H102.618C101.741 18.2024 101.299 18.568 101.299 19.3043V21.0705H101.304ZM67.4136 18.7791C67.4136 18.465 67.6702 18.2075 67.9833 18.2075H74.2195C75.0972 18.2075 75.5386 18.5731 75.5386 19.3095V28.1712H78.885V19.3609C78.885 19.088 78.8594 18.7533 78.8183 18.3569C78.7721 17.9604 78.6438 17.5742 78.4334 17.188C78.2229 16.8018 77.8688 16.4825 77.376 16.2251C76.8833 15.9676 76.1801 15.8389 75.2614 15.8389H73.891C72.5 15.8389 71.2631 15.8955 70.1852 16.0037C69.1074 16.1169 68.1835 16.2457 67.4136 16.3899L66.3152 15.8389H63.7899L64.062 18.0427V28.1712H67.4084V18.7791H67.4136Z" fill="white"/>
<path d="M28.1993 13.4858L34.1891 2.87326C35.2464 3.52206 36.2473 4.2481 37.1814 5.05652L31.7408 13.5218L32.793 14.8452L42.2473 11.4004C42.8273 12.4868 43.3046 13.63 43.6999 14.8143L32.0436 18.3157L28.1993 13.4858ZM15.7577 29.1342L6.77561 37.3575C7.63789 38.2483 8.57716 39.0516 9.5729 39.7879L16.5841 32.5842L18.1085 33.3205L16.8664 43.3152C18.0469 43.6344 19.2582 43.8816 20.5054 44L21.3164 31.8118L15.7577 29.1342ZM25.7561 12.3066L30.2934 0.988648C29.1437 0.566413 27.9529 0.226565 26.7262 0L23.5183 9.55178H21.8297L18.6218 0C17.3899 0.226565 16.2043 0.566413 15.0546 0.988648L19.5918 12.3066H25.7561ZM17.1487 13.4858L11.1538 2.87326C10.0964 3.52206 9.09556 4.2481 8.16142 5.05652L13.602 13.5218L12.5498 14.8452L3.10063 11.4055C2.52064 12.492 2.03817 13.6351 1.64809 14.8194L13.3043 18.3209L17.1487 13.4858ZM24.0264 31.817L24.8374 44.0051C26.0846 43.8816 27.2959 43.6396 28.4764 43.3203L27.2343 33.3257L28.7587 32.5893L35.7699 39.7931C36.7657 39.0568 37.7101 38.2535 38.5672 37.3627L29.5851 29.1291L24.0264 31.817ZM31.2737 27.0076L41.267 33.9642C41.9445 32.9189 42.5347 31.8273 43.0224 30.6944L34.4508 25.4268L34.8255 23.7739L44.8136 22.7647C44.865 21.5288 44.8085 20.2879 44.6494 19.0572L32.6441 20.9727L31.2737 27.0076ZM12.6987 20.9727L0.683154 19.0521C0.524042 20.293 0.46245 21.5288 0.513777 22.7595L10.5173 23.7739L10.892 25.4268L2.33587 30.6841C2.82347 31.8221 3.41372 32.9138 4.0861 33.9539L14.0742 27.0025L12.6987 20.9727Z" fill="white"/>
</g>
<defs>
<clipPath id="clip0_2911_34803">
<rect width="190.113" height="44" fill="white" transform="translate(0.5)"/>
</clipPath>
</defs>
</svg>
