<svg width="203" height="47" viewBox="0 0 203 47" fill="none" xmlns="http://www.w3.org/2000/svg">
<g clip-path="url(#clip0_3552_36588)">
<path d="M29.581 14.4053L35.9768 3.06916C37.1058 3.7622 38.1745 4.53774 39.172 5.40129L33.3626 14.4438L34.4861 15.8573L44.5813 12.1776C45.2006 13.3382 45.7103 14.5593 46.1323 15.8243L33.686 19.5645L29.581 14.4053ZM26.9723 13.1457L31.8171 1.05606C30.5895 0.605032 29.318 0.242013 28.0081 0L24.5828 10.203H22.7797L19.3543 0C18.039 0.242013 16.773 0.605032 15.5453 1.05606L20.3901 13.1457H26.9723ZM17.7814 14.4053L11.3801 3.06916C10.2511 3.7622 9.18238 4.53774 8.18492 5.40129L13.9943 14.4438L12.8708 15.8573L2.78108 12.1831C2.16178 13.3437 1.64661 14.5648 1.23009 15.8298L13.6764 19.57L17.7814 14.4053ZM25.1253 33.9863L25.9913 47.0055C27.323 46.8735 28.6164 46.615 29.877 46.274L28.5507 35.5979L30.1784 34.8114L37.6649 42.5063C38.7281 41.7197 39.7365 40.8617 40.6518 39.9101L31.0608 31.1152L25.1253 33.9863ZM32.8639 28.849L43.5345 36.2799C44.258 35.1634 44.8882 33.9973 45.4089 32.7872L36.2564 27.1604L36.6564 25.3949L47.3216 24.3168C47.3764 22.9967 47.3161 21.6712 47.1462 20.3566L34.3272 22.4027L32.8639 28.849ZM13.0297 22.4027L0.19974 20.3511C0.0298425 21.6767 -0.0359242 22.9967 0.0188814 24.3113L10.7005 25.3949L11.1006 27.1604L1.96448 32.7762C2.48513 33.9918 3.1154 35.1579 3.83335 36.2689L14.4985 28.8435L13.0297 22.4027Z" fill="#4F4F4F"/>
<path d="M6.70508 39.9047L16.2961 31.1207L22.2315 33.9809L21.3656 47.0001C20.0338 46.8736 18.7404 46.6095 17.4799 46.2685L18.8062 35.5925L17.1784 34.8059L9.69198 42.5008C8.62875 41.7143 7.62581 40.8562 6.70508 39.9047Z" fill="#00C1A2"/>
<path d="M157.331 30.0922V12.8873H153.462L153.752 15.2414V30.0922H157.331ZM192.966 24.5919C193.536 24.5919 194.057 24.6634 194.484 25.0814C194.676 25.2684 198.671 30.0922 198.671 30.0922H202.666L202.168 29.1186L196.709 22.9528L201.702 17.8595L202.173 16.919H198.342C197.811 17.5075 195.46 20.0651 194.972 20.5987C194.484 21.1267 194.15 21.4787 193.974 21.6547C193.7 21.9297 193.388 22.0673 193.037 22.0673H191.333V12.8873H187.463L187.754 15.2414V30.0922H191.327V25.2024C191.327 24.8669 191.601 24.5919 191.936 24.5919H192.966ZM172.129 20.0596C172.129 19.7241 172.403 19.4491 172.737 19.4491H179.396C180.333 19.4491 180.804 19.8396 180.804 20.6262V30.0922H184.378V20.6812C184.378 20.3897 184.35 20.0321 184.307 19.6086C184.257 19.1851 184.12 18.7726 183.896 18.3601C183.671 17.9475 183.293 17.6065 182.767 17.3315C182.24 17.0565 181.49 16.919 180.509 16.919H179.045C177.56 16.919 176.239 16.9795 175.088 17.095C173.937 17.216 172.951 17.3535 172.129 17.5075L170.956 16.919H168.555H168.265L168.555 19.2731V30.0922H172.129V20.0596ZM162.927 15.0654C163.672 15.0654 164.204 14.9114 164.538 14.6089C164.872 14.3063 165.037 13.8223 165.037 13.1568C165.037 12.4527 164.872 11.9577 164.538 11.6717C164.204 11.3857 163.667 11.2427 162.927 11.2427C162.187 11.2427 161.655 11.3857 161.332 11.6717C161.009 11.9577 160.85 12.4527 160.85 13.1568C160.85 13.8443 161.014 14.3338 161.348 14.6254C161.677 14.9169 162.203 15.0654 162.927 15.0654ZM160.85 16.919L161.14 19.2731V30.0922H164.714V16.919H160.85ZM61.9146 15.0654C62.66 15.0654 63.1916 14.9114 63.5259 14.6089C63.8602 14.3063 64.0247 13.8223 64.0247 13.1568C64.0247 12.4527 63.8602 11.9577 63.5259 11.6717C63.1916 11.3857 62.6545 11.2427 61.9146 11.2427C61.1748 11.2427 60.6432 11.3857 60.3198 11.6717C59.9964 11.9577 59.8375 12.4527 59.8375 13.1568C59.8375 13.8443 60.0019 14.3338 60.3362 14.6254C60.6651 14.9169 61.1912 15.0654 61.9146 15.0654ZM59.832 16.919L60.1225 19.2731V30.0922H63.6958V16.919H59.832ZM150.892 27.562H146.759C146.288 27.562 145.937 27.485 145.701 27.3255C145.466 27.1715 145.351 26.847 145.351 26.3575V19.4491H150.552L150.886 16.919H145.351V12.8928H142.364L141.777 16.0389C141.701 16.3909 141.575 16.6275 141.41 16.743C141.246 16.864 140.977 16.919 140.605 16.919H139.711L139.377 19.4491H141.777V26.33C141.777 27.584 142.051 28.5246 142.599 29.1516C143.148 29.7787 144.161 30.0922 145.647 30.0922H146.556C147.554 30.0922 148.469 30.0592 149.308 29.9877C150.146 29.9217 150.771 29.8557 151.182 29.7952L150.892 27.562ZM136.768 22.8923C136.121 22.3533 135.162 22.0563 133.836 22.0563H126.624C126.147 22.0563 125.829 21.9352 125.714 21.6987C125.577 21.4402 125.517 21.1432 125.517 20.7637C125.517 20.4062 125.577 20.1091 125.714 19.8286C125.834 19.5701 126.147 19.4491 126.624 19.4491H128.087C130.307 19.4491 132.17 19.4711 133.694 19.5481C135.009 19.5976 135.935 19.6526 136.538 19.7021C136.631 19.7186 136.746 19.7351 136.823 19.7461L137.163 17.183C137.163 17.183 135.272 16.9025 133.82 16.9025C133.584 16.9025 130.389 16.9025 128.109 16.9025H125.813C124.881 16.9025 124.146 17.04 123.615 17.282C123.078 17.5185 122.705 17.8375 122.464 18.195C122.228 18.5746 122.086 18.9486 122.025 19.3281C121.965 19.6856 121.949 20.0211 121.949 20.2797V21.4732C121.949 22.5073 122.245 23.2828 122.842 23.7998C123.456 24.3169 124.448 24.5754 125.813 24.5754H133.025C133.463 24.5754 133.759 24.7129 133.918 24.9934C134.055 25.2739 134.137 25.6314 134.137 26.088C134.137 26.5445 134.077 26.902 133.94 27.1605C133.885 27.276 133.781 27.3585 133.65 27.4245C133.354 27.54 132.718 27.5345 132.488 27.5345H131.025C128.805 27.5345 126.942 27.5125 125.418 27.4355C124.103 27.386 123.176 27.331 122.574 27.2815C122.48 27.265 122.365 27.2485 122.289 27.2375L121.949 29.8007C121.949 29.8007 123.84 30.0812 125.292 30.0812C125.528 30.0812 128.723 30.0812 131.003 30.0812C132.296 30.0812 133.299 30.0812 133.299 30.0812H133.842C134.795 30.0812 135.546 29.9822 136.078 29.7622C136.593 29.5421 136.971 29.2671 137.207 28.9261C137.442 28.5686 137.585 28.2111 137.64 27.8151C137.678 27.419 137.7 27.0615 137.7 26.704V24.9714C137.7 24.1299 137.409 23.4258 136.768 22.8923ZM107.299 24.7679V26.385C107.283 27.1275 107.716 27.507 108.576 27.5455H109.574C111.793 27.5455 113.657 27.5235 115.18 27.4465C116.496 27.397 117.422 27.342 118.025 27.2925C118.118 27.276 118.233 27.2595 118.31 27.2485L118.649 29.8117C118.649 29.8117 116.759 30.0922 115.306 30.0922C115.071 30.0922 111.875 30.0922 109.596 30.0922C108.949 30.0922 108.45 30.0922 108.11 30.0922H107.595C106.62 30.0922 105.869 29.9657 105.337 29.7072C104.811 29.4541 104.433 29.1296 104.208 28.7391C103.983 28.3486 103.846 27.9361 103.797 27.507C103.748 27.078 103.726 26.682 103.726 26.33V20.6812C103.726 20.3897 103.748 20.0321 103.797 19.6086C103.846 19.1851 103.983 18.7726 104.208 18.3601C104.433 17.9475 104.811 17.6065 105.354 17.3315C105.891 17.0565 106.636 16.919 107.595 16.919H113.892C115.18 16.919 116.194 17.0455 116.923 17.2875C117.657 17.5295 118.173 17.931 118.474 18.4756C118.775 19.0256 118.929 19.7626 118.929 20.6812V25.0319H113.799C112.04 25.0319 110.609 24.9934 109.508 24.9109C108.406 24.8394 107.672 24.7899 107.299 24.7679ZM107.299 22.5073H115.356V20.6262C115.356 20.2357 115.345 19.9606 115.224 19.8011C115.06 19.5811 114.879 19.5481 114.446 19.5041C114.013 19.4656 113.284 19.4436 112.248 19.4436H108.702C107.765 19.4436 107.294 19.8341 107.294 20.6207V22.5073H107.299ZM71.111 20.0596C71.111 19.7241 71.3851 19.4491 71.7194 19.4491H78.3783C79.3154 19.4491 79.7868 19.8396 79.7868 20.6262V30.0922H83.3601V20.6812C83.3601 20.3897 83.3327 20.0321 83.2888 19.6086C83.2395 19.1851 83.1025 18.7726 82.8778 18.3601C82.6531 17.9475 82.2749 17.6065 81.7488 17.3315C81.2227 17.0565 80.4718 16.919 79.4908 16.919H78.0275C76.5423 16.919 75.2215 16.9795 74.0705 17.095C72.9196 17.216 71.9331 17.3535 71.111 17.5075L69.9382 16.919H67.2418L67.5322 19.2731V30.0922H71.1055V20.0596H71.111Z" fill="#4F4F4F"/>
<path d="M101.495 18.7122L101.966 16.9191H97.9765L94.5402 27.1496H92.7371L89.3008 16.9191H85.3164L85.7877 18.7122L90.3476 30.0923H96.9352L101.495 18.7122Z" fill="#4F4F4F"/>
</g>
<defs>
<clipPath id="clip0_3552_36588">
<rect width="203" height="47" fill="white"/>
</clipPath>
</defs>
</svg>
