<svg width="24" height="24" viewBox="0 0 24 24" fill="none" xmlns="http://www.w3.org/2000/svg">
<g clip-path="url(#clip0_2851_38807)">
<path fill-rule="evenodd" clip-rule="evenodd" d="M17.9399 18.8099C17.5257 18.8099 17.1899 18.4742 17.1899 18.0599V6.69013H5.82013C5.40592 6.69013 5.07013 6.35434 5.07013 5.94013C5.07013 5.52591 5.40592 5.19013 5.82013 5.19013H18.6899V18.0599C18.6899 18.4742 18.3542 18.8099 17.9399 18.8099Z" fill="#F6F7FA"/>
<path fill-rule="evenodd" clip-rule="evenodd" d="M18.4096 5.47077C18.7025 5.76366 18.7025 6.23854 18.4096 6.53143L6.41161 18.5294C6.11872 18.8223 5.64384 18.8223 5.35095 18.5294C5.05806 18.2365 5.05806 17.7617 5.35095 17.4688L17.349 5.47077C17.6418 5.17788 18.1167 5.17788 18.4096 5.47077Z" fill="#F6F7FA"/>
</g>
<defs>
<clipPath id="clip0_2851_38807">
<rect width="24" height="24" fill="white"/>
</clipPath>
</defs>
</svg>
