<svg width="24" height="24" viewBox="0 0 24 24" fill="none" xmlns="http://www.w3.org/2000/svg">
<g clip-path="url(#clip0_4020_1162)">
<path fill-rule="evenodd" clip-rule="evenodd" d="M17.9404 18.8099C17.5262 18.8099 17.1904 18.4741 17.1904 18.0599V6.6901H5.82062C5.40641 6.6901 5.07062 6.35431 5.07062 5.9401C5.07062 5.52588 5.40641 5.1901 5.82062 5.1901H18.6904V18.0599C18.6904 18.4741 18.3546 18.8099 17.9404 18.8099Z" fill="#63BE37"/>
<path fill-rule="evenodd" clip-rule="evenodd" d="M18.4101 5.47081C18.703 5.7637 18.703 6.23857 18.4101 6.53147L6.4121 18.5295C6.11921 18.8224 5.64433 18.8224 5.35144 18.5295C5.05855 18.2366 5.05855 17.7617 5.35144 17.4688L17.3494 5.47081C17.6423 5.17791 18.1172 5.17791 18.4101 5.47081Z" fill="#63BE37"/>
</g>
<defs>
<clipPath id="clip0_4020_1162">
<rect width="24" height="24" fill="white"/>
</clipPath>
</defs>
</svg>
