<svg width="35" height="35" viewBox="0 0 35 35" fill="none" xmlns="http://www.w3.org/2000/svg">
<path d="M18.3674 7.59398C18.0871 6.70305 16.9135 6.70305 16.6333 7.59398C16.227 8.88577 15.0468 9.79332 13.6796 9.79332C13.2565 9.79332 12.9409 10.0535 12.8125 10.4615C12.6834 10.8721 12.7889 11.3034 13.1554 11.5784C14.2394 12.392 14.6766 13.8148 14.2719 15.1013C14.1225 15.5763 14.3013 15.9829 14.6148 16.2182C14.9232 16.4497 15.3093 16.4837 15.6631 16.2182C16.7561 15.3979 18.2445 15.3979 19.3376 16.2182C19.6913 16.4837 20.0775 16.4497 20.3859 16.2182C20.6993 15.9829 20.8781 15.5763 20.7287 15.1013C20.3241 13.8148 20.7612 12.392 21.8453 11.5784C22.2118 11.3034 22.3173 10.8721 22.1881 10.4615C22.0598 10.0535 21.7441 9.79332 21.3211 9.79332C19.9539 9.79332 18.7737 8.88577 18.3674 7.59398Z" fill="url(#paint0_linear_2133_25991)"/>
<path fill-rule="evenodd" clip-rule="evenodd" d="M4.73991 13.1237C4.73991 6.07631 10.4529 0.363281 17.5003 0.363281C24.5477 0.363281 30.2607 6.07631 30.2607 13.1237C30.2607 13.7465 30.216 14.3591 30.1297 14.9585C29.945 15.4492 29.7325 15.9263 29.4941 16.3877C27.5812 20.0918 24.0038 22.7942 19.7566 23.5089C19.0236 23.6323 18.2699 23.6966 17.5004 23.6966C16.6005 23.6966 15.7223 23.6087 14.8735 23.4412C10.7139 22.6206 7.23739 19.8848 5.40548 16.1878C5.20772 15.7887 5.02912 15.3784 4.87091 14.958C4.78457 14.3588 4.73991 13.7463 4.73991 13.1237ZM14.5466 6.93762C15.469 4.00517 19.5317 4.00517 20.4541 6.93762C20.5856 7.3557 20.9479 7.60582 21.3211 7.60582C24.3968 7.60582 25.5096 11.5633 23.1583 13.328C22.8343 13.5712 22.6823 14.0215 22.8154 14.4449C23.2674 15.8817 22.6877 17.2257 21.6989 17.9678C20.705 18.7137 19.245 18.8838 18.0245 17.9678C17.7095 17.7314 17.2912 17.7314 16.9762 17.9678C15.7557 18.8838 14.2957 18.7137 13.3017 17.9678C12.3129 17.2257 11.7333 15.8817 12.1852 14.4449C12.3184 14.0215 12.1663 13.5712 11.8423 13.328C9.49102 11.5633 10.6038 7.60582 13.6796 7.60582C14.0527 7.60582 14.4151 7.3557 14.5466 6.93762Z" fill="url(#paint1_linear_2133_25991)"/>
<path d="M4.75977 19.3438C4.63048 19.5626 4.4943 19.7986 4.34764 20.0527L1.68476 24.665C1.35595 25.2343 1.05191 25.7608 0.876624 26.1966C0.70493 26.6234 0.488698 27.3636 0.966538 28.0487C1.45043 28.7425 2.22717 28.7836 2.6875 28.7607C3.15358 28.7375 3.74608 28.6209 4.38254 28.4956L5.53647 28.2687C6.17618 28.1428 6.55573 28.0702 6.83734 28.0509C6.96596 28.042 7.03501 28.048 7.06899 28.0537C7.0846 28.0563 7.09381 28.0594 7.09381 28.0594L7.0981 28.0614L7.10196 28.0641C7.10196 28.0641 7.10926 28.0706 7.11933 28.0828C7.14127 28.1093 7.18095 28.1662 7.2376 28.282C7.36163 28.5355 7.48855 28.9005 7.69944 29.5174L8.0798 30.6302C8.28954 31.244 8.4848 31.8155 8.69778 32.2308C8.90813 32.6409 9.33212 33.293 10.1749 33.3651C11.0071 33.4364 11.54 32.8791 11.8239 32.5169C12.1136 32.1472 12.4175 31.6207 12.7462 31.0512L15.3555 26.5317C15.5108 26.2627 15.6528 26.0167 15.7808 25.7908C15.3314 25.7417 14.8876 25.6736 14.4501 25.5873C10.4728 24.8027 7.03833 22.5158 4.75977 19.3438Z" fill="url(#paint2_linear_2133_25991)"/>
<path d="M30.0149 19.6507C30.0811 19.7649 30.1492 19.883 30.2197 20.0053L32.91 24.6651C33.2388 25.2343 33.5429 25.7608 33.7181 26.1966C33.8898 26.6234 34.1061 27.3636 33.6282 28.0487C33.1443 28.7425 32.3676 28.7836 31.9073 28.7607C31.4412 28.7375 30.8487 28.6209 30.2122 28.4956L29.0583 28.2687C28.4186 28.1428 28.039 28.0702 27.7574 28.0509C27.6288 28.042 27.5597 28.048 27.5258 28.0537C27.5102 28.0563 27.5009 28.0594 27.5009 28.0594L27.4967 28.0614L27.4946 28.0627L27.4928 28.0641C27.4928 28.0641 27.4855 28.0706 27.4754 28.0828C27.4535 28.1093 27.4138 28.1662 27.3572 28.282C27.2331 28.5355 27.1062 28.9005 26.8953 29.5174L26.515 30.6302C26.3052 31.244 26.11 31.8155 25.897 32.2308C25.6866 32.6409 25.2626 33.293 24.4199 33.3651C23.5876 33.4364 23.0547 32.8791 22.7709 32.5169C22.4811 32.1472 22.1773 31.6207 21.8486 31.0513L19.2392 26.5315C19.0924 26.2773 18.9575 26.0437 18.8351 25.828C19.2683 25.7915 19.6968 25.7373 20.1196 25.6661C24.1488 24.9881 27.6537 22.7749 30.0149 19.6507Z" fill="url(#paint3_linear_2133_25991)"/>
<defs>
<linearGradient id="paint0_linear_2133_25991" x1="5.56863" y1="28.5729" x2="29.1239" y2="5.10258" gradientUnits="userSpaceOnUse">
<stop stop-color="#DC32C8"/>
<stop offset="0.00503364" stop-color="#DA32C8"/>
<stop offset="0.1701" stop-color="#A82BD7"/>
<stop offset="0.3142" stop-color="#8327E2"/>
<stop offset="0.4305" stop-color="#6C24E9"/>
<stop offset="0.5043" stop-color="#6423EB"/>
<stop offset="0.8109" stop-color="#2769F7"/>
<stop offset="1" stop-color="#0096FF"/>
</linearGradient>
<linearGradient id="paint1_linear_2133_25991" x1="5.56863" y1="28.5729" x2="29.1239" y2="5.10258" gradientUnits="userSpaceOnUse">
<stop stop-color="#DC32C8"/>
<stop offset="0.00503364" stop-color="#DA32C8"/>
<stop offset="0.1701" stop-color="#A82BD7"/>
<stop offset="0.3142" stop-color="#8327E2"/>
<stop offset="0.4305" stop-color="#6C24E9"/>
<stop offset="0.5043" stop-color="#6423EB"/>
<stop offset="0.8109" stop-color="#2769F7"/>
<stop offset="1" stop-color="#0096FF"/>
</linearGradient>
<linearGradient id="paint2_linear_2133_25991" x1="5.56863" y1="28.5729" x2="29.1239" y2="5.10258" gradientUnits="userSpaceOnUse">
<stop stop-color="#DC32C8"/>
<stop offset="0.00503364" stop-color="#DA32C8"/>
<stop offset="0.1701" stop-color="#A82BD7"/>
<stop offset="0.3142" stop-color="#8327E2"/>
<stop offset="0.4305" stop-color="#6C24E9"/>
<stop offset="0.5043" stop-color="#6423EB"/>
<stop offset="0.8109" stop-color="#2769F7"/>
<stop offset="1" stop-color="#0096FF"/>
</linearGradient>
<linearGradient id="paint3_linear_2133_25991" x1="5.56863" y1="28.5729" x2="29.1239" y2="5.10258" gradientUnits="userSpaceOnUse">
<stop stop-color="#DC32C8"/>
<stop offset="0.00503364" stop-color="#DA32C8"/>
<stop offset="0.1701" stop-color="#A82BD7"/>
<stop offset="0.3142" stop-color="#8327E2"/>
<stop offset="0.4305" stop-color="#6C24E9"/>
<stop offset="0.5043" stop-color="#6423EB"/>
<stop offset="0.8109" stop-color="#2769F7"/>
<stop offset="1" stop-color="#0096FF"/>
</linearGradient>
</defs>
</svg>
