<svg width="35" height="35" viewBox="0 0 35 35" fill="none" xmlns="http://www.w3.org/2000/svg">
<path fill-rule="evenodd" clip-rule="evenodd" d="M32.0827 17.5013C32.0827 25.5555 25.5535 32.0846 17.4994 32.0846C9.4452 32.0846 2.91602 25.5555 2.91602 17.5013C2.91602 9.44715 9.4452 2.91797 17.4994 2.91797C25.5535 2.91797 32.0827 9.44715 32.0827 17.5013ZM9.70421 19.447C10.2405 19.1689 10.9006 19.3782 11.1787 19.9145C11.5711 20.6714 12.3875 21.6337 13.5206 22.4041C14.6437 23.1678 16.0131 23.6992 17.4994 23.6992C18.9856 23.6992 20.355 23.1678 21.4781 22.4041C22.6112 21.6337 23.4276 20.6714 23.82 19.9145C24.0981 19.3782 24.7582 19.1689 25.2945 19.447C25.8307 19.725 26.0401 20.3852 25.762 20.9214C25.1822 22.0396 24.1028 23.2647 22.7081 24.2131C21.3034 25.1682 19.5131 25.8867 17.4994 25.8867C15.4856 25.8867 13.6953 25.1682 12.2906 24.2131C10.8959 23.2647 9.81648 22.0396 9.2367 20.9214C8.95864 20.3852 9.16795 19.725 9.70421 19.447ZM13.1243 13.1263C13.9298 13.1263 14.5827 12.4734 14.5827 11.668C14.5827 10.8626 13.9298 10.2096 13.1243 10.2096C12.3189 10.2096 11.666 10.8626 11.666 11.668C11.666 12.4734 12.3189 13.1263 13.1243 13.1263ZM21.8744 13.1263C22.6798 13.1263 23.3327 12.4734 23.3327 11.668C23.3327 10.8626 22.6798 10.2096 21.8744 10.2096C21.0689 10.2096 20.416 10.8626 20.416 11.668C20.416 12.4734 21.0689 13.1263 21.8744 13.1263Z" fill="url(#paint0_linear_2133_25985)"/>
<defs>
<linearGradient id="paint0_linear_2133_25985" x1="7.20887" y1="27.8447" x2="28.0218" y2="7.25345" gradientUnits="userSpaceOnUse">
<stop stop-color="#DC32C8"/>
<stop offset="0.00503364" stop-color="#DA32C8"/>
<stop offset="0.1701" stop-color="#A82BD7"/>
<stop offset="0.3142" stop-color="#8327E2"/>
<stop offset="0.4305" stop-color="#6C24E9"/>
<stop offset="0.5043" stop-color="#6423EB"/>
<stop offset="0.8109" stop-color="#2769F7"/>
<stop offset="1" stop-color="#0096FF"/>
</linearGradient>
</defs>
</svg>
