<svg width="35" height="35" viewBox="0 0 35 35" fill="none" xmlns="http://www.w3.org/2000/svg">
<path fill-rule="evenodd" clip-rule="evenodd" d="M9.87507 5.8954C9.87507 3.64695 11.6978 1.82422 13.9463 1.82422H21.48C23.4936 1.82422 25.1258 3.45651 25.1258 5.47005C25.1258 6.27547 25.7788 6.92839 26.5842 6.92839H27.4436C29.7549 6.92839 31.7877 8.72212 31.6935 11.1803C31.5727 14.3319 30.9606 19.3871 28.5058 23.8608C27.8404 25.0735 26.9517 26.2647 25.991 27.3747L25.9186 27.4582C24.5366 29.0551 23.3843 30.3866 22.1455 31.2941C20.813 32.2703 19.3909 32.7565 17.5005 32.7565C15.61 32.7565 14.1879 32.2703 12.8554 31.2941C11.6166 30.3866 10.4643 29.0551 9.08229 27.4582L9.00996 27.3747C8.04926 26.2647 7.16057 25.0735 6.49514 23.8608C4.11929 19.531 3.46792 14.9601 3.31987 12.0274C3.19517 9.55736 5.24255 7.77908 7.54096 7.77908H7.99139C9.03172 7.77908 9.87507 6.93573 9.87507 5.8954ZM22.727 15.2709C23.106 14.8005 23.032 14.112 22.5616 13.733C22.0912 13.354 21.4027 13.428 21.0237 13.8984L18.0757 17.557C17.4703 18.3083 17.0884 18.7781 16.7705 19.0749C16.6212 19.2144 16.5257 19.2765 16.4709 19.3039C16.4301 19.3244 16.4155 19.3243 16.4077 19.3242H16.4056C16.3977 19.3243 16.3831 19.3244 16.3423 19.3039C16.2875 19.2765 16.1921 19.2144 16.0427 19.0749C15.7248 18.7781 15.3429 18.3083 14.7376 17.557L13.977 16.6132C13.598 16.1428 12.9095 16.0688 12.4391 16.4478C11.9687 16.8268 11.8947 17.5153 12.2737 17.9857L13.0817 18.9885C13.6249 19.6628 14.1042 20.2577 14.5496 20.6737C15.0278 21.1203 15.6224 21.5117 16.4066 21.5117C17.1908 21.5117 17.7854 21.1203 18.2636 20.6737C18.709 20.2577 19.1882 19.6628 19.7315 18.9885L22.727 15.2709Z" fill="url(#paint0_linear_2133_25967)"/>
<defs>
<linearGradient id="paint0_linear_2133_25967" x1="7.49184" y1="28.2599" x2="29.4631" y2="8.31479" gradientUnits="userSpaceOnUse">
<stop stop-color="#DC32C8"/>
<stop offset="0.00503364" stop-color="#DA32C8"/>
<stop offset="0.1701" stop-color="#A82BD7"/>
<stop offset="0.3142" stop-color="#8327E2"/>
<stop offset="0.4305" stop-color="#6C24E9"/>
<stop offset="0.5043" stop-color="#6423EB"/>
<stop offset="0.8109" stop-color="#2769F7"/>
<stop offset="1" stop-color="#0096FF"/>
</linearGradient>
</defs>
</svg>
