<svg width="35" height="35" viewBox="0 0 35 35" fill="none" xmlns="http://www.w3.org/2000/svg">
<g clip-path="url(#clip0_2851_39018)">
<path d="M18.3671 7.59569C18.0869 6.70476 16.9133 6.70476 16.6331 7.59569C16.2267 8.88748 15.0466 9.79503 13.6793 9.79503C13.2563 9.79503 12.9406 10.0552 12.8123 10.4632C12.6831 10.8738 12.7886 11.3051 13.1552 11.5802C14.2392 12.3937 14.6763 13.8165 14.2717 15.103C14.1223 15.578 14.3011 15.9847 14.6146 16.2199C14.9229 16.4514 15.3091 16.4854 15.6629 16.2199C16.7559 15.3996 18.2443 15.3996 19.3373 16.2199C19.6911 16.4854 20.0772 16.4514 20.3856 16.2199C20.6991 15.9847 20.8779 15.578 20.7285 15.103C20.3238 13.8165 20.761 12.3937 21.845 11.5802C22.2116 11.3051 22.317 10.8738 22.1879 10.4632C22.0596 10.0552 21.7439 9.79503 21.3209 9.79503C19.9536 9.79503 18.7734 8.88748 18.3671 7.59569Z" fill="url(#paint0_linear_2851_39018)"/>
<path fill-rule="evenodd" clip-rule="evenodd" d="M4.73966 13.1254C4.73966 6.07802 10.4527 0.36499 17.5001 0.36499C24.5475 0.36499 30.2605 6.07802 30.2605 13.1254C30.2605 13.7482 30.2158 14.3608 30.1294 14.9602C29.9447 15.4509 29.7322 15.928 29.4939 16.3894C27.5809 20.0935 24.0035 22.7959 19.7563 23.5107C19.0234 23.634 18.2697 23.6983 17.5001 23.6983C16.6003 23.6983 15.7221 23.6104 14.8733 23.4429C10.7137 22.6223 7.23714 19.8865 5.40524 16.1895C5.20748 15.7904 5.02888 15.3801 4.87066 14.9597C4.78433 14.3605 4.73966 13.748 4.73966 13.1254ZM14.5463 6.93933C15.4687 4.00688 19.5314 4.00688 20.4538 6.93933C20.5853 7.35741 20.9477 7.60753 21.3209 7.60753C24.3966 7.60753 25.5094 11.565 23.1581 13.3297C22.8341 13.5729 22.682 14.0233 22.8152 14.4466C23.2671 15.8834 22.6875 17.2274 21.6987 17.9695C20.7048 18.7155 19.2447 18.8855 18.0242 17.9695C17.7092 17.7331 17.291 17.7331 16.9759 17.9695C15.7555 18.8855 14.2954 18.7155 13.3015 17.9695C12.3127 17.2274 11.7331 15.8834 12.185 14.4466C12.3181 14.0233 12.1661 13.5729 11.8421 13.3297C9.49078 11.565 10.6036 7.60753 13.6793 7.60753C14.0525 7.60753 14.4148 7.35741 14.5463 6.93933Z" fill="url(#paint1_linear_2851_39018)"/>
<path d="M4.75952 19.3456C4.63024 19.5644 4.49406 19.8003 4.3474 20.0545L1.68451 24.6667C1.3557 25.236 1.05167 25.7625 0.87638 26.1983C0.704685 26.6251 0.488454 27.3653 0.966294 28.0504C1.45019 28.7442 2.22693 28.7853 2.68726 28.7624C3.15334 28.7393 3.74583 28.6226 4.3823 28.4973L5.53622 28.2704C6.17594 28.1445 6.55549 28.072 6.83709 28.0526C6.96571 28.0437 7.03477 28.0497 7.06875 28.0554C7.08436 28.058 7.09357 28.0611 7.09357 28.0611L7.09785 28.0631L7.10172 28.0658C7.10172 28.0658 7.10901 28.0723 7.11909 28.0845C7.14102 28.111 7.1807 28.1679 7.23735 28.2837C7.36139 28.5372 7.48831 28.9022 7.6992 29.5192L8.07956 30.6319C8.2893 31.2457 8.48455 31.8172 8.69754 32.2325C8.90788 32.6426 9.33188 33.2947 10.1747 33.3668C11.0069 33.4381 11.5398 32.8808 11.8236 32.5186C12.1134 32.1489 12.4173 31.6224 12.7459 31.053L15.3553 26.5334C15.5106 26.2644 15.6526 26.0185 15.7806 25.7925C15.3312 25.7434 14.8873 25.6754 14.4499 25.5891C10.4725 24.8044 7.03808 22.5175 4.75952 19.3456Z" fill="url(#paint2_linear_2851_39018)"/>
<path d="M30.0146 19.6524C30.0809 19.7666 30.149 19.8847 30.2195 20.007L32.9098 24.6668C33.2386 25.236 33.5426 25.7625 33.7179 26.1983C33.8896 26.6251 34.1058 27.3653 33.628 28.0504C33.1441 28.7442 32.3673 28.7853 31.907 28.7624C31.4409 28.7393 30.8485 28.6226 30.212 28.4973L29.0581 28.2704C28.4183 28.1445 28.0388 28.072 27.7572 28.0526C27.6286 28.0437 27.5595 28.0497 27.5255 28.0554C27.5099 28.058 27.5007 28.0611 27.5007 28.0611L27.4964 28.0631L27.4944 28.0644L27.4926 28.0658C27.4926 28.0658 27.4853 28.0723 27.4752 28.0845C27.4533 28.111 27.4136 28.1679 27.3569 28.2837C27.2329 28.5372 27.106 28.9022 26.8951 29.5192L26.5147 30.6319C26.305 31.2457 26.1097 31.8172 25.8967 32.2325C25.6864 32.6426 25.2624 33.2947 24.4196 33.3668C23.5874 33.4381 23.0545 32.8808 22.7707 32.5186C22.4809 32.1489 22.177 31.6224 21.8484 31.053L19.2389 26.5333C19.0921 26.2791 18.9573 26.0454 18.8348 25.8297C19.2681 25.7932 19.6965 25.739 20.1193 25.6678C24.1486 24.9898 27.6535 22.7766 30.0146 19.6524Z" fill="url(#paint3_linear_2851_39018)"/>
</g>
<defs>
<linearGradient id="paint0_linear_2851_39018" x1="1.20743" y1="32.2984" x2="33.4894" y2="1.23919" gradientUnits="userSpaceOnUse">
<stop stop-color="#0C9665"/>
<stop offset="1" stop-color="#71C550"/>
</linearGradient>
<linearGradient id="paint1_linear_2851_39018" x1="1.20743" y1="32.2984" x2="33.4894" y2="1.23919" gradientUnits="userSpaceOnUse">
<stop stop-color="#0C9665"/>
<stop offset="1" stop-color="#71C550"/>
</linearGradient>
<linearGradient id="paint2_linear_2851_39018" x1="1.20743" y1="32.2984" x2="33.4894" y2="1.23919" gradientUnits="userSpaceOnUse">
<stop stop-color="#0C9665"/>
<stop offset="1" stop-color="#71C550"/>
</linearGradient>
<linearGradient id="paint3_linear_2851_39018" x1="1.20743" y1="32.2984" x2="33.4894" y2="1.23919" gradientUnits="userSpaceOnUse">
<stop stop-color="#0C9665"/>
<stop offset="1" stop-color="#71C550"/>
</linearGradient>
<clipPath id="clip0_2851_39018">
<rect width="35" height="35" fill="white" transform="translate(0 0.000488281)"/>
</clipPath>
</defs>
</svg>
