<svg width="35" height="35" viewBox="0 0 35 35" fill="none" xmlns="http://www.w3.org/2000/svg">
<path fill-rule="evenodd" clip-rule="evenodd" d="M7.39651 13.1253C10.7122 7.38246 12.37 4.51103 14.5344 3.54739C16.4222 2.70686 18.5781 2.70686 20.4659 3.54739C22.6303 4.51103 24.2881 7.38246 27.6038 13.1253C30.9194 18.8682 32.5772 21.7396 32.3296 24.0958C32.1136 26.151 31.0356 28.0181 29.3638 29.2327C27.4471 30.6253 24.1314 30.6253 17.5001 30.6253C10.8688 30.6253 7.55321 30.6253 5.63648 29.2327C3.96463 28.0181 2.8867 26.151 2.67069 24.0958C2.42304 21.7396 4.08086 18.8682 7.39651 13.1253ZM17.5001 9.11491C18.1041 9.11491 18.5938 9.6046 18.5938 10.2087V18.9587C18.5938 19.5627 18.1041 20.0524 17.5001 20.0524C16.896 20.0524 16.4063 19.5627 16.4063 18.9587V10.2087C16.4063 9.6046 16.896 9.11491 17.5001 9.11491ZM17.5001 24.792C18.3055 24.792 18.9584 24.1391 18.9584 23.3337C18.9584 22.5282 18.3055 21.8753 17.5001 21.8753C16.6946 21.8753 16.0417 22.5282 16.0417 23.3337C16.0417 24.1391 16.6946 24.792 17.5001 24.792Z" fill="url(#paint0_linear_4342_57304)"/>
<defs>
<linearGradient id="paint0_linear_4342_57304" x1="3.1218" y1="29.7232" x2="30.233" y2="1.95486" gradientUnits="userSpaceOnUse">
<stop stop-color="#0C9665"/>
<stop offset="1" stop-color="#71C550"/>
</linearGradient>
</defs>
</svg>
