<svg width="35" height="35" viewBox="0 0 35 35" fill="none" xmlns="http://www.w3.org/2000/svg">
<g clip-path="url(#clip0_4342_57307)">
<path fill-rule="evenodd" clip-rule="evenodd" d="M12.3021 4.02049C13.7945 -1.20898 21.2057 -1.20898 22.6981 4.02049C23.1747 5.69052 24.8905 6.68111 26.5751 6.25884C31.8501 4.93658 35.5557 11.3549 31.7731 15.2621C30.5651 16.5098 30.5651 18.491 31.7731 19.7388C35.5557 23.646 31.8501 30.0643 26.5751 28.742C24.8905 28.3197 23.1747 29.3103 22.6981 30.9804C21.2057 36.2098 13.7945 36.2098 12.3021 30.9804C11.8255 29.3103 10.1098 28.3197 8.42516 28.742C3.1501 30.0643 -0.5555 23.646 3.22715 19.7388C4.43513 18.491 4.43513 16.5098 3.22715 15.2621C-0.555498 11.3549 3.1501 4.93658 8.42516 6.25884C10.1098 6.68111 11.8255 5.69052 12.3021 4.02049ZM22.1481 12.8524C22.5753 13.2796 22.5753 13.9721 22.1481 14.3992L13.8986 22.6488C13.4714 23.076 12.7789 23.076 12.3518 22.6488C11.9246 22.2217 11.9246 21.5292 12.3518 21.102L20.6013 12.8524C21.0285 12.4253 21.721 12.4253 22.1481 12.8524ZM13.1252 14.5838C12.3197 14.5838 11.6668 13.9309 11.6668 13.1255C11.6668 12.3201 12.3197 11.6671 13.1252 11.6671C13.9306 11.6671 14.5835 12.3201 14.5835 13.1255C14.5835 13.9309 13.9306 14.5838 13.1252 14.5838ZM21.8752 23.3338C21.0697 23.3338 20.4168 22.6809 20.4168 21.8755C20.4168 21.0701 21.0697 20.4171 21.8752 20.4171C22.6806 20.4171 23.3335 21.0701 23.3335 21.8755C23.3335 22.6809 22.6806 23.3338 21.8752 23.3338Z" fill="url(#paint0_linear_4342_57307)"/>
</g>
<defs>
<linearGradient id="paint0_linear_4342_57307" x1="2.18689" y1="33.7693" x2="35.9146" y2="4.47884" gradientUnits="userSpaceOnUse">
<stop stop-color="#0C9665"/>
<stop offset="1" stop-color="#71C550"/>
</linearGradient>
<clipPath id="clip0_4342_57307">
<rect width="35" height="35" fill="white" transform="translate(0 0.000488281)"/>
</clipPath>
</defs>
</svg>
