<svg width="35" height="35" viewBox="0 0 35 35" fill="none" xmlns="http://www.w3.org/2000/svg">
<path d="M26.25 19.6859C27.8609 19.6859 29.199 21.0074 28.8439 22.5786C28.491 24.1405 27.8534 25.6327 26.9547 26.9777C25.5125 29.1361 23.4627 30.8184 21.0644 31.8118C18.6661 32.8052 16.0271 33.0651 13.4811 32.5587C10.9351 32.0522 8.59648 30.8022 6.76092 28.9666C4.92535 27.1311 3.67532 24.7924 3.16889 22.2464C2.66246 19.7004 2.92237 17.0614 3.91577 14.6631C4.90917 12.2649 6.59144 10.215 8.74983 8.77283C10.0948 7.87413 11.5871 7.23654 13.1489 6.88361C14.7201 6.52858 16.0417 7.8667 16.0417 9.47753V12.3942C16.0417 16.4213 19.3063 19.6859 23.3334 19.6859H26.25Z" fill="url(#paint0_linear_3664_41465)"/>
<path d="M20.4167 7.34001C20.4167 4.49345 22.8095 2.09562 25.4394 3.18495C27.0318 3.84454 28.4787 4.81132 29.6975 6.03009C30.9162 7.24886 31.883 8.69575 32.5426 10.2881C33.6319 12.918 31.2341 15.3109 28.3875 15.3109H26.9792C23.3548 15.3109 20.4167 12.3727 20.4167 8.74837V7.34001Z" fill="url(#paint1_linear_3664_41465)"/>
<defs>
<linearGradient id="paint0_linear_3664_41465" x1="3.39499" y1="31.8376" x2="32.6227" y2="3.91581" gradientUnits="userSpaceOnUse">
<stop stop-color="#0C9665"/>
<stop offset="1" stop-color="#71C550"/>
</linearGradient>
<linearGradient id="paint1_linear_3664_41465" x1="3.39499" y1="31.8376" x2="32.6227" y2="3.91581" gradientUnits="userSpaceOnUse">
<stop stop-color="#0C9665"/>
<stop offset="1" stop-color="#71C550"/>
</linearGradient>
</defs>
</svg>
