<svg width="35" height="35" viewBox="0 0 35 35" fill="none" xmlns="http://www.w3.org/2000/svg">
<path d="M12.6154 15.1203C11.3538 13.8657 10.5728 12.1283 10.5728 10.2085C10.5728 8.28868 11.3538 6.55127 12.6154 5.29665C11.8891 4.94001 11.0721 4.73975 10.2083 4.73975C7.18794 4.73975 4.7395 7.18819 4.7395 10.2085C4.7395 13.2288 7.18794 15.6772 10.2083 15.6772C11.0721 15.6772 11.8891 15.477 12.6154 15.1203Z" fill="url(#paint0_linear_2851_39000)"/>
<path d="M12.0312 10.2085C12.0312 7.18819 14.4796 4.73975 17.4999 4.73975C20.5202 4.73975 22.9687 7.18819 22.9687 10.2085C22.9687 13.2288 20.5202 15.6772 17.4999 15.6772C14.4796 15.6772 12.0312 13.2288 12.0312 10.2085Z" fill="url(#paint1_linear_2851_39000)"/>
<path d="M22.3844 5.29665C23.646 6.55127 24.427 8.28868 24.427 10.2085C24.427 12.1283 23.646 13.8657 22.3844 15.1203C23.1108 15.477 23.9278 15.6772 24.7916 15.6772C27.8119 15.6772 30.2603 13.2288 30.2603 10.2085C30.2603 7.18819 27.8119 4.73975 24.7916 4.73975C23.9278 4.73975 23.1108 4.94001 22.3844 5.29665Z" fill="url(#paint2_linear_2851_39000)"/>
<path d="M7.65617 23.3335C7.65617 20.3132 10.1046 17.8647 13.1249 17.8647H21.8749C24.8952 17.8647 27.3437 20.3132 27.3437 23.3335C27.3437 26.3538 24.8952 28.8022 21.8749 28.8022H13.1249C10.1046 28.8022 7.65617 26.3538 7.65617 23.3335Z" fill="url(#paint3_linear_2851_39000)"/>
<path d="M0.364502 21.8752C0.364502 18.8549 2.81294 16.4064 5.83325 16.4064H13.1249C9.2992 16.4064 6.19783 19.5078 6.19783 23.3335C6.19783 24.8281 6.67118 26.2122 7.47614 27.3439H5.83325C2.81294 27.3439 0.364502 24.8955 0.364502 21.8752Z" fill="url(#paint4_linear_2851_39000)"/>
<path d="M28.802 23.3335C28.802 24.8281 28.3287 26.2122 27.5237 27.3439H29.1666C32.1869 27.3439 34.6353 24.8955 34.6353 21.8752C34.6353 18.8549 32.1869 16.4064 29.1666 16.4064H21.8749C25.7006 16.4064 28.802 19.5078 28.802 23.3335Z" fill="url(#paint5_linear_2851_39000)"/>
<defs>
<linearGradient id="paint0_linear_2851_39000" x1="0.912836" y1="28.0188" x2="23.3895" y2="-2.56299" gradientUnits="userSpaceOnUse">
<stop stop-color="#0C9665"/>
<stop offset="1" stop-color="#71C550"/>
</linearGradient>
<linearGradient id="paint1_linear_2851_39000" x1="0.912836" y1="28.0188" x2="23.3895" y2="-2.56299" gradientUnits="userSpaceOnUse">
<stop stop-color="#0C9665"/>
<stop offset="1" stop-color="#71C550"/>
</linearGradient>
<linearGradient id="paint2_linear_2851_39000" x1="0.912836" y1="28.0188" x2="23.3895" y2="-2.56299" gradientUnits="userSpaceOnUse">
<stop stop-color="#0C9665"/>
<stop offset="1" stop-color="#71C550"/>
</linearGradient>
<linearGradient id="paint3_linear_2851_39000" x1="0.912836" y1="28.0188" x2="23.3895" y2="-2.56299" gradientUnits="userSpaceOnUse">
<stop stop-color="#0C9665"/>
<stop offset="1" stop-color="#71C550"/>
</linearGradient>
<linearGradient id="paint4_linear_2851_39000" x1="0.912836" y1="28.0188" x2="23.3895" y2="-2.56299" gradientUnits="userSpaceOnUse">
<stop stop-color="#0C9665"/>
<stop offset="1" stop-color="#71C550"/>
</linearGradient>
<linearGradient id="paint5_linear_2851_39000" x1="0.912836" y1="28.0188" x2="23.3895" y2="-2.56299" gradientUnits="userSpaceOnUse">
<stop stop-color="#0C9665"/>
<stop offset="1" stop-color="#71C550"/>
</linearGradient>
</defs>
</svg>
