<svg width="35" height="35" viewBox="0 0 35 35" fill="none" xmlns="http://www.w3.org/2000/svg">
<path d="M13.6279 12.1256L16.8808 6.83967C17.2656 6.21439 17.9472 5.8335 18.6814 5.8335C19.9772 5.8335 20.9681 6.98851 20.7711 8.26924L20.4167 10.5731C20.0333 13.0652 21.9614 15.3127 24.4828 15.3127H25.4887C29.1885 15.3127 31.5949 19.2062 29.9403 22.5154L28.2654 25.8653C27.0302 28.3356 24.5054 29.896 21.7435 29.896H17.5C15.5343 29.896 13.7957 28.9237 12.7389 27.4339C12.7531 27.2843 12.7604 27.1327 12.7604 26.9793V15.3127C12.7604 14.83 12.6883 14.3641 12.5541 13.9253C12.8126 13.4505 13.1567 12.8914 13.6279 12.1256Z" fill="url(#paint0_linear_3678_42763)"/>
<path d="M10.5729 26.9793C10.5729 28.3888 9.43031 29.5314 8.02083 29.5314C6.61136 29.5314 5.46875 28.3888 5.46875 26.9793V15.3127C5.46875 13.9032 6.61136 12.7606 8.02083 12.7606C9.43031 12.7606 10.5729 13.9032 10.5729 15.3127V26.9793Z" fill="url(#paint1_linear_3678_42763)"/>
<defs>
<linearGradient id="paint0_linear_3678_42763" x1="5.8688" y1="29.1126" x2="29.4189" y2="5.73506" gradientUnits="userSpaceOnUse">
<stop stop-color="#0C9665"/>
<stop offset="1" stop-color="#71C550"/>
</linearGradient>
<linearGradient id="paint1_linear_3678_42763" x1="5.8688" y1="29.1126" x2="29.4189" y2="5.73506" gradientUnits="userSpaceOnUse">
<stop stop-color="#0C9665"/>
<stop offset="1" stop-color="#71C550"/>
</linearGradient>
</defs>
</svg>
