<svg width="35" height="35" viewBox="0 0 35 35" fill="none" xmlns="http://www.w3.org/2000/svg">
<g clip-path="url(#clip0_3664_41468)">
<path fill-rule="evenodd" clip-rule="evenodd" d="M21.5753 22.5836C19.8133 23.4793 17.9843 23.7598 16.8258 23.4108C16.5648 23.3296 16.503 23.3066 16.2926 23.175C16.0883 23.0473 15.9237 22.8875 15.8093 22.6956C15.1001 21.5042 13.5321 19.9362 12.3245 19.2108C11.1169 18.4854 11.1835 15.8741 12.4729 13.4074C13.7618 10.9412 16.4866 7.82807 18.5277 6.48913C20.5689 5.15019 24.2698 3.98048 26.7516 3.88965C29.2334 3.79883 31.1903 5.75568 31.0994 8.23748C31.0081 10.7198 29.836 14.4508 28.4936 16.5287C27.1518 18.6062 24.0382 21.3315 21.5753 22.5836ZM21.2793 13.6371C22.3858 14.7437 24.1824 14.7412 25.292 13.6316C26.4016 12.522 26.4041 10.7255 25.2975 9.61889C24.1909 8.51233 22.3944 8.5148 21.2848 9.6244C20.1752 10.734 20.1727 12.5306 21.2793 13.6371Z" fill="url(#paint0_linear_3664_41468)"/>
<path d="M13.3848 10.0545C12.511 11.1222 11.7334 12.2581 11.2102 13.2837C10.1652 15.3314 9.9879 17.496 10.6901 18.5621C10.2709 18.5876 9.84109 18.5697 9.40702 18.5024L8.72012 18.3959C5.39522 17.8807 3.63425 16.0062 4.80633 14.23C4.80633 14.23 4.99316 13.9439 6.44988 11.7114C7.82397 9.60549 11.071 9.86766 13.3222 10.0494L13.3848 10.0545Z" fill="url(#paint1_linear_3664_41468)"/>
<path d="M12.7378 23.6413C13.1263 23.2528 13.1263 22.6228 12.7378 22.2343C12.3492 21.8457 11.7192 21.8457 11.3307 22.2343L9.20616 24.3588C8.81761 24.7474 8.81761 25.3773 9.20616 25.7659C9.59471 26.1544 10.2247 26.1544 10.6132 25.7659L12.7378 23.6413Z" fill="url(#paint2_linear_3664_41468)"/>
<path d="M7.45646 22.5691C7.84501 22.1806 7.84501 21.5506 7.45646 21.1621C7.06791 20.7735 6.43795 20.7735 6.0494 21.1621L3.92434 23.2871C3.53579 23.6757 3.53579 24.3056 3.92434 24.6942C4.31289 25.0827 4.94285 25.0827 5.3314 24.6942L7.45646 22.5691Z" fill="url(#paint3_linear_3664_41468)"/>
<path d="M13.8217 27.5499C14.2102 27.9384 14.2102 28.5684 13.8217 28.9569L11.6971 31.0815C11.3086 31.47 10.6786 31.47 10.2901 31.0815C9.90153 30.6929 9.90153 30.0629 10.2901 29.6744L12.4146 27.5499C12.8032 27.1613 13.4331 27.1613 13.8217 27.5499Z" fill="url(#paint4_linear_3664_41468)"/>
<path d="M21.6939 23.7678C22.7236 23.2487 23.8625 22.474 24.9318 21.6018L24.9374 21.665C25.1391 23.9361 25.43 27.2119 23.3181 28.58C21.0793 30.0304 20.7924 30.2164 20.7924 30.2164C19.0112 31.3835 17.1069 29.5928 16.5602 26.2364L16.4472 25.543C16.3758 25.1048 16.3543 24.6713 16.3765 24.2489C17.4571 24.9656 19.638 24.8045 21.6939 23.7678Z" fill="url(#paint5_linear_3664_41468)"/>
</g>
<defs>
<linearGradient id="paint0_linear_3664_41468" x1="-0.350737" y1="18.9565" x2="35.7066" y2="25.0416" gradientUnits="userSpaceOnUse">
<stop stop-color="#0C9665"/>
<stop offset="1" stop-color="#71C550"/>
</linearGradient>
<linearGradient id="paint1_linear_3664_41468" x1="-0.350737" y1="18.9565" x2="35.7066" y2="25.0416" gradientUnits="userSpaceOnUse">
<stop stop-color="#0C9665"/>
<stop offset="1" stop-color="#71C550"/>
</linearGradient>
<linearGradient id="paint2_linear_3664_41468" x1="-0.350737" y1="18.9565" x2="35.7066" y2="25.0416" gradientUnits="userSpaceOnUse">
<stop stop-color="#0C9665"/>
<stop offset="1" stop-color="#71C550"/>
</linearGradient>
<linearGradient id="paint3_linear_3664_41468" x1="-0.350737" y1="18.9565" x2="35.7066" y2="25.0416" gradientUnits="userSpaceOnUse">
<stop stop-color="#0C9665"/>
<stop offset="1" stop-color="#71C550"/>
</linearGradient>
<linearGradient id="paint4_linear_3664_41468" x1="-0.350737" y1="18.9565" x2="35.7066" y2="25.0416" gradientUnits="userSpaceOnUse">
<stop stop-color="#0C9665"/>
<stop offset="1" stop-color="#71C550"/>
</linearGradient>
<linearGradient id="paint5_linear_3664_41468" x1="-0.350737" y1="18.9565" x2="35.7066" y2="25.0416" gradientUnits="userSpaceOnUse">
<stop stop-color="#0C9665"/>
<stop offset="1" stop-color="#71C550"/>
</linearGradient>
<clipPath id="clip0_3664_41468">
<rect width="35" height="35" fill="white" transform="translate(0 0.000244141)"/>
</clipPath>
</defs>
</svg>
