<svg width="35" height="35" viewBox="0 0 35 35" fill="none" xmlns="http://www.w3.org/2000/svg">
<path fill-rule="evenodd" clip-rule="evenodd" d="M9.87483 5.89418C9.87483 3.64573 11.6976 1.823 13.946 1.823H21.4798C23.4933 1.823 25.1256 3.45529 25.1256 5.46883C25.1256 6.27425 25.7785 6.92717 26.5839 6.92717H27.4434C29.7546 6.92717 31.7874 8.7209 31.6932 11.1791C31.5725 14.3306 30.9604 19.3859 28.5055 23.8596C27.8401 25.0723 26.9514 26.2635 25.9907 27.3734L25.9184 27.457C24.5364 29.0539 23.3841 30.3853 22.1452 31.2929C20.8128 32.2691 19.3906 32.7553 17.5002 32.7553C15.6098 32.7553 14.1876 32.2691 12.8552 31.2929C11.6164 30.3853 10.4641 29.0539 9.08204 27.457L9.00972 27.3734C8.04902 26.2635 7.16032 25.0723 6.4949 23.8596C4.11905 19.5298 3.46768 14.9589 3.31962 12.0262C3.19493 9.55614 5.2423 7.77786 7.54072 7.77786H7.99115C9.03148 7.77786 9.87483 6.93451 9.87483 5.89418ZM22.7268 15.2697C23.1058 14.7993 23.0317 14.1107 22.5614 13.7317C22.091 13.3527 21.4024 13.4268 21.0234 13.8972L18.0754 17.5558C17.4701 18.307 17.0882 18.7769 16.7703 19.0737C16.6209 19.2132 16.5255 19.2753 16.4707 19.3027C16.4298 19.3231 16.4153 19.3231 16.4074 19.323H16.4053C16.3975 19.3231 16.3829 19.3231 16.3421 19.3027C16.2872 19.2753 16.1918 19.2132 16.0424 19.0737C15.7246 18.7769 15.3426 18.307 14.7373 17.5558L13.9768 16.612C13.5978 16.1416 12.9092 16.0675 12.4389 16.4465C11.9685 16.8255 11.8944 17.5141 12.2734 17.9845L13.0815 18.9873C13.6247 19.6616 14.104 20.2565 14.5494 20.6724C15.0276 21.119 15.6222 21.5105 16.4064 21.5105C17.1906 21.5105 17.7851 21.119 18.2633 20.6724C18.7087 20.2565 19.188 19.6616 19.7312 18.9873L22.7268 15.2697Z" fill="url(#paint0_linear_2851_38982)"/>
<defs>
<linearGradient id="paint0_linear_2851_38982" x1="3.76832" y1="31.7482" x2="33.7819" y2="5.43958" gradientUnits="userSpaceOnUse">
<stop stop-color="#0C9665"/>
<stop offset="1" stop-color="#71C550"/>
</linearGradient>
</defs>
</svg>
