<svg width="35" height="35" viewBox="0 0 35 35" fill="none" xmlns="http://www.w3.org/2000/svg">
<path d="M14.219 17.4999C14.219 15.6877 15.688 14.2187 17.5002 14.2187C19.3124 14.2187 20.7815 15.6877 20.7815 17.4999C20.7815 19.3121 19.3124 20.7812 17.5002 20.7812C15.688 20.7812 14.219 19.3121 14.219 17.4999Z" fill="url(#paint0_linear_3678_42754)"/>
<path fill-rule="evenodd" clip-rule="evenodd" d="M9.26315 8.16034C11.5549 6.28387 14.378 4.7395 17.5002 4.7395C20.6224 4.7395 23.4455 6.28387 25.7373 8.16034C28.0416 10.0471 29.9258 12.3646 31.1919 14.1283L31.2963 14.2735C32.0585 15.3326 32.686 16.2044 32.686 17.4999C32.686 18.7954 32.0585 19.6672 31.2963 20.7264L31.1919 20.8716C29.9258 22.6352 28.0416 24.9528 25.7373 26.8395C23.4455 28.716 20.6224 30.2603 17.5002 30.2603C14.378 30.2603 11.5549 28.716 9.26315 26.8395C6.95884 24.9528 5.07465 22.6352 3.80852 20.8716L3.7041 20.7264C2.94188 19.6672 2.31445 18.7954 2.31445 17.4999C2.31445 16.2044 2.94188 15.3326 3.7041 14.2735L3.80852 14.1283C5.07465 12.3646 6.95884 10.0471 9.26315 8.16034ZM17.5002 12.0312C14.4799 12.0312 12.0315 14.4796 12.0315 17.4999C12.0315 20.5202 14.4799 22.9687 17.5002 22.9687C20.5205 22.9687 22.969 20.5202 22.969 17.4999C22.969 14.4796 20.5205 12.0312 17.5002 12.0312Z" fill="url(#paint1_linear_3678_42754)"/>
<defs>
<linearGradient id="paint0_linear_3678_42754" x1="2.8004" y1="29.4294" x2="27.5742" y2="1.26421" gradientUnits="userSpaceOnUse">
<stop stop-color="#0C9665"/>
<stop offset="1" stop-color="#71C550"/>
</linearGradient>
<linearGradient id="paint1_linear_3678_42754" x1="2.8004" y1="29.4294" x2="27.5742" y2="1.26421" gradientUnits="userSpaceOnUse">
<stop stop-color="#0C9665"/>
<stop offset="1" stop-color="#71C550"/>
</linearGradient>
</defs>
</svg>
