<svg width="35" height="35" viewBox="0 0 35 35" fill="none" xmlns="http://www.w3.org/2000/svg">
<path fill-rule="evenodd" clip-rule="evenodd" d="M27.6193 5.76807C25.7025 4.37549 22.9684 4.37549 17.5 4.37549C12.0316 4.37549 9.29746 4.37549 7.38074 5.76807C6.76171 6.21782 6.21733 6.7622 5.76758 7.38122C4.375 9.29795 4.375 12.0321 4.375 17.5005C4.375 22.9688 4.375 25.703 5.76758 27.6198C6.21733 28.2388 6.76171 28.7832 7.38073 29.2329C9.29746 30.6255 12.0316 30.6255 17.5 30.6255C22.9684 30.6255 25.7025 30.6255 27.6193 29.2329C28.2383 28.7832 28.7827 28.2388 29.2324 27.6198C30.625 25.703 30.625 22.9688 30.625 17.5005C30.625 12.0321 30.625 9.29795 29.2324 7.38122C28.7827 6.7622 28.2383 6.21782 27.6193 5.76807ZM24.9396 20.3588C25.3537 20.7714 25.7456 21.2752 25.8525 21.9459C25.8744 22.0835 25.8854 22.2225 25.8854 22.3617C25.8854 22.501 25.8744 22.6399 25.8525 22.7775C25.7456 23.4483 25.3537 23.9521 24.9396 24.3647C24.5404 24.7623 23.9868 25.2012 23.345 25.71L21.5823 27.1076C21.109 27.4829 20.421 27.4035 20.0457 26.9301C19.6704 26.4568 19.7499 25.7689 20.2232 25.3936L21.9372 24.0346C22.216 23.8135 22.4556 23.6232 22.6619 23.4555L11.1806 23.4555C10.5765 23.4555 10.0868 22.9658 10.0868 22.3617C10.0868 21.7577 10.5765 21.268 11.1806 21.268L22.6619 21.268C22.4556 21.1002 22.216 20.9099 21.9372 20.6889L20.2232 19.3299C19.7499 18.9546 19.6704 18.2666 20.0457 17.7933C20.421 17.32 21.109 17.2405 21.5823 17.6158L23.345 19.0134C23.9868 19.5223 24.5404 19.9611 24.9396 20.3588ZM23.8197 13.7331C24.4237 13.7331 24.9134 13.2434 24.9134 12.6394C24.9134 12.0353 24.4237 11.5456 23.8197 11.5456L12.3384 11.5456C12.5447 11.3779 12.7842 11.1876 13.063 10.9665L14.777 9.60753C15.2503 9.23223 15.3298 8.54428 14.9545 8.07095C14.5792 7.59762 13.8913 7.51815 13.4179 7.89345L11.6552 9.29108C11.0134 9.79991 10.4599 10.2388 10.0607 10.6364C9.64649 11.049 9.25465 11.5528 9.14778 12.2236C9.12586 12.3612 9.11482 12.5001 9.11482 12.6394C9.11482 12.7786 9.12585 12.9176 9.14778 13.0552C9.25465 13.7259 9.6465 14.2297 10.0607 14.6423C10.4599 15.04 11.0134 15.4788 11.6552 15.9876L13.4179 17.3853C13.8913 17.7606 14.5792 17.6811 14.9545 17.2078C15.3298 16.7345 15.2503 16.0465 14.777 15.6712L13.063 14.3122C12.7842 14.0911 12.5447 13.9009 12.3384 13.7331L23.8197 13.7331Z" fill="url(#paint0_linear_3392_52502)"/>
<defs>
<linearGradient id="paint0_linear_3392_52502" x1="5.22965" y1="4.79549" x2="29.7477" y2="30.4603" gradientUnits="userSpaceOnUse">
<stop stop-color="#0C9665"/>
<stop offset="1" stop-color="#71C550"/>
</linearGradient>
</defs>
</svg>
