<svg width="35" height="35" viewBox="0 0 35 35" fill="none" xmlns="http://www.w3.org/2000/svg">
<path fill-rule="evenodd" clip-rule="evenodd" d="M17.5001 2.18762C8.84187 2.18762 1.823 9.20649 1.823 17.8647C1.823 26.5229 8.84187 33.5418 17.5001 33.5418C26.1583 33.5418 33.1772 26.5229 33.1772 17.8647C33.1772 9.20649 26.1583 2.18762 17.5001 2.18762ZM18.5938 12.0314C18.5938 11.4273 18.1041 10.9376 17.5001 10.9376C16.896 10.9376 16.4063 11.4273 16.4063 12.0314V18.1649C16.4063 18.6298 16.2287 19.0771 15.9098 19.4154L13.7876 21.6663C13.3732 22.1058 13.3936 22.7981 13.8331 23.2125C14.2726 23.6268 14.9649 23.6065 15.3792 23.1669L17.5014 20.916C18.2031 20.1718 18.5938 19.1877 18.5938 18.1649V12.0314Z" fill="url(#paint0_linear_2851_38991)"/>
<path d="M8.70418 2.67711C9.17587 2.29976 9.25235 1.61147 8.87499 1.13978C8.49764 0.668085 7.80935 0.591609 7.33766 0.968963L3.69182 3.88563C3.22013 4.26298 3.14365 4.95127 3.52101 5.42297C3.89836 5.89466 4.58665 5.97113 5.05834 5.59378L8.70418 2.67711Z" fill="url(#paint1_linear_2851_38991)"/>
<path d="M27.6625 0.968963C27.1908 0.591609 26.5025 0.668085 26.1252 1.13978C25.7478 1.61147 25.8243 2.29976 26.296 2.67711L29.9418 5.59378C30.4135 5.97113 31.1018 5.89466 31.4792 5.42297C31.8565 4.95127 31.78 4.26298 31.3083 3.88563L27.6625 0.968963Z" fill="url(#paint2_linear_2851_38991)"/>
<defs>
<linearGradient id="paint0_linear_2851_38991" x1="2.32467" y1="32.4735" x2="34.3063" y2="3.27879" gradientUnits="userSpaceOnUse">
<stop stop-color="#0C9665"/>
<stop offset="1" stop-color="#71C550"/>
</linearGradient>
<linearGradient id="paint1_linear_2851_38991" x1="2.32467" y1="32.4735" x2="34.3063" y2="3.27879" gradientUnits="userSpaceOnUse">
<stop stop-color="#0C9665"/>
<stop offset="1" stop-color="#71C550"/>
</linearGradient>
<linearGradient id="paint2_linear_2851_38991" x1="2.32467" y1="32.4735" x2="34.3063" y2="3.27879" gradientUnits="userSpaceOnUse">
<stop stop-color="#0C9665"/>
<stop offset="1" stop-color="#71C550"/>
</linearGradient>
</defs>
</svg>
