<svg width="35" height="35" viewBox="0 0 35 35" fill="none" xmlns="http://www.w3.org/2000/svg">
<g clip-path="url(#clip0_3664_41470)">
<path fill-rule="evenodd" clip-rule="evenodd" d="M12.3019 4.02039C13.7943 -1.20909 21.2055 -1.20909 22.698 4.02039C23.1746 5.69041 24.8903 6.681 26.5749 6.25874C31.85 4.93648 35.5555 11.3548 31.7729 15.262C30.5649 16.5097 30.5649 18.4909 31.7729 19.7387C35.5555 23.6459 31.85 30.0642 26.5749 28.7419C24.8903 28.3196 23.1746 29.3102 22.698 30.9802C21.2055 36.2097 13.7943 36.2097 12.3019 30.9802C11.8253 29.3102 10.1096 28.3196 8.42498 28.7419C3.14991 30.0642 -0.555682 23.6459 3.22696 19.7387C4.43495 18.4909 4.43495 16.5097 3.22696 15.262C-0.555681 11.3548 3.14991 4.93648 8.42498 6.25874C10.1096 6.681 11.8253 5.69041 12.3019 4.02039ZM24.1736 13.8255C24.5603 13.3615 24.4976 12.6718 24.0335 12.2851C23.5695 11.8984 22.8798 11.9611 22.4931 12.4251L17.442 18.4864C16.9013 19.1352 16.5692 19.5296 16.2957 19.7766C16.1688 19.8912 16.0936 19.9368 16.0575 19.9543C16.0502 19.9578 16.0449 19.96 16.0416 19.9612C16.0383 19.96 16.0331 19.9578 16.0258 19.9543C15.9897 19.9368 15.9145 19.8912 15.7876 19.7766C15.514 19.5296 15.182 19.1352 14.6412 18.4863L12.5069 15.9251C12.1202 15.4611 11.4305 15.3984 10.9664 15.7851C10.5024 16.1718 10.4397 16.8615 10.8264 17.3255L13.0073 19.9427C13.4864 20.5176 13.9182 21.0359 14.3216 21.4002C14.7604 21.7965 15.3132 22.1494 16.0416 22.1494C16.7701 22.1494 17.3229 21.7965 17.7617 21.4002C18.1651 21.0359 18.5969 20.5176 19.0759 19.9427L24.1736 13.8255Z" fill="url(#paint0_linear_3664_41470)"/>
</g>
<defs>
<linearGradient id="paint0_linear_3664_41470" x1="2.1867" y1="33.7692" x2="35.9144" y2="4.47874" gradientUnits="userSpaceOnUse">
<stop stop-color="#0C9665"/>
<stop offset="1" stop-color="#71C550"/>
</linearGradient>
<clipPath id="clip0_3664_41470">
<rect width="35" height="35" fill="white" transform="translate(0 0.000366211)"/>
</clipPath>
</defs>
</svg>
